<?xml version="1.0" encoding="UTF-8" standalone="no"?>
<svg width="310.092mm" height="194.028mm"
 xmlns="http://www.w3.org/2000/svg" xmlns:xlink="http://www.w3.org/1999/xlink"  version="1.2" baseProfile="tiny">
<title>Qt Svg Document</title>
<desc>Generated with Qt</desc>
<defs>
</defs>
<g fill="none" stroke="black" stroke-width="1" fill-rule="evenodd" stroke-linecap="square" stroke-linejoin="bevel" >

<g fill="#ffffff" fill-opacity="1" stroke="none" transform="matrix(1,0,0,1,0,0)"
font-family="Helvetica" font-size="12" font-weight="400" font-style="normal" 
>
<path vector-effect="non-scaling-stroke" fill-rule="evenodd" d="M0,0 L879,0 L879,550 L0,550 L0,0"/>
</g>

<g fill="none" stroke="#000080" stroke-opacity="1" stroke-width="3" stroke-linecap="square" stroke-linejoin="bevel" transform="matrix(1,0,0,1,0,0)"
font-family="Helvetica" font-size="12" font-weight="400" font-style="normal" 
>
<polyline fill="none" vector-effect="none" points="269,164 269,194 " />
</g>

<g fill="none" stroke="#000080" stroke-opacity="1" stroke-width="2" stroke-linecap="square" stroke-linejoin="bevel" transform="matrix(1,0,0,1,0,0)"
font-family="Helvetica" font-size="12" font-weight="400" font-style="normal" 
>
<polyline fill="none" vector-effect="none" points="249,179 269,179 " />
<polyline fill="none" vector-effect="none" points="269,174 279,164 " />
<polyline fill="none" vector-effect="none" points="279,164 279,149 " />
<polyline fill="none" vector-effect="none" points="269,184 279,194 " />
<polyline fill="none" vector-effect="none" points="279,194 279,209 " />
<polyline fill="none" vector-effect="none" points="273,194 279,194 " />
<polyline fill="none" vector-effect="none" points="279,188 279,194 " />
</g>

<g fill="none" stroke="#000080" stroke-opacity="1" stroke-width="2" stroke-linecap="square" stroke-linejoin="bevel" transform="matrix(1,0,0,1,0,0)"
font-family="Helvetica" font-size="12" font-weight="400" font-style="normal" 
>
</g>

<g fill="none" stroke="#000000" stroke-opacity="1" stroke-width="1" stroke-linecap="square" stroke-linejoin="bevel" transform="matrix(1,0,0,1,0,0)"
font-family="Helvetica" font-size="12" font-weight="400" font-style="normal" 
>
<text fill="#000000" fill-opacity="1" stroke="none" xml:space="preserve" x="287" y="165" font-family="Helvetica" font-size="12" font-weight="400" font-style="normal" 
 >Q2N2222A_1</text>
</g>

<g fill="none" stroke="#000080" stroke-opacity="1" stroke-width="2" stroke-linecap="square" stroke-linejoin="bevel" transform="matrix(1,0,0,1,0,0)"
font-family="Helvetica" font-size="12" font-weight="400" font-style="normal" 
>
<polyline fill="none" vector-effect="none" points="159,279 159,289 " />
</g>

<g fill="none" stroke="#000080" stroke-opacity="1" stroke-width="3" stroke-linecap="square" stroke-linejoin="bevel" transform="matrix(1,0,0,1,0,0)"
font-family="Helvetica" font-size="12" font-weight="400" font-style="normal" 
>
<polyline fill="none" vector-effect="none" points="148,289 170,289 " />
<polyline fill="none" vector-effect="none" points="152,295 166,295 " />
<polyline fill="none" vector-effect="none" points="156,301 162,301 " />
</g>

<g fill="none" stroke="#000080" stroke-opacity="1" stroke-width="3" stroke-linecap="square" stroke-linejoin="bevel" transform="matrix(1,0,0,1,0,0)"
font-family="Helvetica" font-size="12" font-weight="400" font-style="normal" 
>
</g>

<g fill="none" stroke="#000080" stroke-opacity="1" stroke-width="2" stroke-linecap="square" stroke-linejoin="bevel" transform="matrix(1,0,0,1,0,0)"
font-family="Helvetica" font-size="12" font-weight="400" font-style="normal" 
>
<polyline fill="none" vector-effect="none" points="150,227 150,191 " />
<polyline fill="none" vector-effect="none" points="150,191 168,191 " />
<polyline fill="none" vector-effect="none" points="168,191 168,227 " />
<polyline fill="none" vector-effect="none" points="168,227 150,227 " />
<polyline fill="none" vector-effect="none" points="159,239 159,227 " />
<polyline fill="none" vector-effect="none" points="159,191 159,179 " />
</g>

<g fill="none" stroke="#000080" stroke-opacity="1" stroke-width="2" stroke-linecap="square" stroke-linejoin="bevel" transform="matrix(1,0,0,1,0,0)"
font-family="Helvetica" font-size="12" font-weight="400" font-style="normal" 
>
</g>

<g fill="none" stroke="#000000" stroke-opacity="1" stroke-width="1" stroke-linecap="square" stroke-linejoin="bevel" transform="matrix(1,0,0,1,0,0)"
font-family="Helvetica" font-size="12" font-weight="400" font-style="normal" 
>
<text fill="#000000" fill-opacity="1" stroke="none" xml:space="preserve" x="174" y="195" font-family="Helvetica" font-size="12" font-weight="400" font-style="normal" 
 >R1</text>
<text fill="#000000" fill-opacity="1" stroke="none" xml:space="preserve" x="174" y="210" font-family="Helvetica" font-size="12" font-weight="400" font-style="normal" 
 >R=2 kOhm</text>
</g>

<g fill="none" stroke="#000080" stroke-opacity="1" stroke-width="2" stroke-linecap="square" stroke-linejoin="bevel" transform="matrix(1,0,0,1,0,0)"
font-family="Helvetica" font-size="12" font-weight="400" font-style="normal" 
>
<polyline fill="none" vector-effect="none" points="270,277 270,241 " />
<polyline fill="none" vector-effect="none" points="270,241 288,241 " />
<polyline fill="none" vector-effect="none" points="288,241 288,277 " />
<polyline fill="none" vector-effect="none" points="288,277 270,277 " />
<polyline fill="none" vector-effect="none" points="279,289 279,277 " />
<polyline fill="none" vector-effect="none" points="279,241 279,229 " />
</g>

<g fill="none" stroke="#000080" stroke-opacity="1" stroke-width="2" stroke-linecap="square" stroke-linejoin="bevel" transform="matrix(1,0,0,1,0,0)"
font-family="Helvetica" font-size="12" font-weight="400" font-style="normal" 
>
</g>

<g fill="none" stroke="#000000" stroke-opacity="1" stroke-width="1" stroke-linecap="square" stroke-linejoin="bevel" transform="matrix(1,0,0,1,0,0)"
font-family="Helvetica" font-size="12" font-weight="400" font-style="normal" 
>
<text fill="#000000" fill-opacity="1" stroke="none" xml:space="preserve" x="294" y="245" font-family="Helvetica" font-size="12" font-weight="400" font-style="normal" 
 >R2</text>
<text fill="#000000" fill-opacity="1" stroke="none" xml:space="preserve" x="294" y="260" font-family="Helvetica" font-size="12" font-weight="400" font-style="normal" 
 >R=470 Ohm</text>
</g>

<g fill="none" stroke="#000080" stroke-opacity="1" stroke-width="2" stroke-linecap="square" stroke-linejoin="bevel" transform="matrix(1,0,0,1,0,0)"
font-family="Helvetica" font-size="12" font-weight="400" font-style="normal" 
>
<polyline fill="none" vector-effect="none" points="29,279 29,289 " />
</g>

<g fill="none" stroke="#000080" stroke-opacity="1" stroke-width="3" stroke-linecap="square" stroke-linejoin="bevel" transform="matrix(1,0,0,1,0,0)"
font-family="Helvetica" font-size="12" font-weight="400" font-style="normal" 
>
<polyline fill="none" vector-effect="none" points="18,289 40,289 " />
<polyline fill="none" vector-effect="none" points="22,295 36,295 " />
<polyline fill="none" vector-effect="none" points="26,301 32,301 " />
</g>

<g fill="none" stroke="#000080" stroke-opacity="1" stroke-width="3" stroke-linecap="square" stroke-linejoin="bevel" transform="matrix(1,0,0,1,0,0)"
font-family="Helvetica" font-size="12" font-weight="400" font-style="normal" 
>
</g>

<g fill="none" stroke="#000080" stroke-opacity="1" stroke-width="2" stroke-linecap="square" stroke-linejoin="bevel" transform="matrix(1,0,0,1,0,0)"
font-family="Helvetica" font-size="12" font-weight="400" font-style="normal" 
>
<polyline fill="none" vector-effect="none" points="150,137 150,101 " />
<polyline fill="none" vector-effect="none" points="150,101 168,101 " />
<polyline fill="none" vector-effect="none" points="168,101 168,137 " />
<polyline fill="none" vector-effect="none" points="168,137 150,137 " />
<polyline fill="none" vector-effect="none" points="159,149 159,137 " />
<polyline fill="none" vector-effect="none" points="159,101 159,89 " />
</g>

<g fill="none" stroke="#000080" stroke-opacity="1" stroke-width="2" stroke-linecap="square" stroke-linejoin="bevel" transform="matrix(1,0,0,1,0,0)"
font-family="Helvetica" font-size="12" font-weight="400" font-style="normal" 
>
</g>

<g fill="none" stroke="#000000" stroke-opacity="1" stroke-width="1" stroke-linecap="square" stroke-linejoin="bevel" transform="matrix(1,0,0,1,0,0)"
font-family="Helvetica" font-size="12" font-weight="400" font-style="normal" 
>
<text fill="#000000" fill-opacity="1" stroke="none" xml:space="preserve" x="174" y="105" font-family="Helvetica" font-size="12" font-weight="400" font-style="normal" 
 >R3</text>
<text fill="#000000" fill-opacity="1" stroke="none" xml:space="preserve" x="174" y="120" font-family="Helvetica" font-size="12" font-weight="400" font-style="normal" 
 >R=24 kOhm</text>
</g>

<g fill="none" stroke="#000080" stroke-opacity="1" stroke-width="4" stroke-linecap="square" stroke-linejoin="bevel" transform="matrix(1,0,0,1,0,0)"
font-family="Helvetica" font-size="12" font-weight="400" font-style="normal" 
>
<polyline fill="none" vector-effect="none" points="425,128 425,150 " />
<polyline fill="none" vector-effect="none" points="433,128 433,150 " />
</g>

<g fill="none" stroke="#000080" stroke-opacity="1" stroke-width="2" stroke-linecap="square" stroke-linejoin="bevel" transform="matrix(1,0,0,1,0,0)"
font-family="Helvetica" font-size="12" font-weight="400" font-style="normal" 
>
<polyline fill="none" vector-effect="none" points="399,139 425,139 " />
<polyline fill="none" vector-effect="none" points="433,139 459,139 " />
</g>

<g fill="none" stroke="#000080" stroke-opacity="1" stroke-width="2" stroke-linecap="square" stroke-linejoin="bevel" transform="matrix(1,0,0,1,0,0)"
font-family="Helvetica" font-size="12" font-weight="400" font-style="normal" 
>
</g>

<g fill="none" stroke="#000000" stroke-opacity="1" stroke-width="1" stroke-linecap="square" stroke-linejoin="bevel" transform="matrix(1,0,0,1,0,0)"
font-family="Helvetica" font-size="12" font-weight="400" font-style="normal" 
>
<text fill="#000000" fill-opacity="1" stroke="none" xml:space="preserve" x="403" y="168" font-family="Helvetica" font-size="12" font-weight="400" font-style="normal" 
 >C2</text>
<text fill="#000000" fill-opacity="1" stroke="none" xml:space="preserve" x="403" y="183" font-family="Helvetica" font-size="12" font-weight="400" font-style="normal" 
 >C=0.1 uF</text>
</g>

<g fill="none" stroke="#000080" stroke-opacity="1" stroke-width="2" stroke-linecap="square" stroke-linejoin="bevel" transform="matrix(1,0,0,1,0,0)"
font-family="Helvetica" font-size="12" font-weight="400" font-style="normal" 
>
<polyline fill="none" vector-effect="none" points="270,117 270,81 " />
<polyline fill="none" vector-effect="none" points="270,81 288,81 " />
<polyline fill="none" vector-effect="none" points="288,81 288,117 " />
<polyline fill="none" vector-effect="none" points="288,117 270,117 " />
<polyline fill="none" vector-effect="none" points="279,129 279,117 " />
<polyline fill="none" vector-effect="none" points="279,81 279,69 " />
</g>

<g fill="none" stroke="#000080" stroke-opacity="1" stroke-width="2" stroke-linecap="square" stroke-linejoin="bevel" transform="matrix(1,0,0,1,0,0)"
font-family="Helvetica" font-size="12" font-weight="400" font-style="normal" 
>
</g>

<g fill="none" stroke="#000000" stroke-opacity="1" stroke-width="1" stroke-linecap="square" stroke-linejoin="bevel" transform="matrix(1,0,0,1,0,0)"
font-family="Helvetica" font-size="12" font-weight="400" font-style="normal" 
>
<text fill="#000000" fill-opacity="1" stroke="none" xml:space="preserve" x="294" y="85" font-family="Helvetica" font-size="12" font-weight="400" font-style="normal" 
 >R5</text>
<text fill="#000000" fill-opacity="1" stroke="none" xml:space="preserve" x="294" y="100" font-family="Helvetica" font-size="12" font-weight="400" font-style="normal" 
 >R=4.7k</text>
</g>

<g fill="none" stroke="#000080" stroke-opacity="1" stroke-width="2" stroke-linecap="square" stroke-linejoin="bevel" transform="matrix(1,0,0,1,0,0)"
font-family="Helvetica" font-size="12" font-weight="400" font-style="normal" 
>
<polyline fill="none" vector-effect="none" points="29,279 29,261 " />
<polyline fill="none" vector-effect="none" points="29,219 29,237 " />
</g>

<g fill="none" stroke="#ff0000" stroke-opacity="1" stroke-width="1" stroke-linecap="square" stroke-linejoin="bevel" transform="matrix(1,0,0,1,0,0)"
font-family="Helvetica" font-size="12" font-weight="400" font-style="normal" 
>
<polyline fill="none" vector-effect="none" points="34,231 40,231 " />
<polyline fill="none" vector-effect="none" points="37,228 37,234 " />
</g>

<g fill="none" stroke="#000000" stroke-opacity="1" stroke-width="1" stroke-linecap="square" stroke-linejoin="bevel" transform="matrix(1,0,0,1,0,0)"
font-family="Helvetica" font-size="12" font-weight="400" font-style="normal" 
>
<polyline fill="none" vector-effect="none" points="34,267 40,267 " />
</g>

<g fill="none" stroke="#000080" stroke-opacity="1" stroke-width="2" stroke-linecap="square" stroke-linejoin="bevel" transform="matrix(1,0,0,1,0,0)"
font-family="Helvetica" font-size="12" font-weight="400" font-style="normal" 
>
<path vector-effect="none" fill-rule="evenodd" d="M29,237 C22.3726,237 17,242.373 17,249 C17,255.627 22.3726,261 29,261 C35.6274,261 41,255.627 41,249 C41,242.373 35.6274,237 29,237 "/>
<path vector-effect="none" fill-rule="evenodd" d="M29,248.5 C29,246.567 27.433,245 25.5,245 C23.567,245 22,246.567 22,248.5 "/>
<path vector-effect="none" fill-rule="evenodd" d="M29,248.5 C29,250.433 30.567,252 32.5,252 C34.433,252 36,250.433 36,248.5 "/>
</g>

<g fill="none" stroke="#000080" stroke-opacity="1" stroke-width="2" stroke-linecap="square" stroke-linejoin="bevel" transform="matrix(1,0,0,1,0,0)"
font-family="Helvetica" font-size="12" font-weight="400" font-style="normal" 
>
</g>

<g fill="none" stroke="#000000" stroke-opacity="1" stroke-width="1" stroke-linecap="square" stroke-linejoin="bevel" transform="matrix(1,0,0,1,0,0)"
font-family="Helvetica" font-size="12" font-weight="400" font-style="normal" 
>
<text fill="#000000" fill-opacity="1" stroke="none" xml:space="preserve" x="47" y="235" font-family="Helvetica" font-size="12" font-weight="400" font-style="normal" 
 >V2</text>
<text fill="#000000" fill-opacity="1" stroke="none" xml:space="preserve" x="47" y="250" font-family="Helvetica" font-size="12" font-weight="400" font-style="normal" 
 >U=1000 mV</text>
<text fill="#000000" fill-opacity="1" stroke="none" xml:space="preserve" x="47" y="265" font-family="Helvetica" font-size="12" font-weight="400" font-style="normal" 
 >f=4 kHz</text>
</g>

<g fill="none" stroke="#00ffff" stroke-opacity="1" stroke-width="2" stroke-linecap="square" stroke-linejoin="bevel" transform="matrix(1,0,0,1,0,0)"
font-family="Helvetica" font-size="16" font-weight="630" font-style="normal" 
>
<text fill="#00ffff" fill-opacity="1" stroke="none" xml:space="preserve" x="39" y="365" font-family="Helvetica" font-size="16" font-weight="630" font-style="normal" 
 >Noise</text>
<text fill="#00ffff" fill-opacity="1" stroke="none" xml:space="preserve" x="39" y="386" font-family="Helvetica" font-size="16" font-weight="630" font-style="normal" 
 >simulation</text>
<path vector-effect="none" fill-rule="evenodd" d="M33,344 L124,344 L124,396 L33,396 L33,344"/>
<polyline fill="none" vector-effect="none" points="38,401 33,396 " />
<polyline fill="none" vector-effect="none" points="128,401 38,401 " />
<polyline fill="none" vector-effect="none" points="128,401 124,396 " />
<polyline fill="none" vector-effect="none" points="128,401 128,349 " />
<polyline fill="none" vector-effect="none" points="128,349 124,344 " />
</g>

<g fill="none" stroke="#000000" stroke-opacity="1" stroke-width="1" stroke-linecap="square" stroke-linejoin="bevel" transform="matrix(1,0,0,1,0,0)"
font-family="Helvetica" font-size="12" font-weight="400" font-style="normal" 
>
<text fill="#000000" fill-opacity="1" stroke="none" xml:space="preserve" x="39" y="432" font-family="Helvetica" font-size="12" font-weight="400" font-style="normal" 
 >NOISE1</text>
<text fill="#000000" fill-opacity="1" stroke="none" xml:space="preserve" x="39" y="447" font-family="Helvetica" font-size="12" font-weight="400" font-style="normal" 
 >Type=lin</text>
<text fill="#000000" fill-opacity="1" stroke="none" xml:space="preserve" x="39" y="462" font-family="Helvetica" font-size="12" font-weight="400" font-style="normal" 
 >Start=1 Hz</text>
<text fill="#000000" fill-opacity="1" stroke="none" xml:space="preserve" x="39" y="477" font-family="Helvetica" font-size="12" font-weight="400" font-style="normal" 
 >Stop=10 MHz</text>
<text fill="#000000" fill-opacity="1" stroke="none" xml:space="preserve" x="39" y="492" font-family="Helvetica" font-size="12" font-weight="400" font-style="normal" 
 >Points=100</text>
<text fill="#000000" fill-opacity="1" stroke="none" xml:space="preserve" x="39" y="507" font-family="Helvetica" font-size="12" font-weight="400" font-style="normal" 
 >Output=v(out)</text>
<text fill="#000000" fill-opacity="1" stroke="none" xml:space="preserve" x="39" y="522" font-family="Helvetica" font-size="12" font-weight="400" font-style="normal" 
 >Source=V2</text>
</g>

<g fill="none" stroke="#000080" stroke-opacity="1" stroke-width="2" stroke-linecap="square" stroke-linejoin="bevel" transform="matrix(1,0,0,1,0,0)"
font-family="Helvetica" font-size="12" font-weight="400" font-style="normal" 
>
<polyline fill="none" vector-effect="none" points="399,49 389,49 " />
<polyline fill="none" vector-effect="none" points="339,49 349,49 " />
</g>

<g fill="none" stroke="#000080" stroke-opacity="1" stroke-width="3" stroke-linecap="square" stroke-linejoin="bevel" transform="matrix(1,0,0,1,0,0)"
font-family="Helvetica" font-size="12" font-weight="400" font-style="normal" 
>
<polyline fill="none" vector-effect="none" points="389,49 349,49 " />
<polyline fill="none" vector-effect="none" points="365,49 373,45 " />
<polyline fill="none" vector-effect="none" points="365,49 373,53 " />
</g>

<g fill="none" stroke="#000080" stroke-opacity="1" stroke-width="2" stroke-linecap="square" stroke-linejoin="bevel" transform="matrix(1,0,0,1,0,0)"
font-family="Helvetica" font-size="12" font-weight="400" font-style="normal" 
>
<polyline fill="none" vector-effect="none" points="389,18 349,18 " />
<polyline fill="none" vector-effect="none" points="389,58 349,58 " />
<polyline fill="none" vector-effect="none" points="389,18 389,58 " />
<polyline fill="none" vector-effect="none" points="349,18 349,58 " />
<polyline fill="none" vector-effect="none" points="385,22 353,22 " />
<polyline fill="none" vector-effect="none" points="385,40 353,40 " />
<polyline fill="none" vector-effect="none" points="385,22 385,40 " />
<polyline fill="none" vector-effect="none" points="353,22 353,40 " />
<polyline fill="none" vector-effect="none" points="380,25 371,40 " />
<path vector-effect="none" fill-rule="evenodd" d="M382.035,30.5618 C378.645,27.7147 374.273,26 369.5,26 C364.727,26 360.355,27.7148 356.965,30.5619 "/>
</g>

<g fill="none" stroke="#000080" stroke-opacity="1" stroke-width="2" stroke-linecap="square" stroke-linejoin="bevel" transform="matrix(1,0,0,1,0,0)"
font-family="Helvetica" font-size="12" font-weight="400" font-style="normal" 
>
</g>

<g fill="none" stroke="#000000" stroke-opacity="1" stroke-width="1" stroke-linecap="square" stroke-linejoin="bevel" transform="matrix(1,0,0,1,0,0)"
font-family="Helvetica" font-size="12" font-weight="400" font-style="normal" 
>
<text fill="#000000" fill-opacity="1" stroke="none" xml:space="preserve" x="343" y="77" font-family="Helvetica" font-size="12" font-weight="400" font-style="normal" 
 >Pr1</text>
</g>

<g fill="none" stroke="#000080" stroke-opacity="1" stroke-width="2" stroke-linecap="square" stroke-linejoin="bevel" transform="matrix(1,0,0,1,0,0)"
font-family="Helvetica" font-size="12" font-weight="400" font-style="normal" 
>
<polyline fill="none" vector-effect="none" points="546,105 572,105 " />
</g>

<g fill="none" stroke="#000080" stroke-opacity="1" stroke-width="4" stroke-linecap="square" stroke-linejoin="bevel" transform="matrix(1,0,0,1,0,0)"
font-family="Helvetica" font-size="12" font-weight="400" font-style="normal" 
>
<polyline fill="none" vector-effect="none" points="553,113 565,113 " />
</g>

<g fill="none" stroke="#000080" stroke-opacity="1" stroke-width="2" stroke-linecap="square" stroke-linejoin="bevel" transform="matrix(1,0,0,1,0,0)"
font-family="Helvetica" font-size="12" font-weight="400" font-style="normal" 
>
<polyline fill="none" vector-effect="none" points="559,79 559,105 " />
<polyline fill="none" vector-effect="none" points="559,113 559,139 " />
</g>

<g fill="none" stroke="#ff0000" stroke-opacity="1" stroke-width="1" stroke-linecap="square" stroke-linejoin="bevel" transform="matrix(1,0,0,1,0,0)"
font-family="Helvetica" font-size="12" font-weight="400" font-style="normal" 
>
<polyline fill="none" vector-effect="none" points="564,98 570,98 " />
<polyline fill="none" vector-effect="none" points="567,95 567,101 " />
</g>

<g fill="none" stroke="#000000" stroke-opacity="1" stroke-width="1" stroke-linecap="square" stroke-linejoin="bevel" transform="matrix(1,0,0,1,0,0)"
font-family="Helvetica" font-size="12" font-weight="400" font-style="normal" 
>
<polyline fill="none" vector-effect="none" points="564,120 570,120 " />
</g>

<g fill="none" stroke="#000000" stroke-opacity="1" stroke-width="1" stroke-linecap="square" stroke-linejoin="bevel" transform="matrix(1,0,0,1,0,0)"
font-family="Helvetica" font-size="12" font-weight="400" font-style="normal" 
>
</g>

<g fill="none" stroke="#000000" stroke-opacity="1" stroke-width="1" stroke-linecap="square" stroke-linejoin="bevel" transform="matrix(1,0,0,1,0,0)"
font-family="Helvetica" font-size="12" font-weight="400" font-style="normal" 
>
<text fill="#000000" fill-opacity="1" stroke="none" xml:space="preserve" x="577" y="95" font-family="Helvetica" font-size="12" font-weight="400" font-style="normal" 
 >V1</text>
<text fill="#000000" fill-opacity="1" stroke="none" xml:space="preserve" x="577" y="110" font-family="Helvetica" font-size="12" font-weight="400" font-style="normal" 
 >U=12 V</text>
</g>

<g fill="none" stroke="#000080" stroke-opacity="1" stroke-width="2" stroke-linecap="square" stroke-linejoin="bevel" transform="matrix(1,0,0,1,0,0)"
font-family="Helvetica" font-size="12" font-weight="400" font-style="normal" 
>
<polyline fill="none" vector-effect="none" points="559,139 559,149 " />
</g>

<g fill="none" stroke="#000080" stroke-opacity="1" stroke-width="3" stroke-linecap="square" stroke-linejoin="bevel" transform="matrix(1,0,0,1,0,0)"
font-family="Helvetica" font-size="12" font-weight="400" font-style="normal" 
>
<polyline fill="none" vector-effect="none" points="548,149 570,149 " />
<polyline fill="none" vector-effect="none" points="552,155 566,155 " />
<polyline fill="none" vector-effect="none" points="556,161 562,161 " />
</g>

<g fill="none" stroke="#000080" stroke-opacity="1" stroke-width="3" stroke-linecap="square" stroke-linejoin="bevel" transform="matrix(1,0,0,1,0,0)"
font-family="Helvetica" font-size="12" font-weight="400" font-style="normal" 
>
</g>

<g fill="none" stroke="#000080" stroke-opacity="1" stroke-width="2" stroke-linecap="square" stroke-linejoin="bevel" transform="matrix(1,0,0,1,0,0)"
font-family="Helvetica" font-size="12" font-weight="400" font-style="normal" 
>
<polyline fill="none" vector-effect="none" points="470,247 470,211 " />
<polyline fill="none" vector-effect="none" points="470,211 488,211 " />
<polyline fill="none" vector-effect="none" points="488,211 488,247 " />
<polyline fill="none" vector-effect="none" points="488,247 470,247 " />
<polyline fill="none" vector-effect="none" points="479,259 479,247 " />
<polyline fill="none" vector-effect="none" points="479,211 479,199 " />
</g>

<g fill="none" stroke="#000080" stroke-opacity="1" stroke-width="2" stroke-linecap="square" stroke-linejoin="bevel" transform="matrix(1,0,0,1,0,0)"
font-family="Helvetica" font-size="12" font-weight="400" font-style="normal" 
>
</g>

<g fill="none" stroke="#000000" stroke-opacity="1" stroke-width="1" stroke-linecap="square" stroke-linejoin="bevel" transform="matrix(1,0,0,1,0,0)"
font-family="Helvetica" font-size="12" font-weight="400" font-style="normal" 
>
<text fill="#000000" fill-opacity="1" stroke="none" xml:space="preserve" x="494" y="215" font-family="Helvetica" font-size="12" font-weight="400" font-style="normal" 
 >R4</text>
<text fill="#000000" fill-opacity="1" stroke="none" xml:space="preserve" x="494" y="230" font-family="Helvetica" font-size="12" font-weight="400" font-style="normal" 
 >R=47k</text>
</g>

<g fill="none" stroke="#000080" stroke-opacity="1" stroke-width="2" stroke-linecap="square" stroke-linejoin="bevel" transform="matrix(1,0,0,1,0,0)"
font-family="Helvetica" font-size="12" font-weight="400" font-style="normal" 
>
<polyline fill="none" vector-effect="none" points="479,259 479,269 " />
</g>

<g fill="none" stroke="#000080" stroke-opacity="1" stroke-width="3" stroke-linecap="square" stroke-linejoin="bevel" transform="matrix(1,0,0,1,0,0)"
font-family="Helvetica" font-size="12" font-weight="400" font-style="normal" 
>
<polyline fill="none" vector-effect="none" points="468,269 490,269 " />
<polyline fill="none" vector-effect="none" points="472,275 486,275 " />
<polyline fill="none" vector-effect="none" points="476,281 482,281 " />
</g>

<g fill="none" stroke="#000080" stroke-opacity="1" stroke-width="3" stroke-linecap="square" stroke-linejoin="bevel" transform="matrix(1,0,0,1,0,0)"
font-family="Helvetica" font-size="12" font-weight="400" font-style="normal" 
>
</g>

<g fill="none" stroke="#000080" stroke-opacity="1" stroke-width="2" stroke-linecap="square" stroke-linejoin="bevel" transform="matrix(1,0,0,1,0,0)"
font-family="Helvetica" font-size="12" font-weight="400" font-style="normal" 
>
<polyline fill="none" vector-effect="none" points="279,289 279,299 " />
</g>

<g fill="none" stroke="#000080" stroke-opacity="1" stroke-width="3" stroke-linecap="square" stroke-linejoin="bevel" transform="matrix(1,0,0,1,0,0)"
font-family="Helvetica" font-size="12" font-weight="400" font-style="normal" 
>
<polyline fill="none" vector-effect="none" points="268,299 290,299 " />
<polyline fill="none" vector-effect="none" points="272,305 286,305 " />
<polyline fill="none" vector-effect="none" points="276,311 282,311 " />
</g>

<g fill="none" stroke="#000080" stroke-opacity="1" stroke-width="3" stroke-linecap="square" stroke-linejoin="bevel" transform="matrix(1,0,0,1,0,0)"
font-family="Helvetica" font-size="12" font-weight="400" font-style="normal" 
>
</g>

<g fill="none" stroke="#000080" stroke-opacity="1" stroke-width="4" stroke-linecap="square" stroke-linejoin="bevel" transform="matrix(1,0,0,1,0,0)"
font-family="Helvetica" font-size="12" font-weight="400" font-style="normal" 
>
<polyline fill="none" vector-effect="none" points="95,168 95,190 " />
<polyline fill="none" vector-effect="none" points="103,168 103,190 " />
</g>

<g fill="none" stroke="#000080" stroke-opacity="1" stroke-width="2" stroke-linecap="square" stroke-linejoin="bevel" transform="matrix(1,0,0,1,0,0)"
font-family="Helvetica" font-size="12" font-weight="400" font-style="normal" 
>
<polyline fill="none" vector-effect="none" points="69,179 95,179 " />
<polyline fill="none" vector-effect="none" points="103,179 129,179 " />
</g>

<g fill="none" stroke="#000080" stroke-opacity="1" stroke-width="2" stroke-linecap="square" stroke-linejoin="bevel" transform="matrix(1,0,0,1,0,0)"
font-family="Helvetica" font-size="12" font-weight="400" font-style="normal" 
>
</g>

<g fill="none" stroke="#000000" stroke-opacity="1" stroke-width="1" stroke-linecap="square" stroke-linejoin="bevel" transform="matrix(1,0,0,1,0,0)"
font-family="Helvetica" font-size="12" font-weight="400" font-style="normal" 
>
<text fill="#000000" fill-opacity="1" stroke="none" xml:space="preserve" x="73" y="208" font-family="Helvetica" font-size="12" font-weight="400" font-style="normal" 
 >C1</text>
<text fill="#000000" fill-opacity="1" stroke="none" xml:space="preserve" x="73" y="223" font-family="Helvetica" font-size="12" font-weight="400" font-style="normal" 
 >C=0.1 uF</text>
</g>

<g fill="none" stroke="#000080" stroke-opacity="1" stroke-width="2" stroke-linecap="square" stroke-linejoin="bevel" transform="matrix(1,0,0,1,0,0)"
font-family="Helvetica" font-size="12" font-weight="400" font-style="normal" 
>
<polyline fill="none" vector-effect="none" points="159,49 159,89 " />
<polyline fill="none" vector-effect="none" points="159,49 279,49 " />
<polyline fill="none" vector-effect="none" points="159,149 159,179 " />
<polyline fill="none" vector-effect="none" points="159,179 249,179 " />
<polyline fill="none" vector-effect="none" points="279,49 279,69 " />
<polyline fill="none" vector-effect="none" points="279,209 279,229 " />
<polyline fill="none" vector-effect="none" points="159,239 159,279 " />
<polyline fill="none" vector-effect="none" points="279,129 279,139 " />
<polyline fill="none" vector-effect="none" points="279,139 279,149 " />
<polyline fill="none" vector-effect="none" points="279,139 399,139 " />
<polyline fill="none" vector-effect="none" points="279,49 339,49 " />
<polyline fill="none" vector-effect="none" points="399,49 559,49 " />
<polyline fill="none" vector-effect="none" points="559,49 559,79 " />
<polyline fill="none" vector-effect="none" points="459,139 479,139 " />
</g>

<g fill="none" stroke="#000000" stroke-opacity="1" stroke-width="1" stroke-linecap="square" stroke-linejoin="bevel" transform="matrix(1,0,0,1,0,0)"
font-family="Helvetica" font-size="12" font-weight="400" font-style="normal" 
>
<text fill="#000000" fill-opacity="1" stroke="none" xml:space="preserve" x="489" y="111" font-family="Helvetica" font-size="12" font-weight="400" font-style="normal" 
 >out</text>
</g>

<g fill="none" stroke="#800080" stroke-opacity="1" stroke-width="1" stroke-linecap="square" stroke-linejoin="bevel" transform="matrix(1,0,0,1,0,0)"
font-family="Helvetica" font-size="12" font-weight="400" font-style="normal" 
>
<path vector-effect="non-scaling-stroke" fill-rule="evenodd" d="M458.429,142.064 C459.124,142.648 460.021,143 461,143 C463.209,143 465,141.209 465,139 C465,136.791 463.209,135 461,135 C460.146,135 459.355,135.267 458.705,135.723 "/>
<polyline fill="none" vector-effect="non-scaling-stroke" points="486,116 495,116 " />
<polyline fill="none" vector-effect="non-scaling-stroke" points="486,116 486,100 " />
<polyline fill="none" vector-effect="non-scaling-stroke" points="461,135 486,116 " />
</g>

<g fill="none" stroke="#000080" stroke-opacity="1" stroke-width="2" stroke-linecap="square" stroke-linejoin="bevel" transform="matrix(1,0,0,1,0,0)"
font-family="Helvetica" font-size="12" font-weight="400" font-style="normal" 
>
<polyline fill="none" vector-effect="none" points="479,139 479,199 " />
<polyline fill="none" vector-effect="none" points="129,179 159,179 " />
<polyline fill="none" vector-effect="none" points="29,179 29,219 " />
<polyline fill="none" vector-effect="none" points="29,179 69,179 " />
</g>

<g fill="none" stroke="#000080" stroke-opacity="1" stroke-width="3" stroke-linecap="square" stroke-linejoin="bevel" transform="matrix(1,0,0,1,0,0)"
font-family="Helvetica" font-size="12" font-weight="630" font-style="normal" 
>
<text fill="#000080" fill-opacity="1" stroke="none" xml:space="preserve" x="29" y="141" font-family="Helvetica" font-size="12" font-weight="630" font-style="normal" 
 >in</text>
</g>

<g fill="none" stroke="#800080" stroke-opacity="1" stroke-width="1" stroke-linecap="square" stroke-linejoin="bevel" transform="matrix(1,0,0,1,0,0)"
font-family="Helvetica" font-size="12" font-weight="630" font-style="normal" 
>
<path vector-effect="non-scaling-stroke" fill-rule="evenodd" d="M37.5712,175.936 C36.8759,175.352 35.979,175 35,175 C32.7909,175 31,176.791 31,179 C31,181.209 32.7909,183 35,183 C35.8538,183 36.645,182.733 37.2946,182.277 "/>
<polyline fill="none" vector-effect="non-scaling-stroke" points="43,146 38,146 " />
<polyline fill="none" vector-effect="non-scaling-stroke" points="43,146 43,130 " />
<polyline fill="none" vector-effect="non-scaling-stroke" points="35,175 43,146 " />
</g>

<g fill="#000080" fill-opacity="1" stroke="none" transform="matrix(1,0,0,1,0,0)"
font-family="Helvetica" font-size="12" font-weight="630" font-style="normal" 
>
<path vector-effect="non-scaling-stroke" fill-rule="evenodd" d="M247,177 L251,177 L251,181 L247,181 L247,177"/>
</g>

<g fill="#000080" fill-opacity="1" stroke="none" transform="matrix(1,0,0,1,0,0)"
font-family="Helvetica" font-size="12" font-weight="630" font-style="normal" 
>
<path vector-effect="non-scaling-stroke" fill-rule="evenodd" d="M277,147 L281,147 L281,151 L277,151 L277,147"/>
</g>

<g fill="#000080" fill-opacity="1" stroke="none" transform="matrix(1,0,0,1,0,0)"
font-family="Helvetica" font-size="12" font-weight="630" font-style="normal" 
>
<path vector-effect="non-scaling-stroke" fill-rule="evenodd" d="M277,207 L281,207 L281,211 L277,211 L277,207"/>
</g>

<g fill="#000080" fill-opacity="1" stroke="none" transform="matrix(1,0,0,1,0,0)"
font-family="Helvetica" font-size="12" font-weight="630" font-style="normal" 
>
<path vector-effect="non-scaling-stroke" fill-rule="evenodd" d="M157,277 L161,277 L161,281 L157,281 L157,277"/>
</g>

<g fill="#000080" fill-opacity="1" stroke="none" transform="matrix(1,0,0,1,0,0)"
font-family="Helvetica" font-size="12" font-weight="630" font-style="normal" 
>
<path vector-effect="non-scaling-stroke" fill-rule="evenodd" d="M157,237 L161,237 L161,241 L157,241 L157,237"/>
</g>

<g fill="#000080" fill-opacity="1" stroke="#000080" stroke-opacity="1" stroke-width="1" stroke-linecap="square" stroke-linejoin="bevel" transform="matrix(1,0,0,1,0,0)"
font-family="Helvetica" font-size="12" font-weight="630" font-style="normal" 
>
<path vector-effect="none" fill-rule="evenodd" d="M162,179 C162,180.657 160.657,182 159,182 C157.343,182 156,180.657 156,179 C156,177.343 157.343,176 159,176 C160.657,176 162,177.343 162,179 "/>
</g>

<g fill="#000080" fill-opacity="1" stroke="none" transform="matrix(1,0,0,1,0,0)"
font-family="Helvetica" font-size="12" font-weight="630" font-style="normal" 
>
<path vector-effect="non-scaling-stroke" fill-rule="evenodd" d="M277,287 L281,287 L281,291 L277,291 L277,287"/>
</g>

<g fill="#000080" fill-opacity="1" stroke="none" transform="matrix(1,0,0,1,0,0)"
font-family="Helvetica" font-size="12" font-weight="630" font-style="normal" 
>
<path vector-effect="non-scaling-stroke" fill-rule="evenodd" d="M277,227 L281,227 L281,231 L277,231 L277,227"/>
</g>

<g fill="#000080" fill-opacity="1" stroke="none" transform="matrix(1,0,0,1,0,0)"
font-family="Helvetica" font-size="12" font-weight="630" font-style="normal" 
>
<path vector-effect="non-scaling-stroke" fill-rule="evenodd" d="M27,277 L31,277 L31,281 L27,281 L27,277"/>
</g>

<g fill="#000080" fill-opacity="1" stroke="none" transform="matrix(1,0,0,1,0,0)"
font-family="Helvetica" font-size="12" font-weight="630" font-style="normal" 
>
<path vector-effect="non-scaling-stroke" fill-rule="evenodd" d="M157,147 L161,147 L161,151 L157,151 L157,147"/>
</g>

<g fill="#000080" fill-opacity="1" stroke="none" transform="matrix(1,0,0,1,0,0)"
font-family="Helvetica" font-size="12" font-weight="630" font-style="normal" 
>
<path vector-effect="non-scaling-stroke" fill-rule="evenodd" d="M157,87 L161,87 L161,91 L157,91 L157,87"/>
</g>

<g fill="#000080" fill-opacity="1" stroke="none" transform="matrix(1,0,0,1,0,0)"
font-family="Helvetica" font-size="12" font-weight="630" font-style="normal" 
>
<path vector-effect="non-scaling-stroke" fill-rule="evenodd" d="M397,137 L401,137 L401,141 L397,141 L397,137"/>
</g>

<g fill="#000080" fill-opacity="1" stroke="none" transform="matrix(1,0,0,1,0,0)"
font-family="Helvetica" font-size="12" font-weight="630" font-style="normal" 
>
<path vector-effect="non-scaling-stroke" fill-rule="evenodd" d="M457,137 L461,137 L461,141 L457,141 L457,137"/>
</g>

<g fill="#000080" fill-opacity="1" stroke="none" transform="matrix(1,0,0,1,0,0)"
font-family="Helvetica" font-size="12" font-weight="630" font-style="normal" 
>
<path vector-effect="non-scaling-stroke" fill-rule="evenodd" d="M277,127 L281,127 L281,131 L277,131 L277,127"/>
</g>

<g fill="#000080" fill-opacity="1" stroke="none" transform="matrix(1,0,0,1,0,0)"
font-family="Helvetica" font-size="12" font-weight="630" font-style="normal" 
>
<path vector-effect="non-scaling-stroke" fill-rule="evenodd" d="M277,67 L281,67 L281,71 L277,71 L277,67"/>
</g>

<g fill="#000080" fill-opacity="1" stroke="none" transform="matrix(1,0,0,1,0,0)"
font-family="Helvetica" font-size="12" font-weight="630" font-style="normal" 
>
<path vector-effect="non-scaling-stroke" fill-rule="evenodd" d="M27,217 L31,217 L31,221 L27,221 L27,217"/>
</g>

<g fill="#000080" fill-opacity="1" stroke="none" transform="matrix(1,0,0,1,0,0)"
font-family="Helvetica" font-size="12" font-weight="630" font-style="normal" 
>
<path vector-effect="non-scaling-stroke" fill-rule="evenodd" d="M397,47 L401,47 L401,51 L397,51 L397,47"/>
</g>

<g fill="#000080" fill-opacity="1" stroke="none" transform="matrix(1,0,0,1,0,0)"
font-family="Helvetica" font-size="12" font-weight="630" font-style="normal" 
>
<path vector-effect="non-scaling-stroke" fill-rule="evenodd" d="M337,47 L341,47 L341,51 L337,51 L337,47"/>
</g>

<g fill="#000080" fill-opacity="1" stroke="none" transform="matrix(1,0,0,1,0,0)"
font-family="Helvetica" font-size="12" font-weight="630" font-style="normal" 
>
<path vector-effect="non-scaling-stroke" fill-rule="evenodd" d="M557,77 L561,77 L561,81 L557,81 L557,77"/>
</g>

<g fill="#000080" fill-opacity="1" stroke="none" transform="matrix(1,0,0,1,0,0)"
font-family="Helvetica" font-size="12" font-weight="630" font-style="normal" 
>
<path vector-effect="non-scaling-stroke" fill-rule="evenodd" d="M557,137 L561,137 L561,141 L557,141 L557,137"/>
</g>

<g fill="#000080" fill-opacity="1" stroke="none" transform="matrix(1,0,0,1,0,0)"
font-family="Helvetica" font-size="12" font-weight="630" font-style="normal" 
>
<path vector-effect="non-scaling-stroke" fill-rule="evenodd" d="M477,257 L481,257 L481,261 L477,261 L477,257"/>
</g>

<g fill="#000080" fill-opacity="1" stroke="none" transform="matrix(1,0,0,1,0,0)"
font-family="Helvetica" font-size="12" font-weight="630" font-style="normal" 
>
<path vector-effect="non-scaling-stroke" fill-rule="evenodd" d="M477,197 L481,197 L481,201 L477,201 L477,197"/>
</g>

<g fill="#000080" fill-opacity="1" stroke="none" transform="matrix(1,0,0,1,0,0)"
font-family="Helvetica" font-size="12" font-weight="630" font-style="normal" 
>
<path vector-effect="non-scaling-stroke" fill-rule="evenodd" d="M67,177 L71,177 L71,181 L67,181 L67,177"/>
</g>

<g fill="#000080" fill-opacity="1" stroke="none" transform="matrix(1,0,0,1,0,0)"
font-family="Helvetica" font-size="12" font-weight="630" font-style="normal" 
>
<path vector-effect="non-scaling-stroke" fill-rule="evenodd" d="M127,177 L131,177 L131,181 L127,181 L127,177"/>
</g>

<g fill="#000080" fill-opacity="1" stroke="#000080" stroke-opacity="1" stroke-width="1" stroke-linecap="square" stroke-linejoin="bevel" transform="matrix(1,0,0,1,0,0)"
font-family="Helvetica" font-size="12" font-weight="630" font-style="normal" 
>
<path vector-effect="none" fill-rule="evenodd" d="M282,49 C282,50.6569 280.657,52 279,52 C277.343,52 276,50.6569 276,49 C276,47.3431 277.343,46 279,46 C280.657,46 282,47.3431 282,49 "/>
</g>

<g fill="#000080" fill-opacity="1" stroke="#000080" stroke-opacity="1" stroke-width="1" stroke-linecap="square" stroke-linejoin="bevel" transform="matrix(1,0,0,1,0,0)"
font-family="Helvetica" font-size="12" font-weight="630" font-style="normal" 
>
<path vector-effect="none" fill-rule="evenodd" d="M282,139 C282,140.657 280.657,142 279,142 C277.343,142 276,140.657 276,139 C276,137.343 277.343,136 279,136 C280.657,136 282,137.343 282,139 "/>
</g>

<g fill="none" stroke="#000000" stroke-opacity="1" stroke-width="1" stroke-linecap="square" stroke-linejoin="bevel" transform="matrix(1,0,0,1,0,0)"
font-family="Helvetica" font-size="12" font-weight="630" font-style="normal" 
>
<polyline fill="none" vector-effect="non-scaling-stroke" points="209,345 770,345 " />
<polyline fill="none" vector-effect="non-scaling-stroke" points="209,345 209,535 " />
<polyline fill="none" vector-effect="non-scaling-stroke" points="770,345 770,535 " />
<polyline fill="none" vector-effect="non-scaling-stroke" points="209,535 770,535 " />
</g>

<g fill="none" stroke="#000000" stroke-opacity="1" stroke-width="2" stroke-linecap="square" stroke-linejoin="bevel" transform="matrix(1,0,0,1,0,0)"
font-family="Helvetica" font-size="12" font-weight="630" font-style="normal" 
>
<polyline fill="none" vector-effect="none" points="209,369 770,369 " />
</g>

<g fill="none" stroke="#000000" stroke-opacity="1" stroke-width="1" stroke-linecap="square" stroke-linejoin="bevel" transform="matrix(1,0,0,1,0,0)"
font-family="Helvetica" font-size="12" font-weight="630" font-style="normal" 
>
<polyline fill="none" vector-effect="non-scaling-stroke" points="209,389 770,389 " />
</g>

<g fill="none" stroke="#000000" stroke-opacity="1" stroke-width="2" stroke-linecap="square" stroke-linejoin="bevel" transform="matrix(1,0,0,1,0,0)"
font-family="Helvetica" font-size="12" font-weight="630" font-style="normal" 
>
<polyline fill="none" vector-effect="none" points="279,345 279,535 " />
</g>

<g fill="none" stroke="#000000" stroke-opacity="1" stroke-width="1" stroke-linecap="square" stroke-linejoin="bevel" transform="matrix(1,0,0,1,0,0)"
font-family="Helvetica" font-size="12" font-weight="630" font-style="normal" 
>
<polyline fill="none" vector-effect="non-scaling-stroke" points="517,345 517,535 " />
<text fill="#000000" fill-opacity="1" stroke="none" xml:space="preserve" x="213" y="359" font-family="Helvetica" font-size="12" font-weight="630" font-style="normal" 
 >number</text>
<text fill="#000000" fill-opacity="1" stroke="none" xml:space="preserve" x="217" y="382" font-family="Helvetica" font-size="12" font-weight="630" font-style="normal" 
 >1</text>
<text fill="#000000" fill-opacity="1" stroke="none" xml:space="preserve" x="287" y="359" font-family="Helvetica" font-size="12" font-weight="630" font-style="normal" 
 >BJT-noise_ngspice:inoise_total</text>
<text fill="#000000" fill-opacity="1" stroke="none" xml:space="preserve" x="287" y="382" font-family="Helvetica" font-size="12" font-weight="630" font-style="normal" 
 >9.49e-11</text>
<text fill="#000000" fill-opacity="1" stroke="none" xml:space="preserve" x="525" y="359" font-family="Helvetica" font-size="12" font-weight="630" font-style="normal" 
 >BJT-noise_ngspice:onoise_total</text>
<text fill="#000000" fill-opacity="1" stroke="none" xml:space="preserve" x="525" y="382" font-family="Helvetica" font-size="12" font-weight="630" font-style="normal" 
 >3.91e-09</text>
</g>
</g>
</svg>
