<?xml version="1.0" encoding="UTF-8" standalone="no"?>
<svg width="191.206mm" height="133.35mm"
 xmlns="http://www.w3.org/2000/svg" xmlns:xlink="http://www.w3.org/1999/xlink"  version="1.2" baseProfile="tiny">
<title>Qt Svg Document</title>
<desc>Generated with Qt</desc>
<defs>
</defs>
<g fill="none" stroke="black" stroke-width="1" fill-rule="evenodd" stroke-linecap="square" stroke-linejoin="bevel" >

<g fill="#ffffff" fill-opacity="1" stroke="none" transform="matrix(1,0,0,1,0,0)"
font-family="Helvetica" font-size="12" font-weight="400" font-style="normal" 
>
<path vector-effect="non-scaling-stroke" fill-rule="evenodd" d="M0,0 L542,0 L542,378 L0,378 L0,0"/>
</g>

<g fill="none" stroke="#000080" stroke-opacity="1" stroke-width="2" stroke-linecap="square" stroke-linejoin="bevel" transform="matrix(1,0,0,1,0,0)"
font-family="Helvetica" font-size="12" font-weight="400" font-style="normal" 
>
<polyline fill="none" vector-effect="none" points="205,248 241,248 " />
<polyline fill="none" vector-effect="none" points="241,248 241,266 " />
<polyline fill="none" vector-effect="none" points="241,266 205,266 " />
<polyline fill="none" vector-effect="none" points="205,266 205,248 " />
<polyline fill="none" vector-effect="none" points="193,257 205,257 " />
<polyline fill="none" vector-effect="none" points="241,257 253,257 " />
</g>

<g fill="none" stroke="#000080" stroke-opacity="1" stroke-width="2" stroke-linecap="square" stroke-linejoin="bevel" transform="matrix(1,0,0,1,0,0)"
font-family="Helvetica" font-size="12" font-weight="400" font-style="normal" 
>
</g>

<g fill="none" stroke="#000000" stroke-opacity="1" stroke-width="1" stroke-linecap="square" stroke-linejoin="bevel" transform="matrix(1,0,0,1,0,0)"
font-family="Helvetica" font-size="12" font-weight="400" font-style="normal" 
>
<text fill="#000000" fill-opacity="1" stroke="none" xml:space="preserve" x="197" y="284" font-family="Helvetica" font-size="12" font-weight="400" font-style="normal" 
 >R1</text>
<text fill="#000000" fill-opacity="1" stroke="none" xml:space="preserve" x="197" y="299" font-family="Helvetica" font-size="12" font-weight="400" font-style="normal" 
 >R=50 MOhm</text>
</g>

<g fill="none" stroke="#000080" stroke-opacity="1" stroke-width="2" stroke-linecap="square" stroke-linejoin="bevel" transform="matrix(1,0,0,1,0,0)"
font-family="Helvetica" font-size="12" font-weight="400" font-style="normal" 
>
<polyline fill="none" vector-effect="none" points="60,117 73,117 " />
<path vector-effect="none" fill-rule="evenodd" d="M60,117 C60,113.686 57.3137,111 54,111 C50.6863,111 48,113.686 48,117 C48,120.314 50.6863,123 54,123 C57.3137,123 60,120.314 60,117 "/>
</g>

<g fill="none" stroke="#000080" stroke-opacity="1" stroke-width="2" stroke-linecap="square" stroke-linejoin="bevel" transform="matrix(1,0,0,1,0,0)"
font-family="Helvetica" font-size="12" font-weight="400" font-style="normal" 
>
</g>

<g fill="none" stroke="#000000" stroke-opacity="1" stroke-width="1" stroke-linecap="square" stroke-linejoin="bevel" transform="matrix(1,0,0,1,0,0)"
font-family="Helvetica" font-size="12" font-weight="400" font-style="normal" 
>
<text fill="#000000" fill-opacity="1" stroke="none" xml:space="preserve" x="50" y="141" font-family="Helvetica" font-size="12" font-weight="400" font-style="normal" 
 >P1</text>
<text fill="#000000" fill-opacity="1" stroke="none" xml:space="preserve" x="50" y="156" font-family="Helvetica" font-size="12" font-weight="400" font-style="normal" 
 >Num=1</text>
</g>

<g fill="none" stroke="#000080" stroke-opacity="1" stroke-width="2" stroke-linecap="square" stroke-linejoin="bevel" transform="matrix(1,0,0,1,0,0)"
font-family="Helvetica" font-size="12" font-weight="400" font-style="normal" 
>
<polyline fill="none" vector-effect="none" points="426,117 413,117 " />
<path vector-effect="none" fill-rule="evenodd" d="M426,117 C426,120.314 428.686,123 432,123 C435.314,123 438,120.314 438,117 C438,113.686 435.314,111 432,111 C428.686,111 426,113.686 426,117 "/>
</g>

<g fill="none" stroke="#000080" stroke-opacity="1" stroke-width="2" stroke-linecap="square" stroke-linejoin="bevel" transform="matrix(1,0,0,1,0,0)"
font-family="Helvetica" font-size="12" font-weight="400" font-style="normal" 
>
</g>

<g fill="none" stroke="#000000" stroke-opacity="1" stroke-width="1" stroke-linecap="square" stroke-linejoin="bevel" transform="matrix(1,0,0,1,0,0)"
font-family="Helvetica" font-size="12" font-weight="400" font-style="normal" 
>
<text fill="#000000" fill-opacity="1" stroke="none" xml:space="preserve" x="417" y="141" font-family="Helvetica" font-size="12" font-weight="400" font-style="normal" 
 >P2</text>
<text fill="#000000" fill-opacity="1" stroke="none" xml:space="preserve" x="417" y="156" font-family="Helvetica" font-size="12" font-weight="400" font-style="normal" 
 >Num=2</text>
</g>

<g fill="none" stroke="#000080" stroke-opacity="1" stroke-width="4" stroke-linecap="square" stroke-linejoin="bevel" transform="matrix(1,0,0,1,0,0)"
font-family="Helvetica" font-size="12" font-weight="400" font-style="normal" 
>
<polyline fill="none" vector-effect="none" points="209,156 209,178 " />
<polyline fill="none" vector-effect="none" points="217,156 217,178 " />
</g>

<g fill="none" stroke="#000080" stroke-opacity="1" stroke-width="2" stroke-linecap="square" stroke-linejoin="bevel" transform="matrix(1,0,0,1,0,0)"
font-family="Helvetica" font-size="12" font-weight="400" font-style="normal" 
>
<polyline fill="none" vector-effect="none" points="183,167 209,167 " />
<polyline fill="none" vector-effect="none" points="217,167 243,167 " />
</g>

<g fill="none" stroke="#000080" stroke-opacity="1" stroke-width="2" stroke-linecap="square" stroke-linejoin="bevel" transform="matrix(1,0,0,1,0,0)"
font-family="Helvetica" font-size="12" font-weight="400" font-style="normal" 
>
</g>

<g fill="none" stroke="#000000" stroke-opacity="1" stroke-width="1" stroke-linecap="square" stroke-linejoin="bevel" transform="matrix(1,0,0,1,0,0)"
font-family="Helvetica" font-size="12" font-weight="400" font-style="normal" 
>
<text fill="#000000" fill-opacity="1" stroke="none" xml:space="preserve" x="187" y="196" font-family="Helvetica" font-size="12" font-weight="400" font-style="normal" 
 >C2</text>
<text fill="#000000" fill-opacity="1" stroke="none" xml:space="preserve" x="187" y="211" font-family="Helvetica" font-size="12" font-weight="400" font-style="normal" 
 >C=Cs</text>
</g>

<g fill="none" stroke="#000080" stroke-opacity="1" stroke-width="2" stroke-linecap="square" stroke-linejoin="bevel" transform="matrix(1,0,0,1,0,0)"
font-family="Helvetica" font-size="12" font-weight="400" font-style="normal" 
>
<polyline fill="none" vector-effect="none" points="265,58 301,58 " />
<polyline fill="none" vector-effect="none" points="301,58 301,76 " />
<polyline fill="none" vector-effect="none" points="301,76 265,76 " />
<polyline fill="none" vector-effect="none" points="265,76 265,58 " />
<polyline fill="none" vector-effect="none" points="253,67 265,67 " />
<polyline fill="none" vector-effect="none" points="301,67 313,67 " />
</g>

<g fill="none" stroke="#000080" stroke-opacity="1" stroke-width="2" stroke-linecap="square" stroke-linejoin="bevel" transform="matrix(1,0,0,1,0,0)"
font-family="Helvetica" font-size="12" font-weight="400" font-style="normal" 
>
</g>

<g fill="none" stroke="#000000" stroke-opacity="1" stroke-width="1" stroke-linecap="square" stroke-linejoin="bevel" transform="matrix(1,0,0,1,0,0)"
font-family="Helvetica" font-size="12" font-weight="400" font-style="normal" 
>
<text fill="#000000" fill-opacity="1" stroke="none" xml:space="preserve" x="257" y="94" font-family="Helvetica" font-size="12" font-weight="400" font-style="normal" 
 >R2</text>
<text fill="#000000" fill-opacity="1" stroke="none" xml:space="preserve" x="257" y="109" font-family="Helvetica" font-size="12" font-weight="400" font-style="normal" 
 >R=2 Ohm</text>
</g>

<g fill="none" stroke="#000080" stroke-opacity="1" stroke-width="2" stroke-linecap="square" stroke-linejoin="bevel" transform="matrix(1,0,0,1,0,0)"
font-family="Helvetica" font-size="12" font-weight="400" font-style="normal" 
>
<polyline fill="none" vector-effect="none" points="193,67 205,67 " />
<polyline fill="none" vector-effect="none" points="241,67 253,67 " />
</g>

<g fill="none" stroke="#000080" stroke-opacity="1" stroke-width="4" stroke-linecap="square" stroke-linejoin="bevel" transform="matrix(1,0,0,1,0,0)"
font-family="Helvetica" font-size="12" font-weight="400" font-style="normal" 
>
<path vector-effect="none" fill-rule="evenodd" d="M205,67 C205,70.3137 207.686,73 211,73 C214.314,73 217,70.3137 217,67 "/>
<path vector-effect="none" fill-rule="evenodd" d="M217,67 C217,70.3137 219.686,73 223,73 C226.314,73 229,70.3137 229,67 "/>
<path vector-effect="none" fill-rule="evenodd" d="M229,67 C229,70.3137 231.686,73 235,73 C238.314,73 241,70.3137 241,67 "/>
</g>

<g fill="none" stroke="#000080" stroke-opacity="1" stroke-width="4" stroke-linecap="square" stroke-linejoin="bevel" transform="matrix(1,0,0,1,0,0)"
font-family="Helvetica" font-size="12" font-weight="400" font-style="normal" 
>
</g>

<g fill="none" stroke="#000000" stroke-opacity="1" stroke-width="1" stroke-linecap="square" stroke-linejoin="bevel" transform="matrix(1,0,0,1,0,0)"
font-family="Helvetica" font-size="12" font-weight="400" font-style="normal" 
>
<text fill="#000000" fill-opacity="1" stroke="none" xml:space="preserve" x="197" y="27" font-family="Helvetica" font-size="12" font-weight="400" font-style="normal" 
 >L1</text>
<text fill="#000000" fill-opacity="1" stroke="none" xml:space="preserve" x="197" y="42" font-family="Helvetica" font-size="12" font-weight="400" font-style="normal" 
 >L=Lq</text>
</g>

<g fill="none" stroke="#000080" stroke-opacity="1" stroke-width="2" stroke-linecap="square" stroke-linejoin="bevel" transform="matrix(1,0,0,1,0,0)"
font-family="Helvetica" font-size="12" font-weight="400" font-style="normal" 
>
<polyline fill="none" vector-effect="none" points="21,307 21,327 " />
<polyline fill="none" vector-effect="none" points="21,327 88,327 " />
</g>

<g fill="none" stroke="#000000" stroke-opacity="1" stroke-width="1" stroke-linecap="square" stroke-linejoin="bevel" transform="matrix(1,0,0,1,25,304)"
font-family="Helvetica" font-size="12" font-weight="100" font-style="normal" 
>
<text fill="#000000" fill-opacity="1" stroke="none" xml:space="preserve" x="0" y="12" font-family="Helvetica" font-size="12" font-weight="100" font-style="normal" 
 >Equation</text>
</g>

<g fill="none" stroke="#000080" stroke-opacity="1" stroke-width="2" stroke-linecap="square" stroke-linejoin="bevel" transform="matrix(1,0,0,1,0,0)"
font-family="Helvetica" font-size="12" font-weight="400" font-style="normal" 
>
</g>

<g fill="none" stroke="#000000" stroke-opacity="1" stroke-width="1" stroke-linecap="square" stroke-linejoin="bevel" transform="matrix(1,0,0,1,0,0)"
font-family="Helvetica" font-size="12" font-weight="400" font-style="normal" 
>
<text fill="#000000" fill-opacity="1" stroke="none" xml:space="preserve" x="15" y="346" font-family="Helvetica" font-size="12" font-weight="400" font-style="normal" 
 >Eqn1</text>
<text fill="#000000" fill-opacity="1" stroke="none" xml:space="preserve" x="15" y="361" font-family="Helvetica" font-size="12" font-weight="400" font-style="normal" 
 >Cq=1/(4*pi^2*f^2*Lq)</text>
</g>

<g fill="none" stroke="#000080" stroke-opacity="1" stroke-width="4" stroke-linecap="square" stroke-linejoin="bevel" transform="matrix(1,0,0,1,0,0)"
font-family="Helvetica" font-size="12" font-weight="400" font-style="normal" 
>
<polyline fill="none" vector-effect="none" points="159,56 159,78 " />
<polyline fill="none" vector-effect="none" points="167,56 167,78 " />
</g>

<g fill="none" stroke="#000080" stroke-opacity="1" stroke-width="2" stroke-linecap="square" stroke-linejoin="bevel" transform="matrix(1,0,0,1,0,0)"
font-family="Helvetica" font-size="12" font-weight="400" font-style="normal" 
>
<polyline fill="none" vector-effect="none" points="133,67 159,67 " />
<polyline fill="none" vector-effect="none" points="167,67 193,67 " />
</g>

<g fill="none" stroke="#000080" stroke-opacity="1" stroke-width="2" stroke-linecap="square" stroke-linejoin="bevel" transform="matrix(1,0,0,1,0,0)"
font-family="Helvetica" font-size="12" font-weight="400" font-style="normal" 
>
</g>

<g fill="none" stroke="#000000" stroke-opacity="1" stroke-width="1" stroke-linecap="square" stroke-linejoin="bevel" transform="matrix(1,0,0,1,0,0)"
font-family="Helvetica" font-size="12" font-weight="400" font-style="normal" 
>
<text fill="#000000" fill-opacity="1" stroke="none" xml:space="preserve" x="137" y="96" font-family="Helvetica" font-size="12" font-weight="400" font-style="normal" 
 >C1</text>
<text fill="#000000" fill-opacity="1" stroke="none" xml:space="preserve" x="137" y="111" font-family="Helvetica" font-size="12" font-weight="400" font-style="normal" 
 >C=Cq</text>
</g>

<g fill="none" stroke="#000080" stroke-opacity="1" stroke-width="2" stroke-linecap="square" stroke-linejoin="bevel" transform="matrix(1,0,0,1,0,0)"
font-family="Helvetica" font-size="12" font-weight="400" font-style="normal" 
>
<polyline fill="none" vector-effect="none" points="113,167 183,167 " />
<polyline fill="none" vector-effect="none" points="113,67 133,67 " />
<polyline fill="none" vector-effect="none" points="313,67 353,67 " />
<polyline fill="none" vector-effect="none" points="243,167 353,167 " />
<polyline fill="none" vector-effect="none" points="113,257 193,257 " />
<polyline fill="none" vector-effect="none" points="113,167 113,257 " />
<polyline fill="none" vector-effect="none" points="253,257 353,257 " />
<polyline fill="none" vector-effect="none" points="353,167 353,257 " />
<polyline fill="none" vector-effect="none" points="113,67 113,117 " />
<polyline fill="none" vector-effect="none" points="113,117 113,167 " />
<polyline fill="none" vector-effect="none" points="73,117 113,117 " />
<polyline fill="none" vector-effect="none" points="353,67 353,117 " />
<polyline fill="none" vector-effect="none" points="353,117 353,167 " />
<polyline fill="none" vector-effect="none" points="353,117 413,117 " />
</g>

<g fill="#000080" fill-opacity="1" stroke="none" transform="matrix(1,0,0,1,0,0)"
font-family="Helvetica" font-size="12" font-weight="400" font-style="normal" 
>
<path vector-effect="non-scaling-stroke" fill-rule="evenodd" d="M191,255 L195,255 L195,259 L191,259 L191,255"/>
</g>

<g fill="#000080" fill-opacity="1" stroke="none" transform="matrix(1,0,0,1,0,0)"
font-family="Helvetica" font-size="12" font-weight="400" font-style="normal" 
>
<path vector-effect="non-scaling-stroke" fill-rule="evenodd" d="M251,255 L255,255 L255,259 L251,259 L251,255"/>
</g>

<g fill="#000080" fill-opacity="1" stroke="none" transform="matrix(1,0,0,1,0,0)"
font-family="Helvetica" font-size="12" font-weight="400" font-style="normal" 
>
<path vector-effect="non-scaling-stroke" fill-rule="evenodd" d="M71,115 L75,115 L75,119 L71,119 L71,115"/>
</g>

<g fill="#000080" fill-opacity="1" stroke="none" transform="matrix(1,0,0,1,0,0)"
font-family="Helvetica" font-size="12" font-weight="400" font-style="normal" 
>
<path vector-effect="non-scaling-stroke" fill-rule="evenodd" d="M411,115 L415,115 L415,119 L411,119 L411,115"/>
</g>

<g fill="#000080" fill-opacity="1" stroke="none" transform="matrix(1,0,0,1,0,0)"
font-family="Helvetica" font-size="12" font-weight="400" font-style="normal" 
>
<path vector-effect="non-scaling-stroke" fill-rule="evenodd" d="M181,165 L185,165 L185,169 L181,169 L181,165"/>
</g>

<g fill="#000080" fill-opacity="1" stroke="none" transform="matrix(1,0,0,1,0,0)"
font-family="Helvetica" font-size="12" font-weight="400" font-style="normal" 
>
<path vector-effect="non-scaling-stroke" fill-rule="evenodd" d="M241,165 L245,165 L245,169 L241,169 L241,165"/>
</g>

<g fill="#000080" fill-opacity="1" stroke="none" transform="matrix(1,0,0,1,0,0)"
font-family="Helvetica" font-size="12" font-weight="400" font-style="normal" 
>
<path vector-effect="non-scaling-stroke" fill-rule="evenodd" d="M251,65 L255,65 L255,69 L251,69 L251,65"/>
</g>

<g fill="#000080" fill-opacity="1" stroke="none" transform="matrix(1,0,0,1,0,0)"
font-family="Helvetica" font-size="12" font-weight="400" font-style="normal" 
>
<path vector-effect="non-scaling-stroke" fill-rule="evenodd" d="M311,65 L315,65 L315,69 L311,69 L311,65"/>
</g>

<g fill="#000080" fill-opacity="1" stroke="none" transform="matrix(1,0,0,1,0,0)"
font-family="Helvetica" font-size="12" font-weight="400" font-style="normal" 
>
<path vector-effect="non-scaling-stroke" fill-rule="evenodd" d="M191,65 L195,65 L195,69 L191,69 L191,65"/>
</g>

<g fill="#000080" fill-opacity="1" stroke="none" transform="matrix(1,0,0,1,0,0)"
font-family="Helvetica" font-size="12" font-weight="400" font-style="normal" 
>
<path vector-effect="non-scaling-stroke" fill-rule="evenodd" d="M131,65 L135,65 L135,69 L131,69 L131,65"/>
</g>

<g fill="#000080" fill-opacity="1" stroke="#000080" stroke-opacity="1" stroke-width="1" stroke-linecap="square" stroke-linejoin="bevel" transform="matrix(1,0,0,1,0,0)"
font-family="Helvetica" font-size="12" font-weight="400" font-style="normal" 
>
<path vector-effect="none" fill-rule="evenodd" d="M116,167 C116,168.657 114.657,170 113,170 C111.343,170 110,168.657 110,167 C110,165.343 111.343,164 113,164 C114.657,164 116,165.343 116,167 "/>
</g>

<g fill="#000080" fill-opacity="1" stroke="#000080" stroke-opacity="1" stroke-width="1" stroke-linecap="square" stroke-linejoin="bevel" transform="matrix(1,0,0,1,0,0)"
font-family="Helvetica" font-size="12" font-weight="400" font-style="normal" 
>
<path vector-effect="none" fill-rule="evenodd" d="M356,167 C356,168.657 354.657,170 353,170 C351.343,170 350,168.657 350,167 C350,165.343 351.343,164 353,164 C354.657,164 356,165.343 356,167 "/>
</g>

<g fill="#000080" fill-opacity="1" stroke="#000080" stroke-opacity="1" stroke-width="1" stroke-linecap="square" stroke-linejoin="bevel" transform="matrix(1,0,0,1,0,0)"
font-family="Helvetica" font-size="12" font-weight="400" font-style="normal" 
>
<path vector-effect="none" fill-rule="evenodd" d="M116,117 C116,118.657 114.657,120 113,120 C111.343,120 110,118.657 110,117 C110,115.343 111.343,114 113,114 C114.657,114 116,115.343 116,117 "/>
</g>

<g fill="#000080" fill-opacity="1" stroke="#000080" stroke-opacity="1" stroke-width="1" stroke-linecap="square" stroke-linejoin="bevel" transform="matrix(1,0,0,1,0,0)"
font-family="Helvetica" font-size="12" font-weight="400" font-style="normal" 
>
<path vector-effect="none" fill-rule="evenodd" d="M356,117 C356,118.657 354.657,120 353,120 C351.343,120 350,118.657 350,117 C350,115.343 351.343,114 353,114 C354.657,114 356,115.343 356,117 "/>
</g>
</g>
</svg>
