<?xml version="1.0" encoding="UTF-8" standalone="no"?>
<svg width="312.914mm" height="123.825mm"
 xmlns="http://www.w3.org/2000/svg" xmlns:xlink="http://www.w3.org/1999/xlink"  version="1.2" baseProfile="tiny">
<title>Qt Svg Document</title>
<desc>Generated with Qt</desc>
<defs>
</defs>
<g fill="none" stroke="black" stroke-width="1" fill-rule="evenodd" stroke-linecap="square" stroke-linejoin="bevel" >

<g fill="#ffffff" fill-opacity="1" stroke="none" transform="matrix(1,0,0,1,0,0)"
font-family="Helvetica" font-size="12" font-weight="400" font-style="normal" 
>
<path vector-effect="non-scaling-stroke" fill-rule="evenodd" d="M0,0 L887,0 L887,351 L0,351 L0,0"/>
</g>

<g fill="none" stroke="#000080" stroke-opacity="1" stroke-width="2" stroke-linecap="square" stroke-linejoin="bevel" transform="matrix(1,0,0,1,0,0)"
font-family="Helvetica" font-size="12" font-weight="400" font-style="normal" 
>
<polyline fill="none" vector-effect="none" points="159,88 99,88 " />
<polyline fill="none" vector-effect="none" points="135,97 135,79 " />
<polyline fill="none" vector-effect="none" points="123,97 123,79 " />
<polyline fill="none" vector-effect="none" points="135,88 123,97 " />
<polyline fill="none" vector-effect="none" points="135,88 123,79 " />
</g>

<g fill="none" stroke="#000080" stroke-opacity="1" stroke-width="2" stroke-linecap="square" stroke-linejoin="bevel" transform="matrix(1,0,0,1,0,0)"
font-family="Helvetica" font-size="12" font-weight="400" font-style="normal" 
>
</g>

<g fill="none" stroke="#000000" stroke-opacity="1" stroke-width="1" stroke-linecap="square" stroke-linejoin="bevel" transform="matrix(1,0,0,1,0,0)"
font-family="Helvetica" font-size="12" font-weight="400" font-style="normal" 
>
<text fill="#000000" fill-opacity="1" stroke="none" xml:space="preserve" x="103" y="27" font-family="Helvetica" font-size="12" font-weight="400" font-style="normal" 
 >D_1N4148_1</text>
<text fill="#000000" fill-opacity="1" stroke="none" xml:space="preserve" x="103" y="42" font-family="Helvetica" font-size="12" font-weight="400" font-style="normal" 
 >Is=222p</text>
<text fill="#000000" fill-opacity="1" stroke="none" xml:space="preserve" x="103" y="57" font-family="Helvetica" font-size="12" font-weight="400" font-style="normal" 
 >N=1.65</text>
</g>

<g fill="none" stroke="#000080" stroke-opacity="1" stroke-width="2" stroke-linecap="square" stroke-linejoin="bevel" transform="matrix(1,0,0,1,0,0)"
font-family="Helvetica" font-size="12" font-weight="400" font-style="normal" 
>
<polyline fill="none" vector-effect="none" points="16,144 42,144 " />
</g>

<g fill="none" stroke="#000080" stroke-opacity="1" stroke-width="4" stroke-linecap="square" stroke-linejoin="bevel" transform="matrix(1,0,0,1,0,0)"
font-family="Helvetica" font-size="12" font-weight="400" font-style="normal" 
>
<polyline fill="none" vector-effect="none" points="23,152 35,152 " />
</g>

<g fill="none" stroke="#000080" stroke-opacity="1" stroke-width="2" stroke-linecap="square" stroke-linejoin="bevel" transform="matrix(1,0,0,1,0,0)"
font-family="Helvetica" font-size="12" font-weight="400" font-style="normal" 
>
<polyline fill="none" vector-effect="none" points="29,118 29,144 " />
<polyline fill="none" vector-effect="none" points="29,152 29,178 " />
</g>

<g fill="none" stroke="#ff0000" stroke-opacity="1" stroke-width="1" stroke-linecap="square" stroke-linejoin="bevel" transform="matrix(1,0,0,1,0,0)"
font-family="Helvetica" font-size="12" font-weight="400" font-style="normal" 
>
<polyline fill="none" vector-effect="none" points="34,137 40,137 " />
<polyline fill="none" vector-effect="none" points="37,134 37,140 " />
</g>

<g fill="none" stroke="#000000" stroke-opacity="1" stroke-width="1" stroke-linecap="square" stroke-linejoin="bevel" transform="matrix(1,0,0,1,0,0)"
font-family="Helvetica" font-size="12" font-weight="400" font-style="normal" 
>
<polyline fill="none" vector-effect="none" points="34,159 40,159 " />
</g>

<g fill="none" stroke="#000000" stroke-opacity="1" stroke-width="1" stroke-linecap="square" stroke-linejoin="bevel" transform="matrix(1,0,0,1,0,0)"
font-family="Helvetica" font-size="12" font-weight="400" font-style="normal" 
>
</g>

<g fill="none" stroke="#000000" stroke-opacity="1" stroke-width="1" stroke-linecap="square" stroke-linejoin="bevel" transform="matrix(1,0,0,1,0,0)"
font-family="Helvetica" font-size="12" font-weight="400" font-style="normal" 
>
<text fill="#000000" fill-opacity="1" stroke="none" xml:space="preserve" x="47" y="134" font-family="Helvetica" font-size="12" font-weight="400" font-style="normal" 
 >V1</text>
<text fill="#000000" fill-opacity="1" stroke="none" xml:space="preserve" x="47" y="149" font-family="Helvetica" font-size="12" font-weight="400" font-style="normal" 
 >U=1 V</text>
</g>

<g fill="none" stroke="#000080" stroke-opacity="1" stroke-width="2" stroke-linecap="square" stroke-linejoin="bevel" transform="matrix(1,0,0,1,0,0)"
font-family="Helvetica" font-size="12" font-weight="400" font-style="normal" 
>
<polyline fill="none" vector-effect="none" points="39,88 49,88 " />
<polyline fill="none" vector-effect="none" points="99,88 89,88 " />
</g>

<g fill="none" stroke="#000080" stroke-opacity="1" stroke-width="3" stroke-linecap="square" stroke-linejoin="bevel" transform="matrix(1,0,0,1,0,0)"
font-family="Helvetica" font-size="12" font-weight="400" font-style="normal" 
>
<polyline fill="none" vector-effect="none" points="49,88 89,88 " />
<polyline fill="none" vector-effect="none" points="73,88 65,84 " />
<polyline fill="none" vector-effect="none" points="73,88 65,92 " />
</g>

<g fill="none" stroke="#000080" stroke-opacity="1" stroke-width="2" stroke-linecap="square" stroke-linejoin="bevel" transform="matrix(1,0,0,1,0,0)"
font-family="Helvetica" font-size="12" font-weight="400" font-style="normal" 
>
<polyline fill="none" vector-effect="none" points="49,57 89,57 " />
<polyline fill="none" vector-effect="none" points="49,97 89,97 " />
<polyline fill="none" vector-effect="none" points="49,57 49,97 " />
<polyline fill="none" vector-effect="none" points="89,57 89,97 " />
<polyline fill="none" vector-effect="none" points="53,61 85,61 " />
<polyline fill="none" vector-effect="none" points="53,79 85,79 " />
<polyline fill="none" vector-effect="none" points="53,61 53,79 " />
<polyline fill="none" vector-effect="none" points="85,61 85,79 " />
<polyline fill="none" vector-effect="none" points="58,64 67,79 " />
<path vector-effect="none" fill-rule="evenodd" d="M81.0346,69.5618 C77.6452,66.7147 73.2729,65 68.5,65 C63.7271,65 59.3547,66.7148 55.9653,69.5619 "/>
</g>

<g fill="none" stroke="#000080" stroke-opacity="1" stroke-width="2" stroke-linecap="square" stroke-linejoin="bevel" transform="matrix(1,0,0,1,0,0)"
font-family="Helvetica" font-size="12" font-weight="400" font-style="normal" 
>
</g>

<g fill="none" stroke="#000000" stroke-opacity="1" stroke-width="1" stroke-linecap="square" stroke-linejoin="bevel" transform="matrix(1,0,0,1,0,0)"
font-family="Helvetica" font-size="12" font-weight="400" font-style="normal" 
>
<text fill="#000000" fill-opacity="1" stroke="none" xml:space="preserve" x="43" y="116" font-family="Helvetica" font-size="12" font-weight="400" font-style="normal" 
 >Pr1</text>
</g>

<g fill="none" stroke="#000080" stroke-opacity="1" stroke-width="2" stroke-linecap="square" stroke-linejoin="bevel" transform="matrix(1,0,0,1,0,0)"
font-family="Helvetica" font-size="12" font-weight="400" font-style="normal" 
>
<polyline fill="none" vector-effect="none" points="179,128 179,138 " />
</g>

<g fill="none" stroke="#000080" stroke-opacity="1" stroke-width="3" stroke-linecap="square" stroke-linejoin="bevel" transform="matrix(1,0,0,1,0,0)"
font-family="Helvetica" font-size="12" font-weight="400" font-style="normal" 
>
<polyline fill="none" vector-effect="none" points="168,138 190,138 " />
<polyline fill="none" vector-effect="none" points="172,144 186,144 " />
<polyline fill="none" vector-effect="none" points="176,150 182,150 " />
</g>

<g fill="none" stroke="#000080" stroke-opacity="1" stroke-width="3" stroke-linecap="square" stroke-linejoin="bevel" transform="matrix(1,0,0,1,0,0)"
font-family="Helvetica" font-size="12" font-weight="400" font-style="normal" 
>
</g>

<g fill="none" stroke="#000080" stroke-opacity="1" stroke-width="2" stroke-linecap="square" stroke-linejoin="bevel" transform="matrix(1,0,0,1,0,0)"
font-family="Helvetica" font-size="12" font-weight="400" font-style="normal" 
>
<polyline fill="none" vector-effect="none" points="29,178 29,188 " />
</g>

<g fill="none" stroke="#000080" stroke-opacity="1" stroke-width="3" stroke-linecap="square" stroke-linejoin="bevel" transform="matrix(1,0,0,1,0,0)"
font-family="Helvetica" font-size="12" font-weight="400" font-style="normal" 
>
<polyline fill="none" vector-effect="none" points="18,188 40,188 " />
<polyline fill="none" vector-effect="none" points="22,194 36,194 " />
<polyline fill="none" vector-effect="none" points="26,200 32,200 " />
</g>

<g fill="none" stroke="#000080" stroke-opacity="1" stroke-width="3" stroke-linecap="square" stroke-linejoin="bevel" transform="matrix(1,0,0,1,0,0)"
font-family="Helvetica" font-size="12" font-weight="400" font-style="normal" 
>
</g>

<g fill="none" stroke="#000080" stroke-opacity="1" stroke-width="2" stroke-linecap="square" stroke-linejoin="bevel" transform="matrix(1,0,0,1,0,0)"
font-family="Helvetica" font-size="16" font-weight="630" font-style="normal" 
>
<text fill="#000080" fill-opacity="1" stroke="none" xml:space="preserve" x="219" y="74" font-family="Helvetica" font-size="16" font-weight="630" font-style="normal" 
 >Parameter</text>
<text fill="#000080" fill-opacity="1" stroke="none" xml:space="preserve" x="219" y="95" font-family="Helvetica" font-size="16" font-weight="630" font-style="normal" 
 >sweep</text>
<path vector-effect="none" fill-rule="evenodd" d="M213,53 L304,53 L304,105 L213,105 L213,53"/>
<polyline fill="none" vector-effect="none" points="218,110 213,105 " />
<polyline fill="none" vector-effect="none" points="308,110 218,110 " />
<polyline fill="none" vector-effect="none" points="308,110 304,105 " />
<polyline fill="none" vector-effect="none" points="308,110 308,58 " />
<polyline fill="none" vector-effect="none" points="308,58 304,53 " />
</g>

<g fill="none" stroke="#000000" stroke-opacity="1" stroke-width="1" stroke-linecap="square" stroke-linejoin="bevel" transform="matrix(1,0,0,1,0,0)"
font-family="Helvetica" font-size="12" font-weight="400" font-style="normal" 
>
<text fill="#000000" fill-opacity="1" stroke="none" xml:space="preserve" x="219" y="141" font-family="Helvetica" font-size="12" font-weight="400" font-style="normal" 
 >SW1</text>
<text fill="#000000" fill-opacity="1" stroke="none" xml:space="preserve" x="219" y="156" font-family="Helvetica" font-size="12" font-weight="400" font-style="normal" 
 >Sim=DC1</text>
<text fill="#000000" fill-opacity="1" stroke="none" xml:space="preserve" x="219" y="171" font-family="Helvetica" font-size="12" font-weight="400" font-style="normal" 
 >Type=lin</text>
<text fill="#000000" fill-opacity="1" stroke="none" xml:space="preserve" x="219" y="186" font-family="Helvetica" font-size="12" font-weight="400" font-style="normal" 
 >Param=V1</text>
<text fill="#000000" fill-opacity="1" stroke="none" xml:space="preserve" x="219" y="201" font-family="Helvetica" font-size="12" font-weight="400" font-style="normal" 
 >Start=0</text>
<text fill="#000000" fill-opacity="1" stroke="none" xml:space="preserve" x="219" y="216" font-family="Helvetica" font-size="12" font-weight="400" font-style="normal" 
 >Stop=2</text>
<text fill="#000000" fill-opacity="1" stroke="none" xml:space="preserve" x="219" y="231" font-family="Helvetica" font-size="12" font-weight="400" font-style="normal" 
 >Points=200</text>
</g>

<g fill="none" stroke="#000080" stroke-opacity="1" stroke-width="2" stroke-linecap="square" stroke-linejoin="bevel" transform="matrix(1,0,0,1,0,0)"
font-family="Helvetica" font-size="16" font-weight="630" font-style="normal" 
>
<text fill="#000080" fill-opacity="1" stroke="none" xml:space="preserve" x="39" y="234" font-family="Helvetica" font-size="16" font-weight="630" font-style="normal" 
 >dc simulation</text>
<path vector-effect="none" fill-rule="evenodd" d="M33,213 L147,213 L147,244 L33,244 L33,213"/>
<polyline fill="none" vector-effect="none" points="38,249 33,244 " />
<polyline fill="none" vector-effect="none" points="151,249 38,249 " />
<polyline fill="none" vector-effect="none" points="151,249 147,244 " />
<polyline fill="none" vector-effect="none" points="151,249 151,218 " />
<polyline fill="none" vector-effect="none" points="151,218 147,213 " />
</g>

<g fill="none" stroke="#000000" stroke-opacity="1" stroke-width="1" stroke-linecap="square" stroke-linejoin="bevel" transform="matrix(1,0,0,1,0,0)"
font-family="Helvetica" font-size="12" font-weight="400" font-style="normal" 
>
<text fill="#000000" fill-opacity="1" stroke="none" xml:space="preserve" x="39" y="273" font-family="Helvetica" font-size="12" font-weight="400" font-style="normal" 
 >DC1</text>
</g>

<g fill="none" stroke="#000080" stroke-opacity="1" stroke-width="2" stroke-linecap="square" stroke-linejoin="bevel" transform="matrix(1,0,0,1,0,0)"
font-family="Helvetica" font-size="12" font-weight="400" font-style="normal" 
>
<polyline fill="none" vector-effect="none" points="29,88 29,118 " />
<polyline fill="none" vector-effect="none" points="29,88 39,88 " />
<polyline fill="none" vector-effect="none" points="159,88 179,88 " />
<polyline fill="none" vector-effect="none" points="179,88 179,128 " />
</g>

<g fill="#000080" fill-opacity="1" stroke="none" transform="matrix(1,0,0,1,0,0)"
font-family="Helvetica" font-size="12" font-weight="400" font-style="normal" 
>
<path vector-effect="non-scaling-stroke" fill-rule="evenodd" d="M157,86 L161,86 L161,90 L157,90 L157,86"/>
</g>

<g fill="#000080" fill-opacity="1" stroke="none" transform="matrix(1,0,0,1,0,0)"
font-family="Helvetica" font-size="12" font-weight="400" font-style="normal" 
>
<path vector-effect="non-scaling-stroke" fill-rule="evenodd" d="M97,86 L101,86 L101,90 L97,90 L97,86"/>
</g>

<g fill="#000080" fill-opacity="1" stroke="none" transform="matrix(1,0,0,1,0,0)"
font-family="Helvetica" font-size="12" font-weight="400" font-style="normal" 
>
<path vector-effect="non-scaling-stroke" fill-rule="evenodd" d="M27,116 L31,116 L31,120 L27,120 L27,116"/>
</g>

<g fill="#000080" fill-opacity="1" stroke="none" transform="matrix(1,0,0,1,0,0)"
font-family="Helvetica" font-size="12" font-weight="400" font-style="normal" 
>
<path vector-effect="non-scaling-stroke" fill-rule="evenodd" d="M27,176 L31,176 L31,180 L27,180 L27,176"/>
</g>

<g fill="#000080" fill-opacity="1" stroke="none" transform="matrix(1,0,0,1,0,0)"
font-family="Helvetica" font-size="12" font-weight="400" font-style="normal" 
>
<path vector-effect="non-scaling-stroke" fill-rule="evenodd" d="M37,86 L41,86 L41,90 L37,90 L37,86"/>
</g>

<g fill="#000080" fill-opacity="1" stroke="none" transform="matrix(1,0,0,1,0,0)"
font-family="Helvetica" font-size="12" font-weight="400" font-style="normal" 
>
<path vector-effect="non-scaling-stroke" fill-rule="evenodd" d="M177,126 L181,126 L181,130 L177,130 L177,126"/>
</g>

<g fill="none" stroke="#c0c0c0" stroke-opacity="1" stroke-width="1" stroke-linecap="square" stroke-linejoin="bevel" transform="matrix(1,0,0,1,0,0)"
font-family="Helvetica" font-size="12" font-weight="400" font-style="normal" 
>
<polyline fill="none" vector-effect="non-scaling-stroke" points="419,59 770,59 " />
<polyline fill="none" vector-effect="non-scaling-stroke" points="419,126 770,126 " />
<polyline fill="none" vector-effect="non-scaling-stroke" points="419,193 770,193 " />
<polyline fill="none" vector-effect="non-scaling-stroke" points="419,260 770,260 " />
<polyline fill="none" vector-effect="non-scaling-stroke" points="682,38 682,278 " />
<polyline fill="none" vector-effect="non-scaling-stroke" points="595,38 595,278 " />
<polyline fill="none" vector-effect="non-scaling-stroke" points="507,38 507,278 " />
</g>

<g fill="none" stroke="#000000" stroke-opacity="1" stroke-width="1" stroke-linecap="square" stroke-linejoin="bevel" transform="matrix(1,0,0,1,0,0)"
font-family="Helvetica" font-size="12" font-weight="400" font-style="normal" 
>
<polyline fill="none" vector-effect="non-scaling-stroke" points="419,273 419,283 " />
<polyline fill="none" vector-effect="non-scaling-stroke" points="507,273 507,283 " />
<polyline fill="none" vector-effect="non-scaling-stroke" points="595,273 595,283 " />
<polyline fill="none" vector-effect="non-scaling-stroke" points="682,273 682,283 " />
<polyline fill="none" vector-effect="non-scaling-stroke" points="770,273 770,283 " />
<polyline fill="none" vector-effect="non-scaling-stroke" points="414,260 424,260 " />
<polyline fill="none" vector-effect="non-scaling-stroke" points="414,193 424,193 " />
<polyline fill="none" vector-effect="non-scaling-stroke" points="414,126 424,126 " />
<polyline fill="none" vector-effect="non-scaling-stroke" points="414,59 424,59 " />
<polyline fill="none" vector-effect="non-scaling-stroke" points="419,38 770,38 " />
<polyline fill="none" vector-effect="non-scaling-stroke" points="770,38 770,278 " />
<polyline fill="none" vector-effect="non-scaling-stroke" points="419,278 770,278 " />
<polyline fill="none" vector-effect="non-scaling-stroke" points="419,38 419,278 " />
</g>

<g fill="none" stroke="#0000ff" stroke-opacity="1" stroke-width="1" stroke-linecap="square" stroke-linejoin="bevel" transform="matrix(1,0,0,1,0,0)"
font-family="Helvetica" font-size="12" font-weight="400" font-style="normal" 
>
</g>

<g fill="#0000ff" fill-opacity="1" stroke="none" transform="matrix(1,0,0,1,0,0)"
font-family="Helvetica" font-size="12" font-weight="400" font-style="normal" 
>
<path vector-effect="non-scaling-stroke" fill-rule="evenodd" d="M418.5,259.172 L419.5,259.172 L419.5,260.172 L418.5,260.172 L418.5,259.172"/>
</g>

<g fill="none" stroke="#0000ff" stroke-opacity="1" stroke-width="1" stroke-linecap="square" stroke-linejoin="bevel" transform="matrix(1,0,0,1,0,0)"
font-family="Helvetica" font-size="12" font-weight="400" font-style="normal" 
>
<polyline fill="none" vector-effect="non-scaling-stroke" points="419,259.672 420.755,259.672 " />
<polyline fill="none" vector-effect="non-scaling-stroke" points="420.755,259.672 422.51,259.672 " />
<polyline fill="none" vector-effect="non-scaling-stroke" points="422.51,259.672 424.265,259.672 " />
<polyline fill="none" vector-effect="non-scaling-stroke" points="424.265,259.672 426.02,259.672 " />
<polyline fill="none" vector-effect="non-scaling-stroke" points="426.02,259.672 427.775,259.672 " />
<polyline fill="none" vector-effect="non-scaling-stroke" points="427.775,259.672 429.53,259.672 " />
<polyline fill="none" vector-effect="non-scaling-stroke" points="429.53,259.672 431.285,259.672 " />
<polyline fill="none" vector-effect="non-scaling-stroke" points="431.285,259.672 433.04,259.672 " />
<polyline fill="none" vector-effect="non-scaling-stroke" points="433.04,259.672 434.795,259.672 " />
<polyline fill="none" vector-effect="non-scaling-stroke" points="434.795,259.672 436.55,259.672 " />
<polyline fill="none" vector-effect="non-scaling-stroke" points="436.55,259.672 438.305,259.672 " />
<polyline fill="none" vector-effect="non-scaling-stroke" points="438.305,259.672 440.06,259.672 " />
<polyline fill="none" vector-effect="non-scaling-stroke" points="440.06,259.672 441.815,259.672 " />
<polyline fill="none" vector-effect="non-scaling-stroke" points="441.815,259.672 443.57,259.672 " />
<polyline fill="none" vector-effect="non-scaling-stroke" points="443.57,259.672 445.325,259.672 " />
<polyline fill="none" vector-effect="non-scaling-stroke" points="445.325,259.672 447.08,259.672 " />
<polyline fill="none" vector-effect="non-scaling-stroke" points="447.08,259.672 448.835,259.672 " />
<polyline fill="none" vector-effect="non-scaling-stroke" points="448.835,259.672 450.59,259.672 " />
<polyline fill="none" vector-effect="non-scaling-stroke" points="450.59,259.672 452.345,259.672 " />
<polyline fill="none" vector-effect="non-scaling-stroke" points="452.345,259.672 454.1,259.672 " />
<polyline fill="none" vector-effect="non-scaling-stroke" points="454.1,259.672 455.855,259.672 " />
<polyline fill="none" vector-effect="non-scaling-stroke" points="455.855,259.672 457.61,259.672 " />
<polyline fill="none" vector-effect="non-scaling-stroke" points="457.61,259.672 459.365,259.672 " />
<polyline fill="none" vector-effect="non-scaling-stroke" points="459.365,259.672 461.12,259.672 " />
<polyline fill="none" vector-effect="non-scaling-stroke" points="461.12,259.672 462.875,259.672 " />
<polyline fill="none" vector-effect="non-scaling-stroke" points="462.875,259.672 464.63,259.672 " />
<polyline fill="none" vector-effect="non-scaling-stroke" points="464.63,259.672 466.385,259.672 " />
<polyline fill="none" vector-effect="non-scaling-stroke" points="466.385,259.672 468.14,259.672 " />
<polyline fill="none" vector-effect="non-scaling-stroke" points="468.14,259.672 469.895,259.672 " />
<polyline fill="none" vector-effect="non-scaling-stroke" points="469.895,259.672 471.65,259.672 " />
<polyline fill="none" vector-effect="non-scaling-stroke" points="471.65,259.672 473.405,259.672 " />
<polyline fill="none" vector-effect="non-scaling-stroke" points="473.405,259.672 475.16,259.672 " />
<polyline fill="none" vector-effect="non-scaling-stroke" points="475.16,259.672 476.915,259.672 " />
<polyline fill="none" vector-effect="non-scaling-stroke" points="476.915,259.672 478.67,259.672 " />
<polyline fill="none" vector-effect="non-scaling-stroke" points="478.67,259.672 480.425,259.672 " />
<polyline fill="none" vector-effect="non-scaling-stroke" points="480.425,259.672 482.18,259.672 " />
<polyline fill="none" vector-effect="non-scaling-stroke" points="482.18,259.672 483.935,259.672 " />
<polyline fill="none" vector-effect="non-scaling-stroke" points="483.935,259.672 485.69,259.672 " />
<polyline fill="none" vector-effect="non-scaling-stroke" points="485.69,259.672 487.445,259.672 " />
<polyline fill="none" vector-effect="non-scaling-stroke" points="487.445,259.672 489.2,259.672 " />
<polyline fill="none" vector-effect="non-scaling-stroke" points="489.2,259.672 490.955,259.672 " />
<polyline fill="none" vector-effect="non-scaling-stroke" points="490.955,259.672 492.71,259.672 " />
<polyline fill="none" vector-effect="non-scaling-stroke" points="492.71,259.672 494.465,259.672 " />
<polyline fill="none" vector-effect="non-scaling-stroke" points="494.465,259.672 496.22,259.672 " />
<polyline fill="none" vector-effect="non-scaling-stroke" points="496.22,259.672 497.975,259.672 " />
<polyline fill="none" vector-effect="non-scaling-stroke" points="497.975,259.672 499.73,259.671 " />
<polyline fill="none" vector-effect="non-scaling-stroke" points="499.73,259.671 501.485,259.671 " />
<polyline fill="none" vector-effect="non-scaling-stroke" points="501.485,259.671 503.24,259.671 " />
<polyline fill="none" vector-effect="non-scaling-stroke" points="503.24,259.671 504.995,259.671 " />
<polyline fill="none" vector-effect="non-scaling-stroke" points="504.995,259.671 506.75,259.671 " />
<polyline fill="none" vector-effect="non-scaling-stroke" points="506.75,259.671 508.505,259.671 " />
<polyline fill="none" vector-effect="non-scaling-stroke" points="508.505,259.671 510.26,259.671 " />
<polyline fill="none" vector-effect="non-scaling-stroke" points="510.26,259.671 512.015,259.671 " />
<polyline fill="none" vector-effect="non-scaling-stroke" points="512.015,259.671 513.77,259.671 " />
<polyline fill="none" vector-effect="non-scaling-stroke" points="513.77,259.671 515.525,259.67 " />
<polyline fill="none" vector-effect="non-scaling-stroke" points="515.525,259.67 517.28,259.67 " />
<polyline fill="none" vector-effect="non-scaling-stroke" points="517.28,259.67 519.035,259.67 " />
<polyline fill="none" vector-effect="non-scaling-stroke" points="519.035,259.67 520.79,259.669 " />
<polyline fill="none" vector-effect="non-scaling-stroke" points="520.79,259.669 522.545,259.669 " />
<polyline fill="none" vector-effect="non-scaling-stroke" points="522.545,259.669 524.3,259.668 " />
<polyline fill="none" vector-effect="non-scaling-stroke" points="524.3,259.668 526.055,259.667 " />
<polyline fill="none" vector-effect="non-scaling-stroke" points="526.055,259.667 527.81,259.666 " />
<polyline fill="none" vector-effect="non-scaling-stroke" points="527.81,259.666 529.565,259.664 " />
<polyline fill="none" vector-effect="non-scaling-stroke" points="529.565,259.664 531.32,259.662 " />
<polyline fill="none" vector-effect="non-scaling-stroke" points="531.32,259.662 533.075,259.659 " />
<polyline fill="none" vector-effect="non-scaling-stroke" points="533.075,259.659 534.83,259.656 " />
<polyline fill="none" vector-effect="non-scaling-stroke" points="534.83,259.656 536.585,259.652 " />
<polyline fill="none" vector-effect="non-scaling-stroke" points="536.585,259.652 538.34,259.647 " />
<polyline fill="none" vector-effect="non-scaling-stroke" points="538.34,259.647 540.095,259.64 " />
<polyline fill="none" vector-effect="non-scaling-stroke" points="540.095,259.64 541.85,259.632 " />
<polyline fill="none" vector-effect="non-scaling-stroke" points="541.85,259.632 543.605,259.622 " />
<polyline fill="none" vector-effect="non-scaling-stroke" points="543.605,259.622 545.36,259.609 " />
<polyline fill="none" vector-effect="non-scaling-stroke" points="545.36,259.609 547.115,259.592 " />
<polyline fill="none" vector-effect="non-scaling-stroke" points="547.115,259.592 548.87,259.571 " />
<polyline fill="none" vector-effect="non-scaling-stroke" points="548.87,259.571 550.625,259.545 " />
<polyline fill="none" vector-effect="non-scaling-stroke" points="550.625,259.545 552.38,259.512 " />
<polyline fill="none" vector-effect="non-scaling-stroke" points="552.38,259.512 554.135,259.471 " />
<polyline fill="none" vector-effect="non-scaling-stroke" points="554.135,259.471 555.89,259.42 " />
<polyline fill="none" vector-effect="non-scaling-stroke" points="555.89,259.42 557.645,259.356 " />
<polyline fill="none" vector-effect="non-scaling-stroke" points="557.645,259.356 559.4,259.276 " />
<polyline fill="none" vector-effect="non-scaling-stroke" points="559.4,259.276 561.155,259.177 " />
<polyline fill="none" vector-effect="non-scaling-stroke" points="561.155,259.177 562.91,259.056 " />
<polyline fill="none" vector-effect="non-scaling-stroke" points="562.91,259.056 564.665,258.907 " />
<polyline fill="none" vector-effect="non-scaling-stroke" points="564.665,258.907 566.42,258.726 " />
<polyline fill="none" vector-effect="non-scaling-stroke" points="566.42,258.726 568.175,258.507 " />
<polyline fill="none" vector-effect="non-scaling-stroke" points="568.175,258.507 569.93,258.245 " />
<polyline fill="none" vector-effect="non-scaling-stroke" points="569.93,258.245 571.685,257.934 " />
<polyline fill="none" vector-effect="non-scaling-stroke" points="571.685,257.934 573.44,257.57 " />
<polyline fill="none" vector-effect="non-scaling-stroke" points="573.44,257.57 575.195,257.146 " />
<polyline fill="none" vector-effect="non-scaling-stroke" points="575.195,257.146 576.95,256.66 " />
<polyline fill="none" vector-effect="non-scaling-stroke" points="576.95,256.66 578.705,256.109 " />
<polyline fill="none" vector-effect="non-scaling-stroke" points="578.705,256.109 580.46,255.49 " />
<polyline fill="none" vector-effect="non-scaling-stroke" points="580.46,255.49 582.215,254.804 " />
<polyline fill="none" vector-effect="non-scaling-stroke" points="582.215,254.804 583.97,254.051 " />
<polyline fill="none" vector-effect="non-scaling-stroke" points="583.97,254.051 585.725,253.232 " />
<polyline fill="none" vector-effect="non-scaling-stroke" points="585.725,253.232 587.48,252.35 " />
<polyline fill="none" vector-effect="non-scaling-stroke" points="587.48,252.35 589.235,251.408 " />
<polyline fill="none" vector-effect="non-scaling-stroke" points="589.235,251.408 590.99,250.408 " />
<polyline fill="none" vector-effect="non-scaling-stroke" points="590.99,250.408 592.745,249.354 " />
<polyline fill="none" vector-effect="non-scaling-stroke" points="592.745,249.354 594.5,248.25 " />
<polyline fill="none" vector-effect="non-scaling-stroke" points="594.5,248.25 596.255,247.099 " />
<polyline fill="none" vector-effect="non-scaling-stroke" points="596.255,247.099 598.01,245.905 " />
<polyline fill="none" vector-effect="non-scaling-stroke" points="598.01,245.905 599.765,244.67 " />
<polyline fill="none" vector-effect="non-scaling-stroke" points="599.765,244.67 601.52,243.397 " />
<polyline fill="none" vector-effect="non-scaling-stroke" points="601.52,243.397 603.275,242.09 " />
<polyline fill="none" vector-effect="non-scaling-stroke" points="603.275,242.09 605.03,240.751 " />
<polyline fill="none" vector-effect="non-scaling-stroke" points="605.03,240.751 606.785,239.382 " />
<polyline fill="none" vector-effect="non-scaling-stroke" points="606.785,239.382 608.54,237.986 " />
<polyline fill="none" vector-effect="non-scaling-stroke" points="608.54,237.986 610.295,236.565 " />
<polyline fill="none" vector-effect="non-scaling-stroke" points="610.295,236.565 612.05,235.12 " />
<polyline fill="none" vector-effect="non-scaling-stroke" points="612.05,235.12 613.805,233.653 " />
<polyline fill="none" vector-effect="non-scaling-stroke" points="613.805,233.653 615.56,232.166 " />
<polyline fill="none" vector-effect="non-scaling-stroke" points="615.56,232.166 617.315,230.66 " />
<polyline fill="none" vector-effect="non-scaling-stroke" points="617.315,230.66 619.07,229.136 " />
<polyline fill="none" vector-effect="non-scaling-stroke" points="619.07,229.136 620.825,227.596 " />
<polyline fill="none" vector-effect="non-scaling-stroke" points="620.825,227.596 622.58,226.04 " />
<polyline fill="none" vector-effect="non-scaling-stroke" points="622.58,226.04 624.335,224.47 " />
<polyline fill="none" vector-effect="non-scaling-stroke" points="624.335,224.47 626.09,222.886 " />
<polyline fill="none" vector-effect="non-scaling-stroke" points="626.09,222.886 627.845,221.29 " />
<polyline fill="none" vector-effect="non-scaling-stroke" points="627.845,221.29 629.6,219.682 " />
<polyline fill="none" vector-effect="non-scaling-stroke" points="629.6,219.682 631.355,218.063 " />
<polyline fill="none" vector-effect="non-scaling-stroke" points="631.355,218.063 633.11,216.433 " />
<polyline fill="none" vector-effect="non-scaling-stroke" points="633.11,216.433 634.865,214.793 " />
<polyline fill="none" vector-effect="non-scaling-stroke" points="634.865,214.793 636.62,213.144 " />
<polyline fill="none" vector-effect="non-scaling-stroke" points="636.62,213.144 638.375,211.485 " />
<polyline fill="none" vector-effect="non-scaling-stroke" points="638.375,211.485 640.13,209.819 " />
<polyline fill="none" vector-effect="non-scaling-stroke" points="640.13,209.819 641.885,208.144 " />
<polyline fill="none" vector-effect="non-scaling-stroke" points="641.885,208.144 643.64,206.462 " />
<polyline fill="none" vector-effect="non-scaling-stroke" points="643.64,206.462 645.395,204.772 " />
<polyline fill="none" vector-effect="non-scaling-stroke" points="645.395,204.772 647.15,203.076 " />
<polyline fill="none" vector-effect="non-scaling-stroke" points="647.15,203.076 648.905,201.373 " />
<polyline fill="none" vector-effect="non-scaling-stroke" points="648.905,201.373 650.66,199.664 " />
<polyline fill="none" vector-effect="non-scaling-stroke" points="650.66,199.664 652.415,197.949 " />
<polyline fill="none" vector-effect="non-scaling-stroke" points="652.415,197.949 654.17,196.228 " />
<polyline fill="none" vector-effect="non-scaling-stroke" points="654.17,196.228 655.925,194.502 " />
<polyline fill="none" vector-effect="non-scaling-stroke" points="655.925,194.502 657.68,192.77 " />
<polyline fill="none" vector-effect="non-scaling-stroke" points="657.68,192.77 659.435,191.034 " />
<polyline fill="none" vector-effect="non-scaling-stroke" points="659.435,191.034 661.19,189.293 " />
<polyline fill="none" vector-effect="non-scaling-stroke" points="661.19,189.293 662.945,187.547 " />
<polyline fill="none" vector-effect="non-scaling-stroke" points="662.945,187.547 664.7,185.797 " />
<polyline fill="none" vector-effect="non-scaling-stroke" points="664.7,185.797 666.455,184.043 " />
<polyline fill="none" vector-effect="non-scaling-stroke" points="666.455,184.043 668.21,182.285 " />
<polyline fill="none" vector-effect="non-scaling-stroke" points="668.21,182.285 669.965,180.522 " />
<polyline fill="none" vector-effect="non-scaling-stroke" points="669.965,180.522 671.72,178.756 " />
<polyline fill="none" vector-effect="non-scaling-stroke" points="671.72,178.756 673.475,176.987 " />
<polyline fill="none" vector-effect="non-scaling-stroke" points="673.475,176.987 675.23,175.214 " />
<polyline fill="none" vector-effect="non-scaling-stroke" points="675.23,175.214 676.985,173.438 " />
<polyline fill="none" vector-effect="non-scaling-stroke" points="676.985,173.438 678.74,171.658 " />
<polyline fill="none" vector-effect="non-scaling-stroke" points="678.74,171.658 680.495,169.875 " />
<polyline fill="none" vector-effect="non-scaling-stroke" points="680.495,169.875 682.25,168.09 " />
<polyline fill="none" vector-effect="non-scaling-stroke" points="682.25,168.09 684.005,166.301 " />
<polyline fill="none" vector-effect="non-scaling-stroke" points="684.005,166.301 685.76,164.51 " />
<polyline fill="none" vector-effect="non-scaling-stroke" points="685.76,164.51 687.515,162.716 " />
<polyline fill="none" vector-effect="non-scaling-stroke" points="687.515,162.716 689.27,160.919 " />
<polyline fill="none" vector-effect="non-scaling-stroke" points="689.27,160.919 691.025,159.12 " />
<polyline fill="none" vector-effect="non-scaling-stroke" points="691.025,159.12 692.78,157.318 " />
<polyline fill="none" vector-effect="non-scaling-stroke" points="692.78,157.318 694.535,155.514 " />
<polyline fill="none" vector-effect="non-scaling-stroke" points="694.535,155.514 696.29,153.707 " />
<polyline fill="none" vector-effect="non-scaling-stroke" points="696.29,153.707 698.045,151.899 " />
<polyline fill="none" vector-effect="non-scaling-stroke" points="698.045,151.899 699.8,150.088 " />
<polyline fill="none" vector-effect="non-scaling-stroke" points="699.8,150.088 701.555,148.275 " />
<polyline fill="none" vector-effect="non-scaling-stroke" points="701.555,148.275 703.31,146.46 " />
<polyline fill="none" vector-effect="non-scaling-stroke" points="703.31,146.46 705.065,144.643 " />
<polyline fill="none" vector-effect="non-scaling-stroke" points="705.065,144.643 706.82,142.824 " />
<polyline fill="none" vector-effect="non-scaling-stroke" points="706.82,142.824 708.575,141.003 " />
<polyline fill="none" vector-effect="non-scaling-stroke" points="708.575,141.003 710.33,139.18 " />
<polyline fill="none" vector-effect="non-scaling-stroke" points="710.33,139.18 712.085,137.356 " />
<polyline fill="none" vector-effect="non-scaling-stroke" points="712.085,137.356 713.84,135.53 " />
<polyline fill="none" vector-effect="non-scaling-stroke" points="713.84,135.53 715.595,133.702 " />
<polyline fill="none" vector-effect="non-scaling-stroke" points="715.595,133.702 717.35,131.872 " />
<polyline fill="none" vector-effect="non-scaling-stroke" points="717.35,131.872 719.105,130.041 " />
<polyline fill="none" vector-effect="non-scaling-stroke" points="719.105,130.041 720.86,128.208 " />
<polyline fill="none" vector-effect="non-scaling-stroke" points="720.86,128.208 722.615,126.374 " />
<polyline fill="none" vector-effect="non-scaling-stroke" points="722.615,126.374 724.37,124.538 " />
<polyline fill="none" vector-effect="non-scaling-stroke" points="724.37,124.538 726.125,122.701 " />
<polyline fill="none" vector-effect="non-scaling-stroke" points="726.125,122.701 727.88,120.863 " />
<polyline fill="none" vector-effect="non-scaling-stroke" points="727.88,120.863 729.635,119.023 " />
<polyline fill="none" vector-effect="non-scaling-stroke" points="729.635,119.023 731.39,117.182 " />
<polyline fill="none" vector-effect="non-scaling-stroke" points="731.39,117.182 733.145,115.339 " />
<polyline fill="none" vector-effect="non-scaling-stroke" points="733.145,115.339 734.9,113.495 " />
<polyline fill="none" vector-effect="non-scaling-stroke" points="734.9,113.495 736.655,111.65 " />
<polyline fill="none" vector-effect="non-scaling-stroke" points="736.655,111.65 738.41,109.804 " />
<polyline fill="none" vector-effect="non-scaling-stroke" points="738.41,109.804 740.165,107.956 " />
<polyline fill="none" vector-effect="non-scaling-stroke" points="740.165,107.956 741.92,106.107 " />
<polyline fill="none" vector-effect="non-scaling-stroke" points="741.92,106.107 743.675,104.258 " />
<polyline fill="none" vector-effect="non-scaling-stroke" points="743.675,104.258 745.43,102.407 " />
<polyline fill="none" vector-effect="non-scaling-stroke" points="745.43,102.407 747.185,100.555 " />
<polyline fill="none" vector-effect="non-scaling-stroke" points="747.185,100.555 748.94,98.7014 " />
<polyline fill="none" vector-effect="non-scaling-stroke" points="748.94,98.7014 750.695,96.8472 " />
<polyline fill="none" vector-effect="non-scaling-stroke" points="750.695,96.8472 752.45,94.992 " />
<polyline fill="none" vector-effect="non-scaling-stroke" points="752.45,94.992 754.205,93.1358 " />
<polyline fill="none" vector-effect="non-scaling-stroke" points="754.205,93.1358 755.96,91.2786 " />
<polyline fill="none" vector-effect="non-scaling-stroke" points="755.96,91.2786 757.715,89.4205 " />
<polyline fill="none" vector-effect="non-scaling-stroke" points="757.715,89.4205 759.47,87.5613 " />
<polyline fill="none" vector-effect="non-scaling-stroke" points="759.47,87.5613 761.225,85.7013 " />
<polyline fill="none" vector-effect="non-scaling-stroke" points="761.225,85.7013 762.98,83.8404 " />
<polyline fill="none" vector-effect="non-scaling-stroke" points="762.98,83.8404 764.735,81.9785 " />
<polyline fill="none" vector-effect="non-scaling-stroke" points="764.735,81.9785 766.49,80.1158 " />
<polyline fill="none" vector-effect="non-scaling-stroke" points="766.49,80.1158 768.245,78.2523 " />
<polyline fill="none" vector-effect="non-scaling-stroke" points="768.245,78.2523 770,76.3879 " />
</g>

<g fill="none" stroke="#000000" stroke-opacity="1" stroke-width="1" stroke-linecap="square" stroke-linejoin="bevel" transform="matrix(1,0,0,1,415,296)"
font-family="Helvetica" font-size="12" font-weight="400" font-style="normal" 
>
<text fill="#000000" fill-opacity="1" stroke="none" xml:space="preserve" x="0" y="0" font-family="Helvetica" font-size="12" font-weight="400" font-style="normal" 
 >0</text>
</g>

<g fill="none" stroke="#000000" stroke-opacity="1" stroke-width="1" stroke-linecap="square" stroke-linejoin="bevel" transform="matrix(1,0,0,1,496,296)"
font-family="Helvetica" font-size="12" font-weight="400" font-style="normal" 
>
<text fill="#000000" fill-opacity="1" stroke="none" xml:space="preserve" x="0" y="0" font-family="Helvetica" font-size="12" font-weight="400" font-style="normal" 
 >0.5</text>
</g>

<g fill="none" stroke="#000000" stroke-opacity="1" stroke-width="1" stroke-linecap="square" stroke-linejoin="bevel" transform="matrix(1,0,0,1,591,296)"
font-family="Helvetica" font-size="12" font-weight="400" font-style="normal" 
>
<text fill="#000000" fill-opacity="1" stroke="none" xml:space="preserve" x="0" y="0" font-family="Helvetica" font-size="12" font-weight="400" font-style="normal" 
 >1</text>
</g>

<g fill="none" stroke="#000000" stroke-opacity="1" stroke-width="1" stroke-linecap="square" stroke-linejoin="bevel" transform="matrix(1,0,0,1,671,296)"
font-family="Helvetica" font-size="12" font-weight="400" font-style="normal" 
>
<text fill="#000000" fill-opacity="1" stroke="none" xml:space="preserve" x="0" y="0" font-family="Helvetica" font-size="12" font-weight="400" font-style="normal" 
 >1.5</text>
</g>

<g fill="none" stroke="#000000" stroke-opacity="1" stroke-width="1" stroke-linecap="square" stroke-linejoin="bevel" transform="matrix(1,0,0,1,766,296)"
font-family="Helvetica" font-size="12" font-weight="400" font-style="normal" 
>
<text fill="#000000" fill-opacity="1" stroke="none" xml:space="preserve" x="0" y="0" font-family="Helvetica" font-size="12" font-weight="400" font-style="normal" 
 >2</text>
</g>

<g fill="none" stroke="#000000" stroke-opacity="1" stroke-width="1" stroke-linecap="square" stroke-linejoin="bevel" transform="matrix(1,0,0,1,403,266)"
font-family="Helvetica" font-size="12" font-weight="400" font-style="normal" 
>
<text fill="#000000" fill-opacity="1" stroke="none" xml:space="preserve" x="0" y="0" font-family="Helvetica" font-size="12" font-weight="400" font-style="normal" 
 >0</text>
</g>

<g fill="none" stroke="#000000" stroke-opacity="1" stroke-width="1" stroke-linecap="square" stroke-linejoin="bevel" transform="matrix(1,0,0,1,403,199)"
font-family="Helvetica" font-size="12" font-weight="400" font-style="normal" 
>
<text fill="#000000" fill-opacity="1" stroke="none" xml:space="preserve" x="0" y="0" font-family="Helvetica" font-size="12" font-weight="400" font-style="normal" 
 >5</text>
</g>

<g fill="none" stroke="#000000" stroke-opacity="1" stroke-width="1" stroke-linecap="square" stroke-linejoin="bevel" transform="matrix(1,0,0,1,394,132)"
font-family="Helvetica" font-size="12" font-weight="400" font-style="normal" 
>
<text fill="#000000" fill-opacity="1" stroke="none" xml:space="preserve" x="0" y="0" font-family="Helvetica" font-size="12" font-weight="400" font-style="normal" 
 >10</text>
</g>

<g fill="none" stroke="#000000" stroke-opacity="1" stroke-width="1" stroke-linecap="square" stroke-linejoin="bevel" transform="matrix(1,0,0,1,394,65)"
font-family="Helvetica" font-size="12" font-weight="400" font-style="normal" 
>
<text fill="#000000" fill-opacity="1" stroke="none" xml:space="preserve" x="0" y="0" font-family="Helvetica" font-size="12" font-weight="400" font-style="normal" 
 >15</text>
</g>

<g fill="none" stroke="#0000ff" stroke-opacity="1" stroke-width="1" stroke-linecap="square" stroke-linejoin="bevel" transform="matrix(1,0,0,1,564,316)"
font-family="Helvetica" font-size="12" font-weight="400" font-style="normal" 
>
<text fill="#0000ff" fill-opacity="1" stroke="none" xml:space="preserve" x="0" y="0" font-family="Helvetica" font-size="12" font-weight="400" font-style="normal" 
 >v-sweep</text>
</g>

<g fill="none" stroke="#0000ff" stroke-opacity="1" stroke-width="1" stroke-linecap="square" stroke-linejoin="bevel" transform="matrix(0,-1,1,0,387,231)"
font-family="Helvetica" font-size="12" font-weight="400" font-style="normal" 
>
<text fill="#0000ff" fill-opacity="1" stroke="none" xml:space="preserve" x="0" y="0" font-family="Helvetica" font-size="12" font-weight="400" font-style="normal" 
 >diode_ngspice:i(pr1)</text>
</g>

<g fill="none" stroke="#0000ff" stroke-opacity="1" stroke-width="1" stroke-linecap="square" stroke-linejoin="bevel" transform="matrix(1,0,0,1,0,0)"
font-family="Helvetica" font-size="12" font-weight="400" font-style="normal" 
>
</g>

<g fill="none" stroke="#000000" stroke-opacity="1" stroke-width="1" stroke-linecap="square" stroke-linejoin="bevel" transform="matrix(1,0,0,1,0,0)"
font-family="Helvetica" font-size="12" font-weight="400" font-style="normal" 
>
<text fill="#000000" fill-opacity="1" stroke="none" xml:space="preserve" x="427" y="84" font-family="Helvetica" font-size="12" font-weight="400" font-style="normal" 
 >v-sweep: 0.65</text>
<text fill="#000000" fill-opacity="1" stroke="none" xml:space="preserve" x="427" y="99" font-family="Helvetica" font-size="12" font-weight="400" font-style="normal" 
 >diode_ngspice:i(pr1): 0.00092</text>
</g>

<g fill="#ffffff" fill-opacity="1" stroke="none" transform="matrix(1,0,0,1,0,0)"
font-family="Helvetica" font-size="12" font-weight="400" font-style="normal" 
>
<path vector-effect="non-scaling-stroke" fill-rule="evenodd" d="M424,69 L594,69 L594,106 L424,106 L424,69"/>
</g>

<g fill="none" stroke="#000000" stroke-opacity="1" stroke-width="1" stroke-linecap="square" stroke-linejoin="bevel" transform="matrix(1,0,0,1,0,0)"
font-family="Helvetica" font-size="12" font-weight="400" font-style="normal" 
>
<text fill="#000000" fill-opacity="1" stroke="none" xml:space="preserve" x="427" y="84" font-family="Helvetica" font-size="12" font-weight="400" font-style="normal" 
 >v-sweep: 0.65</text>
<text fill="#000000" fill-opacity="1" stroke="none" xml:space="preserve" x="427" y="99" font-family="Helvetica" font-size="12" font-weight="400" font-style="normal" 
 >diode_ngspice:i(pr1): 0.00092</text>
</g>

<g fill="none" stroke="#0000ff" stroke-opacity="1" stroke-width="1" stroke-linecap="square" stroke-linejoin="bevel" transform="matrix(1,0,0,1,0,0)"
font-family="Helvetica" font-size="12" font-weight="400" font-style="normal" 
>
</g>

<g fill="none" stroke="#800080" stroke-opacity="1" stroke-width="1" stroke-linecap="square" stroke-linejoin="bevel" transform="matrix(1,0,0,1,0,0)"
font-family="Helvetica" font-size="12" font-weight="400" font-style="normal" 
>
<path vector-effect="non-scaling-stroke" fill-rule="evenodd" d="M424,69 L594,69 L594,106 L424,106 L424,69"/>
<polyline fill="none" vector-effect="non-scaling-stroke" points="593,105 533,260 " />
</g>
</g>
</svg>
