<?xml version="1.0" encoding="UTF-8" standalone="no"?>
<svg width="165.1mm" height="149.578mm"
 xmlns="http://www.w3.org/2000/svg" xmlns:xlink="http://www.w3.org/1999/xlink"  version="1.2" baseProfile="tiny">
<title>Qt Svg Document</title>
<desc>Generated with Qt</desc>
<defs>
</defs>
<g fill="none" stroke="black" stroke-width="1" fill-rule="evenodd" stroke-linecap="square" stroke-linejoin="bevel" >

<g fill="#ffffff" fill-opacity="1" stroke="none" transform="matrix(1,0,0,1,0,0)"
font-family="Helvetica" font-size="12" font-weight="400" font-style="normal" 
>
<path vector-effect="non-scaling-stroke" fill-rule="evenodd" d="M0,0 L468,0 L468,424 L0,424 L0,0"/>
</g>

<g fill="none" stroke="#000080" stroke-opacity="1" stroke-width="2" stroke-linecap="square" stroke-linejoin="bevel" transform="matrix(1,0,0,1,0,0)"
font-family="Helvetica" font-size="12" font-weight="400" font-style="normal" 
>
<polyline fill="none" vector-effect="none" points="29,159 29,169 " />
</g>

<g fill="none" stroke="#000080" stroke-opacity="1" stroke-width="3" stroke-linecap="square" stroke-linejoin="bevel" transform="matrix(1,0,0,1,0,0)"
font-family="Helvetica" font-size="12" font-weight="400" font-style="normal" 
>
<polyline fill="none" vector-effect="none" points="18,169 40,169 " />
<polyline fill="none" vector-effect="none" points="22,175 36,175 " />
<polyline fill="none" vector-effect="none" points="26,181 32,181 " />
</g>

<g fill="none" stroke="#000080" stroke-opacity="1" stroke-width="3" stroke-linecap="square" stroke-linejoin="bevel" transform="matrix(1,0,0,1,0,0)"
font-family="Helvetica" font-size="12" font-weight="400" font-style="normal" 
>
</g>

<g fill="none" stroke="#000080" stroke-opacity="1" stroke-width="2" stroke-linecap="square" stroke-linejoin="bevel" transform="matrix(1,0,0,1,0,0)"
font-family="Helvetica" font-size="12" font-weight="400" font-style="normal" 
>
<polyline fill="none" vector-effect="none" points="29,159 29,141 " />
<polyline fill="none" vector-effect="none" points="29,99 29,117 " />
</g>

<g fill="none" stroke="#ff0000" stroke-opacity="1" stroke-width="1" stroke-linecap="square" stroke-linejoin="bevel" transform="matrix(1,0,0,1,0,0)"
font-family="Helvetica" font-size="12" font-weight="400" font-style="normal" 
>
<polyline fill="none" vector-effect="none" points="34,111 40,111 " />
<polyline fill="none" vector-effect="none" points="37,108 37,114 " />
</g>

<g fill="none" stroke="#000000" stroke-opacity="1" stroke-width="1" stroke-linecap="square" stroke-linejoin="bevel" transform="matrix(1,0,0,1,0,0)"
font-family="Helvetica" font-size="12" font-weight="400" font-style="normal" 
>
<polyline fill="none" vector-effect="none" points="34,147 40,147 " />
</g>

<g fill="none" stroke="#000080" stroke-opacity="1" stroke-width="2" stroke-linecap="square" stroke-linejoin="bevel" transform="matrix(1,0,0,1,0,0)"
font-family="Helvetica" font-size="12" font-weight="400" font-style="normal" 
>
<path vector-effect="none" fill-rule="evenodd" d="M29,117 C22.3726,117 17,122.373 17,129 C17,135.627 22.3726,141 29,141 C35.6274,141 41,135.627 41,129 C41,122.373 35.6274,117 29,117 "/>
<path vector-effect="none" fill-rule="evenodd" d="M29,128.5 C29,126.567 27.433,125 25.5,125 C23.567,125 22,126.567 22,128.5 "/>
<path vector-effect="none" fill-rule="evenodd" d="M29,128.5 C29,130.433 30.567,132 32.5,132 C34.433,132 36,130.433 36,128.5 "/>
</g>

<g fill="none" stroke="#000080" stroke-opacity="1" stroke-width="2" stroke-linecap="square" stroke-linejoin="bevel" transform="matrix(1,0,0,1,0,0)"
font-family="Helvetica" font-size="12" font-weight="400" font-style="normal" 
>
</g>

<g fill="none" stroke="#000000" stroke-opacity="1" stroke-width="1" stroke-linecap="square" stroke-linejoin="bevel" transform="matrix(1,0,0,1,0,0)"
font-family="Helvetica" font-size="12" font-weight="400" font-style="normal" 
>
<text fill="#000000" fill-opacity="1" stroke="none" xml:space="preserve" x="47" y="115" font-family="Helvetica" font-size="12" font-weight="400" font-style="normal" 
 >V1</text>
<text fill="#000000" fill-opacity="1" stroke="none" xml:space="preserve" x="47" y="130" font-family="Helvetica" font-size="12" font-weight="400" font-style="normal" 
 >U=0.6 V</text>
</g>

<g fill="none" stroke="#000080" stroke-opacity="1" stroke-width="2" stroke-linecap="square" stroke-linejoin="bevel" transform="matrix(1,0,0,1,0,0)"
font-family="Helvetica" font-size="12" font-weight="400" font-style="normal" 
>
<polyline fill="none" vector-effect="none" points="29,49 39,49 " />
<polyline fill="none" vector-effect="none" points="89,49 79,49 " />
</g>

<g fill="none" stroke="#000080" stroke-opacity="1" stroke-width="3" stroke-linecap="square" stroke-linejoin="bevel" transform="matrix(1,0,0,1,0,0)"
font-family="Helvetica" font-size="12" font-weight="400" font-style="normal" 
>
<polyline fill="none" vector-effect="none" points="39,49 79,49 " />
<polyline fill="none" vector-effect="none" points="63,49 55,45 " />
<polyline fill="none" vector-effect="none" points="63,49 55,53 " />
</g>

<g fill="none" stroke="#000080" stroke-opacity="1" stroke-width="2" stroke-linecap="square" stroke-linejoin="bevel" transform="matrix(1,0,0,1,0,0)"
font-family="Helvetica" font-size="12" font-weight="400" font-style="normal" 
>
<polyline fill="none" vector-effect="none" points="39,18 79,18 " />
<polyline fill="none" vector-effect="none" points="39,58 79,58 " />
<polyline fill="none" vector-effect="none" points="39,18 39,58 " />
<polyline fill="none" vector-effect="none" points="79,18 79,58 " />
<polyline fill="none" vector-effect="none" points="43,22 75,22 " />
<polyline fill="none" vector-effect="none" points="43,40 75,40 " />
<polyline fill="none" vector-effect="none" points="43,22 43,40 " />
<polyline fill="none" vector-effect="none" points="75,22 75,40 " />
<polyline fill="none" vector-effect="none" points="48,25 57,40 " />
<path vector-effect="none" fill-rule="evenodd" d="M71.0346,30.5618 C67.6452,27.7147 63.2729,26 58.5,26 C53.7271,26 49.3547,27.7148 45.9653,30.5619 "/>
</g>

<g fill="none" stroke="#000080" stroke-opacity="1" stroke-width="2" stroke-linecap="square" stroke-linejoin="bevel" transform="matrix(1,0,0,1,0,0)"
font-family="Helvetica" font-size="12" font-weight="400" font-style="normal" 
>
</g>

<g fill="none" stroke="#000000" stroke-opacity="1" stroke-width="1" stroke-linecap="square" stroke-linejoin="bevel" transform="matrix(1,0,0,1,0,0)"
font-family="Helvetica" font-size="12" font-weight="400" font-style="normal" 
>
<text fill="#000000" fill-opacity="1" stroke="none" xml:space="preserve" x="33" y="77" font-family="Helvetica" font-size="12" font-weight="400" font-style="normal" 
 >Pr1</text>
</g>

<g fill="none" stroke="#000080" stroke-opacity="1" stroke-width="2" stroke-linecap="square" stroke-linejoin="bevel" transform="matrix(1,0,0,1,0,0)"
font-family="Helvetica" font-size="12" font-weight="400" font-style="normal" 
>
<polyline fill="none" vector-effect="none" points="139,49 151,49 " />
<polyline fill="none" vector-effect="none" points="187,49 199,49 " />
</g>

<g fill="none" stroke="#000080" stroke-opacity="1" stroke-width="4" stroke-linecap="square" stroke-linejoin="bevel" transform="matrix(1,0,0,1,0,0)"
font-family="Helvetica" font-size="12" font-weight="400" font-style="normal" 
>
<path vector-effect="none" fill-rule="evenodd" d="M163,49 C163,45.6863 160.314,43 157,43 C153.686,43 151,45.6863 151,49 "/>
<path vector-effect="none" fill-rule="evenodd" d="M175,49 C175,45.6863 172.314,43 169,43 C165.686,43 163,45.6863 163,49 "/>
<path vector-effect="none" fill-rule="evenodd" d="M187,49 C187,45.6863 184.314,43 181,43 C177.686,43 175,45.6863 175,49 "/>
</g>

<g fill="none" stroke="#000080" stroke-opacity="1" stroke-width="4" stroke-linecap="square" stroke-linejoin="bevel" transform="matrix(1,0,0,1,0,0)"
font-family="Helvetica" font-size="12" font-weight="400" font-style="normal" 
>
</g>

<g fill="none" stroke="#000000" stroke-opacity="1" stroke-width="1" stroke-linecap="square" stroke-linejoin="bevel" transform="matrix(1,0,0,1,0,0)"
font-family="Helvetica" font-size="12" font-weight="400" font-style="normal" 
>
<text fill="#000000" fill-opacity="1" stroke="none" xml:space="preserve" x="143" y="71" font-family="Helvetica" font-size="12" font-weight="400" font-style="normal" 
 >L1</text>
<text fill="#000000" fill-opacity="1" stroke="none" xml:space="preserve" x="143" y="86" font-family="Helvetica" font-size="12" font-weight="400" font-style="normal" 
 >L=10u</text>
</g>

<g fill="none" stroke="#000080" stroke-opacity="1" stroke-width="2" stroke-linecap="square" stroke-linejoin="bevel" transform="matrix(1,0,0,1,0,0)"
font-family="Helvetica" font-size="12" font-weight="400" font-style="normal" 
>
<polyline fill="none" vector-effect="none" points="340,137 340,101 " />
<polyline fill="none" vector-effect="none" points="340,101 358,101 " />
<polyline fill="none" vector-effect="none" points="358,101 358,137 " />
<polyline fill="none" vector-effect="none" points="358,137 340,137 " />
<polyline fill="none" vector-effect="none" points="349,149 349,137 " />
<polyline fill="none" vector-effect="none" points="349,101 349,89 " />
</g>

<g fill="none" stroke="#000080" stroke-opacity="1" stroke-width="2" stroke-linecap="square" stroke-linejoin="bevel" transform="matrix(1,0,0,1,0,0)"
font-family="Helvetica" font-size="12" font-weight="400" font-style="normal" 
>
</g>

<g fill="none" stroke="#000000" stroke-opacity="1" stroke-width="1" stroke-linecap="square" stroke-linejoin="bevel" transform="matrix(1,0,0,1,0,0)"
font-family="Helvetica" font-size="12" font-weight="400" font-style="normal" 
>
<text fill="#000000" fill-opacity="1" stroke="none" xml:space="preserve" x="364" y="105" font-family="Helvetica" font-size="12" font-weight="400" font-style="normal" 
 >R1</text>
<text fill="#000000" fill-opacity="1" stroke="none" xml:space="preserve" x="364" y="120" font-family="Helvetica" font-size="12" font-weight="400" font-style="normal" 
 >R=30</text>
</g>

<g fill="none" stroke="#000080" stroke-opacity="1" stroke-width="4" stroke-linecap="square" stroke-linejoin="bevel" transform="matrix(1,0,0,1,0,0)"
font-family="Helvetica" font-size="12" font-weight="400" font-style="normal" 
>
<polyline fill="none" vector-effect="none" points="265,38 265,60 " />
<polyline fill="none" vector-effect="none" points="273,38 273,60 " />
</g>

<g fill="none" stroke="#000080" stroke-opacity="1" stroke-width="2" stroke-linecap="square" stroke-linejoin="bevel" transform="matrix(1,0,0,1,0,0)"
font-family="Helvetica" font-size="12" font-weight="400" font-style="normal" 
>
<polyline fill="none" vector-effect="none" points="239,49 265,49 " />
<polyline fill="none" vector-effect="none" points="273,49 299,49 " />
</g>

<g fill="none" stroke="#000080" stroke-opacity="1" stroke-width="2" stroke-linecap="square" stroke-linejoin="bevel" transform="matrix(1,0,0,1,0,0)"
font-family="Helvetica" font-size="12" font-weight="400" font-style="normal" 
>
</g>

<g fill="none" stroke="#000000" stroke-opacity="1" stroke-width="1" stroke-linecap="square" stroke-linejoin="bevel" transform="matrix(1,0,0,1,0,0)"
font-family="Helvetica" font-size="12" font-weight="400" font-style="normal" 
>
<text fill="#000000" fill-opacity="1" stroke="none" xml:space="preserve" x="243" y="78" font-family="Helvetica" font-size="12" font-weight="400" font-style="normal" 
 >C1</text>
<text fill="#000000" fill-opacity="1" stroke="none" xml:space="preserve" x="243" y="93" font-family="Helvetica" font-size="12" font-weight="400" font-style="normal" 
 >C=40p</text>
</g>

<g fill="none" stroke="#000080" stroke-opacity="1" stroke-width="2" stroke-linecap="square" stroke-linejoin="bevel" transform="matrix(1,0,0,1,0,0)"
font-family="Helvetica" font-size="12" font-weight="400" font-style="normal" 
>
<polyline fill="none" vector-effect="none" points="349,149 349,159 " />
</g>

<g fill="none" stroke="#000080" stroke-opacity="1" stroke-width="3" stroke-linecap="square" stroke-linejoin="bevel" transform="matrix(1,0,0,1,0,0)"
font-family="Helvetica" font-size="12" font-weight="400" font-style="normal" 
>
<polyline fill="none" vector-effect="none" points="338,159 360,159 " />
<polyline fill="none" vector-effect="none" points="342,165 356,165 " />
<polyline fill="none" vector-effect="none" points="346,171 352,171 " />
</g>

<g fill="none" stroke="#000080" stroke-opacity="1" stroke-width="3" stroke-linecap="square" stroke-linejoin="bevel" transform="matrix(1,0,0,1,0,0)"
font-family="Helvetica" font-size="12" font-weight="400" font-style="normal" 
>
</g>

<g fill="none" stroke="#000080" stroke-opacity="1" stroke-width="2" stroke-linecap="square" stroke-linejoin="bevel" transform="matrix(1,0,0,1,0,0)"
font-family="Helvetica" font-size="16" font-weight="630" font-style="normal" 
>
<text fill="#000080" fill-opacity="1" stroke="none" xml:space="preserve" x="59" y="295" font-family="Helvetica" font-size="16" font-weight="630" font-style="normal" 
 >ac simulation</text>
<path vector-effect="none" fill-rule="evenodd" d="M53,274 L166,274 L166,305 L53,305 L53,274"/>
<polyline fill="none" vector-effect="none" points="58,310 53,305 " />
<polyline fill="none" vector-effect="none" points="170,310 58,310 " />
<polyline fill="none" vector-effect="none" points="170,310 166,305 " />
<polyline fill="none" vector-effect="none" points="170,310 170,279 " />
<polyline fill="none" vector-effect="none" points="170,279 166,274 " />
</g>

<g fill="none" stroke="#000000" stroke-opacity="1" stroke-width="1" stroke-linecap="square" stroke-linejoin="bevel" transform="matrix(1,0,0,1,0,0)"
font-family="Helvetica" font-size="12" font-weight="400" font-style="normal" 
>
<text fill="#000000" fill-opacity="1" stroke="none" xml:space="preserve" x="59" y="334" font-family="Helvetica" font-size="12" font-weight="400" font-style="normal" 
 >AC1</text>
<text fill="#000000" fill-opacity="1" stroke="none" xml:space="preserve" x="59" y="349" font-family="Helvetica" font-size="12" font-weight="400" font-style="normal" 
 >Type=lin</text>
<text fill="#000000" fill-opacity="1" stroke="none" xml:space="preserve" x="59" y="364" font-family="Helvetica" font-size="12" font-weight="400" font-style="normal" 
 >Start=1 MHz</text>
<text fill="#000000" fill-opacity="1" stroke="none" xml:space="preserve" x="59" y="379" font-family="Helvetica" font-size="12" font-weight="400" font-style="normal" 
 >Stop=10 MHz</text>
<text fill="#000000" fill-opacity="1" stroke="none" xml:space="preserve" x="59" y="394" font-family="Helvetica" font-size="12" font-weight="400" font-style="normal" 
 >Points=1000</text>
</g>

<g fill="none" stroke="#000080" stroke-opacity="1" stroke-width="2" stroke-linecap="square" stroke-linejoin="bevel" transform="matrix(1,0,0,1,0,0)"
font-family="Helvetica" font-size="16" font-weight="630" font-style="normal" 
>
<text fill="#000080" fill-opacity="1" stroke="none" xml:space="preserve" x="259" y="295" font-family="Helvetica" font-size="16" font-weight="630" font-style="normal" 
 >transient</text>
<text fill="#000080" fill-opacity="1" stroke="none" xml:space="preserve" x="259" y="316" font-family="Helvetica" font-size="16" font-weight="630" font-style="normal" 
 >simulation</text>
<path vector-effect="none" fill-rule="evenodd" d="M253,274 L344,274 L344,326 L253,326 L253,274"/>
<polyline fill="none" vector-effect="none" points="258,331 253,326 " />
<polyline fill="none" vector-effect="none" points="348,331 258,331 " />
<polyline fill="none" vector-effect="none" points="348,331 344,326 " />
<polyline fill="none" vector-effect="none" points="348,331 348,279 " />
<polyline fill="none" vector-effect="none" points="348,279 344,274 " />
</g>

<g fill="none" stroke="#000000" stroke-opacity="1" stroke-width="1" stroke-linecap="square" stroke-linejoin="bevel" transform="matrix(1,0,0,1,0,0)"
font-family="Helvetica" font-size="12" font-weight="400" font-style="normal" 
>
<text fill="#000000" fill-opacity="1" stroke="none" xml:space="preserve" x="259" y="362" font-family="Helvetica" font-size="12" font-weight="400" font-style="normal" 
 >TR1</text>
<text fill="#000000" fill-opacity="1" stroke="none" xml:space="preserve" x="259" y="377" font-family="Helvetica" font-size="12" font-weight="400" font-style="normal" 
 >Type=lin</text>
<text fill="#000000" fill-opacity="1" stroke="none" xml:space="preserve" x="259" y="392" font-family="Helvetica" font-size="12" font-weight="400" font-style="normal" 
 >Start=0</text>
<text fill="#000000" fill-opacity="1" stroke="none" xml:space="preserve" x="259" y="407" font-family="Helvetica" font-size="12" font-weight="400" font-style="normal" 
 >Stop=1 us</text>
</g>

<g fill="none" stroke="#000080" stroke-opacity="1" stroke-width="2" stroke-linecap="square" stroke-linejoin="bevel" transform="matrix(1,0,0,1,0,0)"
font-family="Helvetica" font-size="12" font-weight="400" font-style="normal" 
>
<polyline fill="none" vector-effect="none" points="29,49 29,99 " />
<polyline fill="none" vector-effect="none" points="89,49 139,49 " />
</g>

<g fill="none" stroke="#000000" stroke-opacity="1" stroke-width="1" stroke-linecap="square" stroke-linejoin="bevel" transform="matrix(1,0,0,1,0,0)"
font-family="Helvetica" font-size="12" font-weight="400" font-style="normal" 
>
<text fill="#000000" fill-opacity="1" stroke="none" xml:space="preserve" x="119" y="11" font-family="Helvetica" font-size="12" font-weight="400" font-style="normal" 
 >vIn</text>
</g>

<g fill="none" stroke="#800080" stroke-opacity="1" stroke-width="1" stroke-linecap="square" stroke-linejoin="bevel" transform="matrix(1,0,0,1,0,0)"
font-family="Helvetica" font-size="12" font-weight="400" font-style="normal" 
>
<path vector-effect="non-scaling-stroke" fill-rule="evenodd" d="M91.4288,52.0642 C92.1241,52.6483 93.021,53 94,53 C96.2091,53 98,51.2091 98,49 C98,46.7909 96.2091,45 94,45 C93.1462,45 92.355,45.2675 91.7054,45.7232 "/>
<polyline fill="none" vector-effect="non-scaling-stroke" points="116,16 124,16 " />
<polyline fill="none" vector-effect="non-scaling-stroke" points="116,16 116,0 " />
<polyline fill="none" vector-effect="non-scaling-stroke" points="94,45 116,16 " />
</g>

<g fill="none" stroke="#000080" stroke-opacity="1" stroke-width="2" stroke-linecap="square" stroke-linejoin="bevel" transform="matrix(1,0,0,1,0,0)"
font-family="Helvetica" font-size="12" font-weight="400" font-style="normal" 
>
<polyline fill="none" vector-effect="none" points="199,49 239,49 " />
<polyline fill="none" vector-effect="none" points="299,49 349,49 " />
</g>

<g fill="none" stroke="#000080" stroke-opacity="1" stroke-width="3" stroke-linecap="square" stroke-linejoin="bevel" transform="matrix(1,0,0,1,0,0)"
font-family="Helvetica" font-size="12" font-weight="630" font-style="normal" 
>
<text fill="#000080" fill-opacity="1" stroke="none" xml:space="preserve" x="349" y="11" font-family="Helvetica" font-size="12" font-weight="630" font-style="normal" 
 >vR</text>
</g>

<g fill="none" stroke="#800080" stroke-opacity="1" stroke-width="1" stroke-linecap="square" stroke-linejoin="bevel" transform="matrix(1,0,0,1,0,0)"
font-family="Helvetica" font-size="12" font-weight="630" font-style="normal" 
>
<path vector-effect="non-scaling-stroke" fill-rule="evenodd" d="M326.429,52.0642 C327.124,52.6483 328.021,53 329,53 C331.209,53 333,51.2091 333,49 C333,46.7909 331.209,45 329,45 C328.146,45 327.355,45.2675 326.705,45.7232 "/>
<polyline fill="none" vector-effect="non-scaling-stroke" points="346,16 354,16 " />
<polyline fill="none" vector-effect="non-scaling-stroke" points="346,16 346,0 " />
<polyline fill="none" vector-effect="non-scaling-stroke" points="329,45 346,16 " />
</g>

<g fill="none" stroke="#000080" stroke-opacity="1" stroke-width="2" stroke-linecap="square" stroke-linejoin="bevel" transform="matrix(1,0,0,1,0,0)"
font-family="Helvetica" font-size="12" font-weight="630" font-style="normal" 
>
<polyline fill="none" vector-effect="none" points="349,49 349,89 " />
</g>

<g fill="#000080" fill-opacity="1" stroke="none" transform="matrix(1,0,0,1,0,0)"
font-family="Helvetica" font-size="12" font-weight="630" font-style="normal" 
>
<path vector-effect="non-scaling-stroke" fill-rule="evenodd" d="M27,157 L31,157 L31,161 L27,161 L27,157"/>
</g>

<g fill="#000080" fill-opacity="1" stroke="none" transform="matrix(1,0,0,1,0,0)"
font-family="Helvetica" font-size="12" font-weight="630" font-style="normal" 
>
<path vector-effect="non-scaling-stroke" fill-rule="evenodd" d="M27,97 L31,97 L31,101 L27,101 L27,97"/>
</g>

<g fill="#000080" fill-opacity="1" stroke="none" transform="matrix(1,0,0,1,0,0)"
font-family="Helvetica" font-size="12" font-weight="630" font-style="normal" 
>
<path vector-effect="non-scaling-stroke" fill-rule="evenodd" d="M27,47 L31,47 L31,51 L27,51 L27,47"/>
</g>

<g fill="#000080" fill-opacity="1" stroke="none" transform="matrix(1,0,0,1,0,0)"
font-family="Helvetica" font-size="12" font-weight="630" font-style="normal" 
>
<path vector-effect="non-scaling-stroke" fill-rule="evenodd" d="M87,47 L91,47 L91,51 L87,51 L87,47"/>
</g>

<g fill="#000080" fill-opacity="1" stroke="none" transform="matrix(1,0,0,1,0,0)"
font-family="Helvetica" font-size="12" font-weight="630" font-style="normal" 
>
<path vector-effect="non-scaling-stroke" fill-rule="evenodd" d="M137,47 L141,47 L141,51 L137,51 L137,47"/>
</g>

<g fill="#000080" fill-opacity="1" stroke="none" transform="matrix(1,0,0,1,0,0)"
font-family="Helvetica" font-size="12" font-weight="630" font-style="normal" 
>
<path vector-effect="non-scaling-stroke" fill-rule="evenodd" d="M197,47 L201,47 L201,51 L197,51 L197,47"/>
</g>

<g fill="#000080" fill-opacity="1" stroke="none" transform="matrix(1,0,0,1,0,0)"
font-family="Helvetica" font-size="12" font-weight="630" font-style="normal" 
>
<path vector-effect="non-scaling-stroke" fill-rule="evenodd" d="M347,147 L351,147 L351,151 L347,151 L347,147"/>
</g>

<g fill="#000080" fill-opacity="1" stroke="none" transform="matrix(1,0,0,1,0,0)"
font-family="Helvetica" font-size="12" font-weight="630" font-style="normal" 
>
<path vector-effect="non-scaling-stroke" fill-rule="evenodd" d="M347,87 L351,87 L351,91 L347,91 L347,87"/>
</g>

<g fill="#000080" fill-opacity="1" stroke="none" transform="matrix(1,0,0,1,0,0)"
font-family="Helvetica" font-size="12" font-weight="630" font-style="normal" 
>
<path vector-effect="non-scaling-stroke" fill-rule="evenodd" d="M237,47 L241,47 L241,51 L237,51 L237,47"/>
</g>

<g fill="#000080" fill-opacity="1" stroke="none" transform="matrix(1,0,0,1,0,0)"
font-family="Helvetica" font-size="12" font-weight="630" font-style="normal" 
>
<path vector-effect="non-scaling-stroke" fill-rule="evenodd" d="M297,47 L301,47 L301,51 L297,51 L297,47"/>
</g>

<g fill="none" stroke="#000080" stroke-opacity="1" stroke-width="2" stroke-linecap="square" stroke-linejoin="bevel" transform="matrix(1,0,0,1,0,0)"
font-family="Helvetica" font-size="12" font-weight="630" font-style="normal" 
>
</g>

<g fill="none" stroke="#000000" stroke-opacity="1" stroke-width="1" stroke-linecap="square" stroke-linejoin="bevel" transform="matrix(1,0,0,1,79,179)"
font-family="Helvetica" font-size="12" font-weight="400" font-style="normal" 
>
<text fill="#000000" fill-opacity="1" stroke="none" xml:space="preserve" x="0" y="12" font-family="Helvetica" font-size="12" font-weight="400" font-style="normal" 
 >It is a simple series RCL circuit. </text>
<text fill="#000000" fill-opacity="1" stroke="none" xml:space="preserve" x="0" y="28" font-family="Helvetica" font-size="12" font-weight="400" font-style="normal" 
 >You can simulate it with Ngspice and Xyce. </text>
<text fill="#000000" fill-opacity="1" stroke="none" xml:space="preserve" x="0" y="44" font-family="Helvetica" font-size="12" font-weight="400" font-style="normal" 
 >AC and TRAN analysis are allowed.</text>
</g>

<g fill="none" stroke="#000080" stroke-opacity="1" stroke-width="2" stroke-linecap="square" stroke-linejoin="bevel" transform="matrix(1,0,0,1,0,0)"
font-family="Helvetica" font-size="12" font-weight="630" font-style="normal" 
>
</g>
</g>
</svg>
