<?xml version="1.0" encoding="UTF-8" standalone="no"?>
<svg
   xmlns:dc="http://purl.org/dc/elements/1.1/"
   xmlns:cc="http://creativecommons.org/ns#"
   xmlns:rdf="http://www.w3.org/1999/02/22-rdf-syntax-ns#"
   xmlns:svg="http://www.w3.org/2000/svg"
   xmlns="http://www.w3.org/2000/svg"
   xmlns:sodipodi="http://sodipodi.sourceforge.net/DTD/sodipodi-0.dtd"
   xmlns:inkscape="http://www.inkscape.org/namespaces/inkscape"
   width="684"
   height="370"
   version="1.2"
   id="svg2"
   inkscape:version="0.48.5 r10040"
   sodipodi:docname="RCL_tran_xyce.svg">
  <metadata
     id="metadata164">
    <rdf:RDF>
      <cc:Work
         rdf:about="">
        <dc:format>image/svg+xml</dc:format>
        <dc:type
           rdf:resource="http://purl.org/dc/dcmitype/StillImage" />
      </cc:Work>
    </rdf:RDF>
  </metadata>
  <sodipodi:namedview
     pagecolor="#ffffff"
     bordercolor="#666666"
     borderopacity="1"
     objecttolerance="10"
     gridtolerance="10"
     guidetolerance="10"
     inkscape:pageopacity="0"
     inkscape:pageshadow="2"
     inkscape:window-width="640"
     inkscape:window-height="480"
     id="namedview162"
     showgrid="false"
     fit-margin-top="0"
     fit-margin-left="0"
     fit-margin-right="0"
     fit-margin-bottom="0"
     inkscape:zoom="0.44327485"
     inkscape:cx="427.5"
     inkscape:cy="138.7496"
     inkscape:window-x="0"
     inkscape:window-y="0"
     inkscape:window-maximized="0"
     inkscape:current-layer="svg2" />
  <title
     id="title4">Qt Svg Document</title>
  <desc
     id="desc6">Generated with Qt</desc>
  <defs
     id="defs8" />
  <g
     id="g10"
     style="fill:none;stroke:#000000;stroke-width:1;stroke-linecap:square;stroke-linejoin:bevel">
    <g
       font-size="12"
       font-weight="400"
       font-style="normal"
       id="g12"
       style="font-size:12px;font-style:normal;font-weight:400;fill:#ffffff;fill-opacity:1;stroke:none;font-family:Helvetica">
      <path
         vector-effect="non-scaling-stroke"
         d="M 0,0 684,0 684,370 0,370 0,0"
         id="path14"
         inkscape:connector-curvature="0"
         style="fill-rule:evenodd" />
    </g>
    <g
       font-size="12"
       font-weight="400"
       font-style="normal"
       id="g16"
       style="font-size:12px;font-style:normal;font-weight:400;fill:none;stroke:#c0c0c0;stroke-width:1;stroke-linecap:square;stroke-linejoin:bevel;stroke-opacity:1;font-family:Helvetica">
      <polyline
         vector-effect="non-scaling-stroke"
         points="97,55 589,55 "
         id="polyline18"
         style="fill:none" />
      <polyline
         vector-effect="non-scaling-stroke"
         points="97,146 589,146 "
         id="polyline20"
         style="fill:none" />
      <polyline
         vector-effect="non-scaling-stroke"
         points="97,237 589,237 "
         id="polyline22"
         style="fill:none" />
      <polyline
         vector-effect="non-scaling-stroke"
         points="540,15 540,277 "
         id="polyline24"
         style="fill:none" />
      <polyline
         vector-effect="non-scaling-stroke"
         points="491,15 491,277 "
         id="polyline26"
         style="fill:none" />
      <polyline
         vector-effect="non-scaling-stroke"
         points="441,15 441,277 "
         id="polyline28"
         style="fill:none" />
      <polyline
         vector-effect="non-scaling-stroke"
         points="392,15 392,277 "
         id="polyline30"
         style="fill:none" />
      <polyline
         vector-effect="non-scaling-stroke"
         points="343,15 343,277 "
         id="polyline32"
         style="fill:none" />
      <polyline
         vector-effect="non-scaling-stroke"
         points="294,15 294,277 "
         id="polyline34"
         style="fill:none" />
      <polyline
         vector-effect="non-scaling-stroke"
         points="245,15 245,277 "
         id="polyline36"
         style="fill:none" />
      <polyline
         vector-effect="non-scaling-stroke"
         points="195,15 195,277 "
         id="polyline38"
         style="fill:none" />
      <polyline
         vector-effect="non-scaling-stroke"
         points="146,15 146,277 "
         id="polyline40"
         style="fill:none" />
    </g>
    <g
       font-size="12"
       font-weight="400"
       font-style="normal"
       id="g42"
       style="font-size:12px;font-style:normal;font-weight:400;fill:none;stroke:#000000;stroke-width:1;stroke-linecap:square;stroke-linejoin:bevel;stroke-opacity:1;font-family:Helvetica">
      <polyline
         vector-effect="non-scaling-stroke"
         points="97,272 97,282 "
         id="polyline44"
         style="fill:none" />
      <polyline
         vector-effect="non-scaling-stroke"
         points="146,272 146,282 "
         id="polyline46"
         style="fill:none" />
      <polyline
         vector-effect="non-scaling-stroke"
         points="195,272 195,282 "
         id="polyline48"
         style="fill:none" />
      <polyline
         vector-effect="non-scaling-stroke"
         points="245,272 245,282 "
         id="polyline50"
         style="fill:none" />
      <polyline
         vector-effect="non-scaling-stroke"
         points="294,272 294,282 "
         id="polyline52"
         style="fill:none" />
      <polyline
         vector-effect="non-scaling-stroke"
         points="343,272 343,282 "
         id="polyline54"
         style="fill:none" />
      <polyline
         vector-effect="non-scaling-stroke"
         points="392,272 392,282 "
         id="polyline56"
         style="fill:none" />
      <polyline
         vector-effect="non-scaling-stroke"
         points="441,272 441,282 "
         id="polyline58"
         style="fill:none" />
      <polyline
         vector-effect="non-scaling-stroke"
         points="491,272 491,282 "
         id="polyline60"
         style="fill:none" />
      <polyline
         vector-effect="non-scaling-stroke"
         points="540,272 540,282 "
         id="polyline62"
         style="fill:none" />
      <polyline
         vector-effect="non-scaling-stroke"
         points="589,272 589,282 "
         id="polyline64"
         style="fill:none" />
      <polyline
         vector-effect="non-scaling-stroke"
         points="92,237 102,237 "
         id="polyline66"
         style="fill:none" />
      <polyline
         vector-effect="non-scaling-stroke"
         points="92,146 102,146 "
         id="polyline68"
         style="fill:none" />
      <polyline
         vector-effect="non-scaling-stroke"
         points="92,55 102,55 "
         id="polyline70"
         style="fill:none" />
      <polyline
         vector-effect="non-scaling-stroke"
         points="97,15 589,15 "
         id="polyline72"
         style="fill:none" />
      <polyline
         vector-effect="non-scaling-stroke"
         points="589,15 589,277 "
         id="polyline74"
         style="fill:none" />
      <polyline
         vector-effect="non-scaling-stroke"
         points="97,277 589,277 "
         id="polyline76"
         style="fill:none" />
      <polyline
         vector-effect="non-scaling-stroke"
         points="97,15 97,277 "
         id="polyline78"
         style="fill:none" />
    </g>
    <g
       font-size="12"
       font-weight="400"
       font-style="normal"
       id="g80"
       style="font-size:12px;font-style:normal;font-weight:400;fill:none;stroke:#0000ff;stroke-width:1;stroke-linecap:square;stroke-linejoin:bevel;stroke-opacity:1;font-family:Helvetica">
      <path
         vector-effect="non-scaling-stroke"
         d="m 97,146 2.4478,-25.36 0.3059,-3.1 0.3063,-3.076 0.612,-6.068 0.612,-5.939 0.612,-5.7894 0.611,-5.6199 0.612,-5.4311 0.612,-5.2238 0.612,-4.9985 0.612,-4.7559 0.612,-4.4972 0.612,-4.2229 0.612,-3.9341 0.612,-3.6318 0.612,-3.3171 0.612,-2.991 0.612,-2.6545 0.612,-2.309 0.612,-1.9556 0.612,-1.5953 0.612,-1.2297 0.611,-0.8599 0.612,-0.487 0.612,-0.1125 0.612,0.2624 0.612,0.6364 0.612,1.0082 0.612,1.3765 0.612,1.7402 0.612,2.0978 0.612,2.4482 0.612,2.7902 0.612,3.1227 0.612,3.4444 0.612,3.7543 0.612,4.0513 0.612,4.3344 0.612,4.6026 0.611,4.8549 0.612,5.0907 0.612,5.3089 0.612,5.5089 0.612,5.69 0.612,5.8512 0.612,5.993 0.612,6.114 0.612,6.214 0.612,6.292 0.612,6.349 0.612,6.384 0.612,6.398 0.612,6.388 0.612,6.358 0.612,6.306 0.612,6.231 0.611,6.135 0.612,6.019 0.612,5.882 0.612,5.724 0.612,5.546 0.612,5.351 0.612,5.135 0.612,4.904 0.612,4.654 0.612,4.389 0.612,4.11 0.612,3.814 0.612,3.508 0.612,3.188 0.612,2.857 0.612,2.518 0.611,2.168 0.612,1.812 0.612,1.45 0.612,1.082 0.612,0.711 0.612,0.338 0.612,-0.038 0.612,-0.412 0.612,-0.785 0.612,-1.156 0.612,-1.523 0.612,-1.884 0.612,-2.239 0.612,-2.586 0.612,-2.924 0.612,-3.253 0.612,-3.57 0.611,-3.875 0.612,-4.166 0.612,-4.443 0.612,-4.706 0.612,-4.951 0.612,-5.18 0.612,-5.391 0.612,-5.584 0.612,-5.757 0.612,-5.91 0.612,-6.044 0.612,-6.157 0.612,-6.247 0.612,-6.318 0.612,-6.366 0.612,-6.392 0.611,-6.396 0.612,-6.379 0.612,-6.34 0.612,-6.278 0.612,-6.195 0.612,-6.092 0.612,-5.966 0.612,-5.8209 0.612,-5.6554 0.612,-5.4704 0.612,-5.2667 0.612,-5.045 0.612,-4.8058 0.612,-4.5502 0.612,-4.279 0.612,-3.993 0.612,-3.6933 0.611,-3.3811 0.612,-3.057 0.612,-2.7226 0.612,-2.3789 0.612,-2.0268 0.612,-1.6679 0.612,-1.3033 0.612,-0.9341 0.612,-0.5618 0.612,-0.1875 0.612,0.1875 0.612,0.5616 0.612,0.9341 0.612,1.3031 0.612,1.6679 0.612,2.0267 0.612,2.3788 0.611,2.7225 0.612,3.057 0.612,3.3809 0.612,3.6933 0.612,3.993 0.612,4.2789 0.612,4.5501 0.612,4.8058 0.612,5.0449 0.612,5.2666 0.612,5.4704 0.612,5.6553 0.612,5.8213 0.612,5.966 0.612,6.091 0.612,6.196 0.611,6.278 0.612,6.339 0.612,6.379 0.612,6.397 0.612,6.392 0.612,6.366 0.612,6.317 0.612,6.248 0.612,6.156 0.612,6.044 0.612,5.911 0.612,5.757 0.612,5.583 0.612,5.392 0.612,5.18 0.612,4.951 0.612,4.706 0.611,4.443 0.612,4.166 0.612,3.875 0.612,3.57 0.612,3.253 0.612,2.924 0.612,2.587 0.612,2.239 0.612,1.884 0.612,1.522 0.612,1.156 0.612,0.786 0.612,0.412 0.612,0.038 0.612,-0.338 0.612,-0.71 0.611,-1.083 0.612,-1.449 0.612,-1.812 0.612,-2.169 0.612,-2.517 0.612,-2.858 0.612,-3.187 0.612,-3.508 0.612,-3.815 0.612,-4.109 0.612,-4.389 0.612,-4.654 0.612,-4.903 0.612,-5.136 0.612,-5.351 0.612,-5.546 0.612,-5.724 0.611,-5.881 0.612,-6.019 0.612,-6.136 0.612,-6.231 0.612,-6.305 0.612,-6.358 0.612,-6.389 0.612,-6.397 0.612,-6.384 0.612,-6.349 0.612,-6.293 0.612,-6.213 0.612,-6.114 0.612,-5.993 0.612,-5.8518 0.612,-5.6901 0.612,-5.5089 0.611,-5.309 0.612,-5.0907 0.612,-4.855 0.612,-4.6026 0.612,-4.3345 0.612,-4.0513 0.612,-3.7544 0.612,-3.4445 0.612,-3.1228 0.612,-2.7903 0.612,-2.4483 0.612,-2.0979 0.612,-1.7402 0.612,-1.3766 0.612,-1.0083 0.612,-0.6365 0.611,-0.2624 0.612,0.1124 0.612,0.4869 0.612,0.8597 0.612,1.2296 0.612,1.5953 0.612,1.9555 0.612,2.3089 0.612,2.6545 0.612,2.9908 0.612,3.317 0.612,3.6318 0.612,3.9341 0.612,4.2228 0.612,4.4971 0.612,4.7559 0.612,4.9984 0.611,5.2237 0.612,5.4311 0.612,5.6198 0.612,5.7898 0.612,5.938 0.612,6.068 0.612,6.177 0.612,6.263 0.612,6.329 0.612,6.373 0.612,6.394 0.612,6.395 0.612,6.373 0.612,6.329 0.612,6.264 0.612,6.176 0.612,6.068 0.611,5.939 0.612,5.789 0.612,5.62 0.612,5.431 0.612,5.224 0.612,4.999 0.612,4.756 0.612,4.497 0.612,4.223 0.612,3.934 0.612,3.632 0.612,3.317 0.612,2.991 0.612,2.655 0.612,2.309 0.612,1.955 0.611,1.596 0.612,1.23 0.612,0.86 0.612,0.487 0.612,0.112 0.612,-0.262 0.612,-0.636 0.612,-1.009 0.612,-1.376 0.612,-1.74 0.612,-2.098 0.612,-2.448 0.612,-2.79 0.612,-3.123 0.612,-3.444 0.612,-3.754 0.612,-4.051 0.611,-4.335 0.612,-4.602 0.612,-4.855 0.612,-5.091 0.612,-5.309 0.612,-5.508 0.612,-5.69 0.612,-5.852 0.612,-5.993 0.612,-6.114 0.612,-6.213 0.612,-6.293 0.612,-6.349 0.612,-6.384 0.612,-6.397 0.612,-6.389 0.611,-6.358 0.612,-6.305 0.612,-6.231 0.612,-6.136 0.612,-6.019 0.612,-5.881 0.612,-5.7242 0.612,-5.5467 0.612,-5.3505 0.612,-5.1358 0.612,-4.9035 0.612,-4.6545 0.612,-4.3893 0.612,-4.1091 0.612,-3.8149 0.612,-3.5075 0.612,-3.188 0.611,-2.8576 0.612,-2.5175 0.612,-2.1686 0.612,-1.8123 0.612,-1.4498 0.612,-1.0823 0.612,-0.7111 0.612,-0.3374 0.612,0.0374 0.612,0.412 0.612,0.7854 0.612,1.1559 0.612,1.5225 0.612,1.8839 0.612,2.2388 0.612,2.586 0.611,2.9243 0.612,3.2527 0.612,3.5697 0.612,3.8746 0.612,4.1662 0.612,4.4434 0.612,4.7054 0.612,4.9512 0.612,5.1801 0.612,5.3911 0.612,5.5836 0.612,5.7574 0.612,5.91 0.612,6.044 0.612,6.156 0.612,6.248 0.612,6.317 0.611,6.366 0.612,6.392 0.612,6.397 0.612,6.379 0.612,6.339 0.612,6.279 0.612,6.195 0.612,6.091 0.612,5.967 0.612,5.821 0.612,5.655 0.612,5.47 0.612,5.267 0.612,5.045 0.612,4.806 0.612,4.55 0.611,4.279 0.612,3.993 0.612,3.694 0.612,3.381 0.612,3.057 0.612,2.723 0.612,2.379 0.612,2.027 0.612,1.668 0.612,1.303 0.612,0.934 0.612,0.562 0.612,0.188 0.612,-0.188 0.612,-0.561 0.612,-0.934 0.612,-1.303 0.611,-1.668 0.612,-2.027 0.612,-2.378 0.612,-2.723 0.612,-3.057 0.612,-3.381 0.612,-3.693 0.612,-3.993 0.612,-4.279 0.612,-4.55 0.612,-4.805 0.612,-5.045 0.612,-5.267 0.612,-5.47 0.612,-5.655 0.612,-5.821 0.612,-5.966 0.611,-6.092 0.612,-6.195 0.612,-6.278 0.612,-6.34 0.612,-6.379 0.612,-6.396 0.612,-6.392 0.612,-6.366 0.612,-6.318 0.612,-6.248 0.612,-6.156 0.612,-6.044 0.612,-5.91 0.612,-5.7574 0.612,-5.5838 0.612,-5.3912 0.612,-5.1802 0.611,-4.9514 0.612,-4.7055 0.612,-4.4437 0.612,-4.1663 0.612,-3.8749 0.612,-3.5699 0.612,-3.2529 0.612,-2.9246 0.612,-2.5862 0.612,-2.2391 0.612,-1.8841 0.612,-1.5228 0.612,-1.1562 0.612,-0.7856 0.612,-0.4123 0.612,-0.0376 0.611,0.3371 0.612,0.7109 0.612,1.082 0.612,1.4495 0.612,1.8121 0.612,2.1683 0.612,2.5173 0.612,2.8574 0.612,3.1878 0.612,3.5072 0.612,3.8147 0.612,4.1089 0.612,4.3891 0.612,4.6543 0.612,4.9034 0.612,5.1356 0.612,5.3503 0.611,5.5466 0.612,5.7242 0.612,5.881 0.612,6.019 0.612,6.135 0.612,6.231 0.612,6.306 0.612,6.358 0.612,6.388 0.612,6.398 0.612,6.384 0.612,6.349 0.612,6.292 0.612,6.214 0.612,6.114 0.612,5.993 0.611,5.851 0.612,5.691 0.612,5.509 0.612,5.309 0.612,5.09 0.612,4.855 0.612,4.603 0.612,4.335 0.612,4.051 0.612,3.754 0.612,3.445 0.612,3.123 0.612,2.79 0.612,2.449 0.612,2.098 0.612,1.74 0.612,1.377 0.611,1.008 0.612,0.637 0.612,0.262 0.612,-0.112 0.612,-0.487 0.612,-0.86 0.612,-1.229 0.612,-1.595 0.612,-1.956 0.612,-2.309 0.612,-2.654 0.612,-2.991 0.612,-3.317 0.612,-3.631 0.612,-3.934 0.612,-4.223 0.611,-4.497 0.612,-4.756 0.612,-4.998 0.612,-5.224 0.612,-5.431 0.612,-5.62 0.612,-5.789 0.612,-5.939 0.612,-6.068 0.612,-6.176 0.612,-6.263 0.612,-6.329 0.612,-6.373 0.612,-6.395 0.612,-6.395 0.612,-6.373 0.612,-6.329 0.611,-6.263 0.612,-6.176 0.612,-6.068 0.612,-5.939 0.612,-5.7897 0.612,-5.62 0.612,-5.4312 0.612,-5.2239 0.612,-4.9986 0.612,-4.7561 0.612,-4.4972 0.612,-4.223 0.612,-3.9343 0.612,-3.632 0.612,-3.3172 0.612,-2.9911 0.611,-2.6547 0.612,-2.3092 0.612,-1.9557 0.612,-1.5956 0.612,-1.2299 0.612,-0.86 0.612,-0.4871 0.612,-0.1127 0.612,0.2622 0.612,0.6362 0.612,1.008 0.612,1.3764 0.612,1.74 0.612,2.0976 0.612,2.4481 0.612,2.79 0.612,3.1226 0.611,3.4442 0.612,3.7542 0.612,4.0511 0.612,4.3343 0.612,4.6024 0.612,4.8549 0.612,5.0906 0.612,5.3088 0.612,5.5088 0.612,5.6899 0.612,5.8519 0.612,5.992 0.612,6.114 0.612,6.214 0.612,6.292 0.612,6.349 0.612,6.384 0.611,6.398 0.612,6.388 0.612,6.358 0.612,6.306 0.612,6.231 0.612,6.135 0.612,6.019 0.612,5.882 0.612,5.724 0.612,5.547 0.612,5.35 0.612,5.136 0.612,4.904 0.612,4.654 0.612,4.389 0.612,4.11 0.611,3.815 0.612,3.507 0.612,3.188 0.612,2.858 0.612,2.518 0.612,2.168 0.612,1.813 0.612,1.45 0.612,1.082 0.612,0.711 0.612,0.338 0.612,-0.038 0.612,-0.412 0.612,-0.785 0.612,-1.156 0.612,-1.522 0.612,-1.884 0.611,-2.239 0.612,-2.586 0.612,-2.924 0.612,-3.252 0.612,-3.57 0.612,-3.875 0.612,-4.166 0.612,-4.443 0.612,-4.705 0.612,-4.952 0.612,-5.18 0.612,-5.391 0.612,-5.583 0.612,-5.757 0.612,-5.911 0.612,-6.043 0.612,-6.157 0.611,-6.247 0.612,-6.318 0.612,-6.366 0.612,-6.392 0.612,-6.396 0.612,-6.379 0.612,-6.34 0.612,-6.278 0.612,-6.196 0.612,-6.091 0.612,-5.966 0.612,-5.8212 0.612,-5.6554 0.612,-5.4706 0.612,-5.2668 0.612,-5.045 0.611,-4.806 0.612,-4.5503 0.612,-4.2791 0.612,-3.9931 0.612,-3.6936 0.612,-3.3811 0.612,-3.0572 0.612,-2.7228 0.612,-2.379 0.612,-2.027 0.612,-1.6681 0.612,-1.3034 0.612,-0.9343 0.612,-0.562 0.612,-0.1877 0.612,0.1873 0.612,0.5615 0.611,0.9338 0.612,1.303 0.612,1.6677 0.612,2.0266 0.612,2.3786 0.612,2.7223 0.612,3.0569 0.612,3.3808 0.612,3.6931 0.612,3.9928 0.612,4.2788 0.612,4.55 0.612,4.8056 0.612,5.0448 0.612,5.2666 0.612,5.4703 0.611,5.6552 0.612,5.821 0.612,5.966 0.612,6.091 0.612,6.196 0.612,6.278 0.612,6.339 0.612,6.379 0.612,6.397 0.612,6.392 0.612,6.366 0.612,6.317 0.612,6.248 0.612,6.156 0.612,6.044 0.612,5.911 0.612,5.757 0.611,5.584 0.612,5.391 0.612,5.18 0.612,4.952 0.612,4.705 0.612,4.444 0.612,4.167 0.612,3.874 0.612,3.571 0.612,3.252 0.612,2.925 0.612,2.586 0.612,2.24 0.612,1.884 0.612,1.523 0.612,1.156 0.611,0.786 0.612,0.412 0.612,0.038 0.612,-0.337 0.612,-0.711 0.612,-1.082 0.612,-1.449 0.612,-1.812 0.612,-2.169 0.612,-2.517 0.612,-2.857 0.612,-3.188 0.612,-3.507 0.612,-3.815 0.612,-4.109 0.612,-4.389 0.612,-4.654 0.612,-4.903 0.611,-5.136 0.612,-5.35 0.612,-5.547 0.612,-5.723 0.612,-5.882 0.612,-6.018 0.612,-6.136 0.612,-6.231 0.612,-6.305 0.612,-6.358 0.612,-6.389 0.612,-6.397 0.612,-6.384 0.612,-6.349 0.612,-6.293 0.612,-6.214 0.611,-6.113 0.612,-5.993 0.612,-5.8521 0.612,-5.6901 0.612,-5.5091 0.612,-5.309 0.612,-5.0908 0.612,-4.8552 0.612,-4.6027 0.612,-4.3346 0.612,-4.0515 0.612,-3.7545 0.612,-3.4446 0.612,-3.123 0.612,-2.7904 0.612,-2.4485 0.611,-2.0981 0.612,-1.7404 0.612,-1.3767 0.612,-1.0085 0.612,-0.6367 0.612,-0.2626 0.612,0.1122 0.612,0.4867 0.612,0.8596 0.612,1.2295 0.612,1.5951 0.612,1.9553 0.612,2.3087 0.612,2.6543 0.612,2.9907 0.612,3.3169 0.611,3.6316 0.612,3.9339 0.612,4.2227 0.612,4.497 0.612,4.7558 0.612,4.9983 0.612,5.2236 0.612,5.431 0.612,5.6197 0.612,5.7895 0.612,5.938 0.612,6.068 0.612,6.177 0.612,6.263 0.612,6.329 0.612,6.373 0.612,6.394 0,0.005"
         id="path82"
         inkscape:connector-curvature="0" />
    </g>
    <g
       font-size="12"
       font-weight="400"
       font-style="normal"
       id="g84"
       style="font-size:12px;font-style:normal;font-weight:400;fill:none;stroke:#ff0000;stroke-width:1;stroke-linecap:square;stroke-linejoin:bevel;stroke-opacity:1;font-family:Helvetica">
      <path
         vector-effect="non-scaling-stroke"
         d="m 97,146 2.4478,-0.352 0.3059,-0.049 0.3063,-0.052 0.612,-0.119 0.612,-0.138 0.612,-0.158 0.611,-0.174 0.612,-0.191 0.612,-0.205 0.612,-0.217 0.612,-0.229 0.612,-0.237 0.612,-0.245 0.612,-0.25 0.612,-0.253 0.612,-0.254 0.612,-0.253 0.612,-0.249 0.612,-0.243 0.612,-0.236 0.612,-0.225 0.612,-0.214 0.611,-0.198 0.612,-0.183 0.612,-0.163 0.612,-0.144 0.612,-0.121 0.612,-0.096 0.612,-0.071 0.612,-0.044 0.612,-0.015 0.612,0.016 0.612,0.046 0.612,0.078 0.612,0.112 0.612,0.145 0.612,0.179 0.612,0.213 0.612,0.247 0.611,0.282 0.612,0.315 0.612,0.349 0.612,0.381 0.612,0.414 0.612,0.444 0.612,0.473 0.612,0.502 0.612,0.528 0.612,0.552 0.612,0.576 0.612,0.595 0.612,0.614 0.612,0.63 0.612,0.643 0.612,0.653 0.612,0.661 0.611,0.667 0.612,0.667 0.612,0.667 0.612,0.663 0.612,0.655 0.612,0.644 0.612,0.63 0.612,0.614 0.612,0.593 0.612,0.569 0.612,0.543 0.612,0.514 0.612,0.481 0.612,0.445 0.612,0.407 0.612,0.366 0.611,0.322 0.612,0.277 0.612,0.228 0.612,0.178 0.612,0.126 0.612,0.073 0.612,0.017 0.612,-0.04 0.612,-0.097 0.612,-0.155 0.612,-0.214 0.612,-0.274 0.612,-0.332 0.612,-0.392 0.612,-0.45 0.612,-0.508 0.612,-0.565 0.611,-0.621 0.612,-0.675 0.612,-0.727 0.612,-0.778 0.612,-0.826 0.612,-0.871 0.612,-0.915 0.612,-0.955 0.612,-0.991 0.612,-1.025 0.612,-1.055 0.612,-1.082 0.612,-1.104 0.612,-1.122 0.612,-1.136 0.612,-1.147 0.611,-1.151 0.612,-1.153 0.612,-1.149 0.612,-1.142 0.612,-1.128 0.612,-1.111 0.612,-1.088 0.612,-1.062 0.612,-1.031 0.612,-0.995 0.612,-0.955 0.612,-0.91 0.612,-0.861 0.612,-0.809 0.612,-0.751 0.612,-0.692 0.612,-0.627 0.611,-0.56 0.612,-0.49 0.612,-0.417 0.612,-0.34 0.612,-0.263 0.612,-0.182 0.612,-0.1 0.612,-0.017 0.612,0.067 0.612,0.153 0.612,0.239 0.612,0.325 0.612,0.41 0.612,0.496 0.612,0.58 0.612,0.664 0.612,0.745 0.611,0.825 0.612,0.902 0.612,0.978 0.612,1.05 0.612,1.118 0.612,1.184 0.612,1.246 0.612,1.304 0.612,1.357 0.612,1.405 0.612,1.45 0.612,1.489 0.612,1.522 0.612,1.551 0.612,1.573 0.612,1.59 0.611,1.601 0.612,1.607 0.612,1.606 0.612,1.598 0.612,1.586 0.612,1.567 0.612,1.541 0.612,1.51 0.612,1.472 0.612,1.43 0.612,1.38 0.612,1.325 0.612,1.265 0.612,1.2 0.612,1.129 0.612,1.053 0.612,0.973 0.611,0.888 0.612,0.799 0.612,0.707 0.612,0.61 0.612,0.511 0.612,0.41 0.612,0.304 0.612,0.198 0.612,0.09 0.612,-0.02 0.612,-0.13 0.612,-0.241 0.612,-0.352 0.612,-0.462 0.612,-0.572 0.612,-0.681 0.611,-0.787 0.612,-0.893 0.612,-0.994 0.612,-1.094 0.612,-1.19 0.612,-1.283 0.612,-1.371 0.612,-1.456 0.612,-1.534 0.612,-1.609 0.612,-1.677 0.612,-1.741 0.612,-1.798 0.612,-1.848 0.612,-1.893 0.612,-1.931 0.612,-1.961 0.611,-1.985 0.612,-2.001 0.612,-2.011 0.612,-2.013 0.612,-2.006 0.612,-1.994 0.612,-1.973 0.612,-1.945 0.612,-1.91 0.612,-1.867 0.612,-1.816 0.612,-1.76 0.612,-1.696 0.612,-1.625 0.612,-1.548 0.612,-1.464 0.612,-1.375 0.611,-1.28 0.612,-1.179 0.612,-1.074 0.612,-0.964 0.612,-0.849 0.612,-0.731 0.612,-0.61 0.612,-0.485 0.612,-0.357 0.612,-0.228 0.612,-0.096 0.612,0.035 0.612,0.169 0.612,0.302 0.612,0.434 0.612,0.567 0.611,0.697 0.612,0.827 0.612,0.953 0.612,1.077 0.612,1.198 0.612,1.315 0.612,1.428 0.612,1.536 0.612,1.64 0.612,1.737 0.612,1.829 0.612,1.915 0.612,1.995 0.612,2.066 0.612,2.132 0.612,2.19 0.612,2.239 0.611,2.281 0.612,2.316 0.612,2.34 0.612,2.358 0.612,2.367 0.612,2.366 0.612,2.358 0.612,2.34 0.612,2.313 0.612,2.279 0.612,2.236 0.612,2.184 0.612,2.124 0.612,2.056 0.612,1.979 0.612,1.897 0.612,1.805 0.611,1.707 0.612,1.602 0.612,1.491 0.612,1.374 0.612,1.251 0.612,1.123 0.612,0.991 0.612,0.853 0.612,0.713 0.612,0.569 0.612,0.422 0.612,0.273 0.612,0.123 0.612,-0.029 0.612,-0.182 0.612,-0.334 0.611,-0.486 0.612,-0.637 0.612,-0.786 0.612,-0.934 0.612,-1.077 0.612,-1.218 0.612,-1.355 0.612,-1.488 0.612,-1.616 0.612,-1.738 0.612,-1.855 0.612,-1.966 0.612,-2.069 0.612,-2.166 0.612,-2.255 0.612,-2.336 0.612,-2.41 0.611,-2.474 0.612,-2.53 0.612,-2.577 0.612,-2.614 0.612,-2.643 0.612,-2.661 0.612,-2.671 0.612,-2.67 0.612,-2.659 0.612,-2.64 0.612,-2.61 0.612,-2.571 0.612,-2.521 0.612,-2.464 0.612,-2.396 0.612,-2.32 0.611,-2.234 0.612,-2.141 0.612,-2.04 0.612,-1.929 0.612,-1.813 0.612,-1.689 0.612,-1.558 0.612,-1.421 0.612,-1.279 0.612,-1.131 0.612,-0.98 0.612,-0.822 0.612,-0.663 0.612,-0.5005 0.612,-0.3349 0.612,-0.1677 0.612,4e-4 0.611,0.1692 0.612,0.3381 0.612,0.5064 0.612,0.673 0.612,0.838 0.612,1 0.612,1.16 0.612,1.316 0.612,1.467 0.612,1.614 0.612,1.755 0.612,1.89 0.612,2.02 0.612,2.141 0.612,2.256 0.612,2.363 0.611,2.461 0.612,2.551 0.612,2.633 0.612,2.704 0.612,2.766 0.612,2.818 0.612,2.861 0.612,2.893 0.612,2.914 0.612,2.925 0.612,2.926 0.612,2.915 0.612,2.895 0.612,2.864 0.612,2.822 0.612,2.77 0.612,2.708 0.611,2.635 0.612,2.553 0.612,2.462 0.612,2.361 0.612,2.252 0.612,2.134 0.612,2.007 0.612,1.874 0.612,1.734 0.612,1.585 0.612,1.432 0.612,1.273 0.612,1.109 0.612,0.94 0.612,0.767 0.612,0.592 0.611,0.413 0.612,0.233 0.612,0.051 0.612,-0.132 0.612,-0.313 0.612,-0.496 0.612,-0.675 0.612,-0.855 0.612,-1.029 0.612,-1.203 0.612,-1.371 0.612,-1.535 0.612,-1.693 0.612,-1.847 0.612,-1.994 0.612,-2.134 0.612,-2.266 0.611,-2.392 0.612,-2.507 0.612,-2.616 0.612,-2.713 0.612,-2.803 0.612,-2.882 0.612,-2.95 0.612,-3.009 0.612,-3.056 0.612,-3.092 0.612,-3.119 0.612,-3.132 0.612,-3.136 0.612,-3.127 0.612,-3.108 0.612,-3.076 0.612,-3.035 0.611,-2.982 0.612,-2.918 0.612,-2.843 0.612,-2.758 0.612,-2.663 0.612,-2.559 0.612,-2.443 0.612,-2.32 0.612,-2.189 0.612,-2.047 0.612,-1.9 0.612,-1.7451 0.612,-1.583 0.612,-1.4154 0.612,-1.2421 0.612,-1.0642 0.612,-0.8819 0.611,-0.6962 0.612,-0.5076 0.612,-0.3167 0.612,-0.1244 0.612,0.0687 0.612,0.2621 0.612,0.4548 0.612,0.6462 0.612,0.8356 0.612,1.0226 0.612,1.206 0.612,1.3855 0.612,1.5603 0.612,1.7298 0.612,1.894 0.612,2.05 0.611,2.201 0.612,2.343 0.612,2.477 0.612,2.602 0.612,2.719 0.612,2.826 0.612,2.923 0.612,3.009 0.612,3.084 0.612,3.15 0.612,3.203 0.612,3.245 0.612,3.276 0.612,3.294 0.612,3.302 0.612,3.297 0.612,3.279 0.611,3.252 0.612,3.211 0.612,3.159 0.612,3.095 0.612,3.022 0.612,2.935 0.612,2.839 0.612,2.733 0.612,2.616 0.612,2.49 0.612,2.355 0.612,2.21 0.612,2.059 0.612,1.899 0.612,1.731 0.612,1.559 0.611,1.379 0.612,1.195 0.612,1.006 0.612,0.814 0.612,0.617 0.612,0.419 0.612,0.218 0.612,0.017 0.612,-0.184 0.612,-0.386 0.612,-0.586 0.612,-0.785 0.612,-0.98 0.612,-1.173 0.612,-1.362 0.612,-1.545 0.612,-1.725 0.611,-1.897 0.612,-2.063 0.612,-2.222 0.612,-2.373 0.612,-2.516 0.612,-2.65 0.612,-2.775 0.612,-2.89 0.612,-2.995 0.612,-3.088 0.612,-3.172 0.612,-3.243 0.612,-3.304 0.612,-3.352 0.612,-3.389 0.612,-3.414 0.611,-3.425 0.612,-3.426 0.612,-3.413 0.612,-3.388 0.612,-3.352 0.612,-3.304 0.612,-3.242 0.612,-3.17 0.612,-3.087 0.612,-2.991 0.612,-2.886 0.612,-2.769 0.612,-2.644 0.612,-2.507 0.612,-2.362 0.612,-2.209 0.612,-2.0474 0.611,-1.878 0.612,-1.7019 0.612,-1.5197 0.612,-1.3316 0.612,-1.1388 0.612,-0.9416 0.612,-0.7409 0.612,-0.5373 0.612,-0.3315 0.612,-0.1246 0.612,0.0833 0.612,0.2908 0.612,0.4977 0.612,0.7028 0.612,0.9057 0.612,1.1054 0.611,1.3016 0.612,1.493 0.612,1.6795 0.612,1.86 0.612,2.0341 0.612,2.2014 0.612,2.36 0.612,2.511 0.612,2.653 0.612,2.786 0.612,2.908 0.612,3.021 0.612,3.123 0.612,3.214 0.612,3.293 0.612,3.361 0.612,3.416 0.611,3.46 0.612,3.49 0.612,3.51 0.612,3.516 0.612,3.509 0.612,3.491 0.612,3.459 0.612,3.416 0.612,3.359 0.612,3.291 0.612,3.212 0.612,3.12 0.612,3.017 0.612,2.905 0.612,2.78 0.612,2.646 0.612,2.503 0.611,2.351 0.612,2.19 0.612,2.02 0.612,1.845 0.612,1.662 0.612,1.473 0.612,1.278 0.612,1.08 0.612,0.876 0.612,0.671 0.612,0.462 0.612,0.251 0.612,0.04 0.612,-0.172 0.612,-0.383 0.612,-0.593 0.611,-0.801 0.612,-1.007 0.612,-1.208 0.612,-1.406 0.612,-1.598 0.612,-1.785 0.612,-1.967 0.612,-2.14 0.612,-2.306 0.612,-2.465 0.612,-2.614 0.612,-2.755 0.612,-2.884 0.612,-3.006 0.612,-3.114 0.612,-3.214 0.612,-3.3 0.611,-3.376 0.612,-3.44 0.612,-3.49 0.612,-3.53 0.612,-3.555 0.612,-3.57 0.612,-3.57 0.612,-3.558 0.612,-3.534 0.612,-3.497 0.612,-3.448 0.612,-3.385 0.612,-3.311 0.612,-3.226 0.612,-3.129 0.612,-3.02 0.612,-2.901 0.611,-2.771 0.612,-2.632 0.612,-2.483 0.612,-2.3256 0.612,-2.1592 0.612,-1.9853 0.612,-1.8044 0.612,-1.617 0.612,-1.4238 0.612,-1.2255 0.612,-1.0227 0.612,-0.8162 0.612,-0.6069 0.612,-0.3952 0.612,-0.1822 0.612,0.0316 0.611,0.2454 0.612,0.4582 0.612,0.6696 0.612,0.8785 0.612,1.0844 0.612,1.2866 0.612,1.4841 0.612,1.6764 0.612,1.8629 0.612,2.0427 0.612,2.2153 0.612,2.3803 0.612,2.536 0.612,2.684 0.612,2.822 0.612,2.949 0.612,3.067 0.611,3.173 0.612,3.269 0.612,3.352 0.612,3.424 0.612,3.484 0.612,3.531 0.612,3.566 0.612,3.587 0.612,3.598 0.612,3.593 0.612,3.578 0.612,3.548 0.612,3.507 0.612,3.454 0.612,3.387 0.612,3.308 0.611,3.219 0.612,3.118 0.612,3.005 0.612,2.881 0.612,2.749 0.612,2.605 0.612,2.453 0.612,2.292 0.612,2.123 0.612,1.946 0.612,1.762 0.612,1.573 0.612,1.377 0.612,1.177 0.612,0.972 0.612,0.764 0.612,0.553 0.611,0.341 0.612,0.127 0.612,-0.087 0.612,-0.301 0.612,-0.514 0.612,-0.725 0.612,-0.934 0.612,-1.138 0.612,-1.34 0.612,-1.537 0.612,-1.727 0.612,-1.912 0.612,-2.089 0.612,-2.261 0.612,-2.423 0.612,-2.577 0.611,-2.722 0.612,-2.857 0.612,-2.982 0.612,-3.096 0.612,-3.2 0.612,-3.292 0.612,-3.373 0.612,-3.441 0.612,-3.497 0.612,-3.542 0.612,-3.573 0.612,-3.591 0.612,-3.598 0.612,-3.591 0.612,-3.572 0.612,-3.539 0.612,-3.495 0.612,-3.439 0.611,-3.369 0.612,-3.288 0.612,-3.196 0.612,-3.092 0.612,-2.977 0.612,-2.852 0.612,-2.716 0.612,-2.572 0.612,-2.418 0.612,-2.2549 0.612,-2.0848 0.612,-1.9071 0.612,-1.7226 0.612,-1.5321 0.612,-1.3363 0.612,-1.1357 0.611,-0.9312 0.612,-0.7234 0.612,-0.5133 0.612,-0.3012 0.612,-0.0881 0.612,0.1251 0.612,0.3378 0.612,0.5495 0.612,0.7589 0.612,0.9658 0.612,1.169 0.612,1.3682 0.612,1.5625 0.612,1.7511 0.612,1.9336 0.612,2.1092 0.611,2.277 0.612,2.437 0.612,2.589 0.612,2.73 0.612,2.864 0.612,2.985 0.612,3.097 0.612,3.198 0.612,3.287 0.612,3.365 0.612,3.431 0.612,3.485 0.612,3.527 0.612,3.555 0.612,3.572 0.612,3.575 0.611,3.567 0.612,3.546 0.612,3.512 0.612,3.465 0.612,3.408 0.612,3.337 0.612,3.254 0.612,3.162 0.612,3.056 0.612,2.941 0.612,2.816 0.612,2.68 0.612,2.535 0.612,2.381 0.612,2.219 0.612,2.049 0.612,1.872 0,0.001"
         id="path86"
         inkscape:connector-curvature="0" />
    </g>
    <g
       transform="translate(93,295)"
       font-size="12"
       font-weight="400"
       font-style="normal"
       id="g88"
       style="font-size:12px;font-style:normal;font-weight:400;fill:none;stroke:#000000;stroke-width:1;stroke-linecap:square;stroke-linejoin:bevel;stroke-opacity:1;font-family:Helvetica">
      <text
         xml:space="preserve"
         x="0"
         y="0"
         font-size="12"
         font-weight="400"
         font-style="normal"
         id="text90"
         style="font-size:12px;font-style:normal;font-weight:400;fill:#000000;fill-opacity:1;stroke:none;font-family:Helvetica">0</text>
    </g>
    <g
       transform="translate(130,295)"
       font-size="12"
       font-weight="400"
       font-style="normal"
       id="g92"
       style="font-size:12px;font-style:normal;font-weight:400;fill:none;stroke:#000000;stroke-width:1;stroke-linecap:square;stroke-linejoin:bevel;stroke-opacity:1;font-family:Helvetica">
      <text
         xml:space="preserve"
         x="0"
         y="0"
         font-size="12"
         font-weight="400"
         font-style="normal"
         id="text94"
         style="font-size:12px;font-style:normal;font-weight:400;fill:#000000;fill-opacity:1;stroke:none;font-family:Helvetica">1e-7</text>
    </g>
    <g
       transform="translate(179,295)"
       font-size="12"
       font-weight="400"
       font-style="normal"
       id="g96"
       style="font-size:12px;font-style:normal;font-weight:400;fill:none;stroke:#000000;stroke-width:1;stroke-linecap:square;stroke-linejoin:bevel;stroke-opacity:1;font-family:Helvetica">
      <text
         xml:space="preserve"
         x="0"
         y="0"
         font-size="12"
         font-weight="400"
         font-style="normal"
         id="text98"
         style="font-size:12px;font-style:normal;font-weight:400;fill:#000000;fill-opacity:1;stroke:none;font-family:Helvetica">2e-7</text>
    </g>
    <g
       transform="translate(229,295)"
       font-size="12"
       font-weight="400"
       font-style="normal"
       id="g100"
       style="font-size:12px;font-style:normal;font-weight:400;fill:none;stroke:#000000;stroke-width:1;stroke-linecap:square;stroke-linejoin:bevel;stroke-opacity:1;font-family:Helvetica">
      <text
         xml:space="preserve"
         x="0"
         y="0"
         font-size="12"
         font-weight="400"
         font-style="normal"
         id="text102"
         style="font-size:12px;font-style:normal;font-weight:400;fill:#000000;fill-opacity:1;stroke:none;font-family:Helvetica">3e-7</text>
    </g>
    <g
       transform="translate(278,295)"
       font-size="12"
       font-weight="400"
       font-style="normal"
       id="g104"
       style="font-size:12px;font-style:normal;font-weight:400;fill:none;stroke:#000000;stroke-width:1;stroke-linecap:square;stroke-linejoin:bevel;stroke-opacity:1;font-family:Helvetica">
      <text
         xml:space="preserve"
         x="0"
         y="0"
         font-size="12"
         font-weight="400"
         font-style="normal"
         id="text106"
         style="font-size:12px;font-style:normal;font-weight:400;fill:#000000;fill-opacity:1;stroke:none;font-family:Helvetica">4e-7</text>
    </g>
    <g
       transform="translate(327,295)"
       font-size="12"
       font-weight="400"
       font-style="normal"
       id="g108"
       style="font-size:12px;font-style:normal;font-weight:400;fill:none;stroke:#000000;stroke-width:1;stroke-linecap:square;stroke-linejoin:bevel;stroke-opacity:1;font-family:Helvetica">
      <text
         xml:space="preserve"
         x="0"
         y="0"
         font-size="12"
         font-weight="400"
         font-style="normal"
         id="text110"
         style="font-size:12px;font-style:normal;font-weight:400;fill:#000000;fill-opacity:1;stroke:none;font-family:Helvetica">5e-7</text>
    </g>
    <g
       transform="translate(376,295)"
       font-size="12"
       font-weight="400"
       font-style="normal"
       id="g112"
       style="font-size:12px;font-style:normal;font-weight:400;fill:none;stroke:#000000;stroke-width:1;stroke-linecap:square;stroke-linejoin:bevel;stroke-opacity:1;font-family:Helvetica">
      <text
         xml:space="preserve"
         x="0"
         y="0"
         font-size="12"
         font-weight="400"
         font-style="normal"
         id="text114"
         style="font-size:12px;font-style:normal;font-weight:400;fill:#000000;fill-opacity:1;stroke:none;font-family:Helvetica">6e-7</text>
    </g>
    <g
       transform="translate(425,295)"
       font-size="12"
       font-weight="400"
       font-style="normal"
       id="g116"
       style="font-size:12px;font-style:normal;font-weight:400;fill:none;stroke:#000000;stroke-width:1;stroke-linecap:square;stroke-linejoin:bevel;stroke-opacity:1;font-family:Helvetica">
      <text
         xml:space="preserve"
         x="0"
         y="0"
         font-size="12"
         font-weight="400"
         font-style="normal"
         id="text118"
         style="font-size:12px;font-style:normal;font-weight:400;fill:#000000;fill-opacity:1;stroke:none;font-family:Helvetica">7e-7</text>
    </g>
    <g
       transform="translate(475,295)"
       font-size="12"
       font-weight="400"
       font-style="normal"
       id="g120"
       style="font-size:12px;font-style:normal;font-weight:400;fill:none;stroke:#000000;stroke-width:1;stroke-linecap:square;stroke-linejoin:bevel;stroke-opacity:1;font-family:Helvetica">
      <text
         xml:space="preserve"
         x="0"
         y="0"
         font-size="12"
         font-weight="400"
         font-style="normal"
         id="text122"
         style="font-size:12px;font-style:normal;font-weight:400;fill:#000000;fill-opacity:1;stroke:none;font-family:Helvetica">8e-7</text>
    </g>
    <g
       transform="translate(524,295)"
       font-size="12"
       font-weight="400"
       font-style="normal"
       id="g124"
       style="font-size:12px;font-style:normal;font-weight:400;fill:none;stroke:#000000;stroke-width:1;stroke-linecap:square;stroke-linejoin:bevel;stroke-opacity:1;font-family:Helvetica">
      <text
         xml:space="preserve"
         x="0"
         y="0"
         font-size="12"
         font-weight="400"
         font-style="normal"
         id="text126"
         style="font-size:12px;font-style:normal;font-weight:400;fill:#000000;fill-opacity:1;stroke:none;font-family:Helvetica">9e-7</text>
    </g>
    <g
       transform="translate(573,295)"
       font-size="12"
       font-weight="400"
       font-style="normal"
       id="g128"
       style="font-size:12px;font-style:normal;font-weight:400;fill:none;stroke:#000000;stroke-width:1;stroke-linecap:square;stroke-linejoin:bevel;stroke-opacity:1;font-family:Helvetica">
      <text
         xml:space="preserve"
         x="0"
         y="0"
         font-size="12"
         font-weight="400"
         font-style="normal"
         id="text130"
         style="font-size:12px;font-style:normal;font-weight:400;fill:#000000;fill-opacity:1;stroke:none;font-family:Helvetica">1e-6</text>
    </g>
    <g
       transform="translate(62,243)"
       font-size="12"
       font-weight="400"
       font-style="normal"
       id="g132"
       style="font-size:12px;font-style:normal;font-weight:400;fill:none;stroke:#000000;stroke-width:1;stroke-linecap:square;stroke-linejoin:bevel;stroke-opacity:1;font-family:Helvetica">
      <text
         xml:space="preserve"
         x="0"
         y="0"
         font-size="12"
         font-weight="400"
         font-style="normal"
         id="text134"
         style="font-size:12px;font-style:normal;font-weight:400;fill:#000000;fill-opacity:1;stroke:none;font-family:Helvetica">-0.5</text>
    </g>
    <g
       transform="translate(81,152)"
       font-size="12"
       font-weight="400"
       font-style="normal"
       id="g136"
       style="font-size:12px;font-style:normal;font-weight:400;fill:none;stroke:#000000;stroke-width:1;stroke-linecap:square;stroke-linejoin:bevel;stroke-opacity:1;font-family:Helvetica">
      <text
         xml:space="preserve"
         x="0"
         y="0"
         font-size="12"
         font-weight="400"
         font-style="normal"
         id="text138"
         style="font-size:12px;font-style:normal;font-weight:400;fill:#000000;fill-opacity:1;stroke:none;font-family:Helvetica">0</text>
    </g>
    <g
       transform="translate(67,61)"
       font-size="12"
       font-weight="400"
       font-style="normal"
       id="g140"
       style="font-size:12px;font-style:normal;font-weight:400;fill:none;stroke:#000000;stroke-width:1;stroke-linecap:square;stroke-linejoin:bevel;stroke-opacity:1;font-family:Helvetica">
      <text
         xml:space="preserve"
         x="0"
         y="0"
         font-size="12"
         font-weight="400"
         font-style="normal"
         id="text142"
         style="font-size:12px;font-style:normal;font-weight:400;fill:#000000;fill-opacity:1;stroke:none;font-family:Helvetica">0.5</text>
    </g>
    <g
       transform="translate(324,315)"
       font-size="12"
       font-weight="400"
       font-style="normal"
       id="g144"
       style="font-size:12px;font-style:normal;font-weight:400;fill:none;stroke:#0000ff;stroke-width:1;stroke-linecap:square;stroke-linejoin:bevel;stroke-opacity:1;font-family:Helvetica">
      <text
         xml:space="preserve"
         x="0"
         y="0"
         font-size="12"
         font-weight="400"
         font-style="normal"
         id="text146"
         style="font-size:12px;font-style:normal;font-weight:400;fill:#0000ff;fill-opacity:1;stroke:none;font-family:Helvetica">TIME</text>
    </g>
    <g
       transform="translate(324,335)"
       font-size="12"
       font-weight="400"
       font-style="normal"
       id="g148"
       style="font-size:12px;font-style:normal;font-weight:400;fill:none;stroke:#ff0000;stroke-width:1;stroke-linecap:square;stroke-linejoin:bevel;stroke-opacity:1;font-family:Helvetica">
      <text
         xml:space="preserve"
         x="0"
         y="0"
         font-size="12"
         font-weight="400"
         font-style="normal"
         id="text150"
         style="font-size:12px;font-style:normal;font-weight:400;fill:#ff0000;fill-opacity:1;stroke:none;font-family:Helvetica">TIME</text>
    </g>
    <g
       transform="matrix(0,-1,1,0,55,206)"
       font-size="12"
       font-weight="400"
       font-style="normal"
       id="g152"
       style="font-size:12px;font-style:normal;font-weight:400;fill:none;stroke:#0000ff;stroke-width:1;stroke-linecap:square;stroke-linejoin:bevel;stroke-opacity:1;font-family:Helvetica">
      <text
         xml:space="preserve"
         x="0"
         y="0"
         font-size="12"
         font-weight="400"
         font-style="normal"
         id="text154"
         style="font-size:12px;font-style:normal;font-weight:400;fill:#0000ff;fill-opacity:1;stroke:none;font-family:Helvetica">xyce/tran.V(VIN)</text>
    </g>
    <g
       transform="matrix(0,-1,1,0,35,203)"
       font-size="12"
       font-weight="400"
       font-style="normal"
       id="g156"
       style="font-size:12px;font-style:normal;font-weight:400;fill:none;stroke:#ff0000;stroke-width:1;stroke-linecap:square;stroke-linejoin:bevel;stroke-opacity:1;font-family:Helvetica">
      <text
         xml:space="preserve"
         x="0"
         y="0"
         font-size="12"
         font-weight="400"
         font-style="normal"
         id="text158"
         style="font-size:12px;font-style:normal;font-weight:400;fill:#ff0000;fill-opacity:1;stroke:none;font-family:Helvetica">xyce/tran.V(VR)</text>
    </g>
    <g
       font-size="12"
       font-weight="400"
       font-style="normal"
       id="g160"
       style="font-size:12px;font-style:normal;font-weight:400;fill:none;stroke:#ff0000;stroke-width:1;stroke-linecap:square;stroke-linejoin:bevel;stroke-opacity:1;font-family:Helvetica" />
  </g>
</svg>
