<?xml version="1.0" encoding="UTF-8" standalone="no"?>
<svg
   xmlns:dc="http://purl.org/dc/elements/1.1/"
   xmlns:cc="http://creativecommons.org/ns#"
   xmlns:rdf="http://www.w3.org/1999/02/22-rdf-syntax-ns#"
   xmlns:svg="http://www.w3.org/2000/svg"
   xmlns="http://www.w3.org/2000/svg"
   xmlns:sodipodi="http://sodipodi.sourceforge.net/DTD/sodipodi-0.dtd"
   xmlns:inkscape="http://www.inkscape.org/namespaces/inkscape"
   width="488"
   height="356"
   version="1.2"
   id="svg2"
   inkscape:version="0.48.5 r10040"
   sodipodi:docname="RCL_ac.svg">
  <metadata
     id="metadata122">
    <rdf:RDF>
      <cc:Work
         rdf:about="">
        <dc:format>image/svg+xml</dc:format>
        <dc:type
           rdf:resource="http://purl.org/dc/dcmitype/StillImage" />
      </cc:Work>
    </rdf:RDF>
  </metadata>
  <sodipodi:namedview
     pagecolor="#ffffff"
     bordercolor="#666666"
     borderopacity="1"
     objecttolerance="10"
     gridtolerance="10"
     guidetolerance="10"
     inkscape:pageopacity="0"
     inkscape:pageshadow="2"
     inkscape:window-width="1280"
     inkscape:window-height="1005"
     id="namedview120"
     showgrid="false"
     fit-margin-top="0"
     fit-margin-left="0"
     fit-margin-right="0"
     fit-margin-bottom="0"
     inkscape:zoom="0.53033661"
     inkscape:cx="305.00079"
     inkscape:cy="133.4998"
     inkscape:window-x="-4"
     inkscape:window-y="-6"
     inkscape:window-maximized="1"
     inkscape:current-layer="svg2" />
  <title
     id="title4">Qt Svg Document</title>
  <desc
     id="desc6">Generated with Qt</desc>
  <defs
     id="defs8" />
  <g
     id="g10"
     style="fill:none;stroke:#000000;stroke-width:1;stroke-linecap:square;stroke-linejoin:bevel">
    <g
       font-size="12"
       font-weight="400"
       font-style="normal"
       id="g12"
       style="font-size:12px;font-style:normal;font-weight:400;fill:#ffffff;fill-opacity:1;stroke:none;font-family:Helvetica">
      <path
         vector-effect="non-scaling-stroke"
         d="M 0,0 488,0 488,356 0,356 0,0"
         id="path14"
         inkscape:connector-curvature="0"
         style="fill-rule:evenodd" />
    </g>
    <g
       font-size="12"
       font-weight="400"
       font-style="normal"
       id="g16"
       style="font-size:12px;font-style:normal;font-weight:400;fill:none;stroke:#c0c0c0;stroke-width:1;stroke-linecap:square;stroke-linejoin:bevel;stroke-opacity:1;font-family:Helvetica">
      <polyline
         vector-effect="non-scaling-stroke"
         points="90,37 414,37 "
         id="polyline18"
         style="fill:none" />
      <polyline
         vector-effect="non-scaling-stroke"
         points="90,94 414,94 "
         id="polyline20"
         style="fill:none" />
      <polyline
         vector-effect="non-scaling-stroke"
         points="90,150 414,150 "
         id="polyline22"
         style="fill:none" />
      <polyline
         vector-effect="non-scaling-stroke"
         points="90,206 414,206 "
         id="polyline24"
         style="fill:none" />
      <polyline
         vector-effect="non-scaling-stroke"
         points="90,262 414,262 "
         id="polyline26"
         style="fill:none" />
      <polyline
         vector-effect="non-scaling-stroke"
         points="342,15 342,283 "
         id="polyline28"
         style="fill:none" />
      <polyline
         vector-effect="non-scaling-stroke"
         points="270,15 270,283 "
         id="polyline30"
         style="fill:none" />
      <polyline
         vector-effect="non-scaling-stroke"
         points="198,15 198,283 "
         id="polyline32"
         style="fill:none" />
      <polyline
         vector-effect="non-scaling-stroke"
         points="126,15 126,283 "
         id="polyline34"
         style="fill:none" />
    </g>
    <g
       font-size="12"
       font-weight="400"
       font-style="normal"
       id="g36"
       style="font-size:12px;font-style:normal;font-weight:400;fill:none;stroke:#000000;stroke-width:1;stroke-linecap:square;stroke-linejoin:bevel;stroke-opacity:1;font-family:Helvetica">
      <polyline
         vector-effect="non-scaling-stroke"
         points="126,278 126,288 "
         id="polyline38"
         style="fill:none" />
      <polyline
         vector-effect="non-scaling-stroke"
         points="198,278 198,288 "
         id="polyline40"
         style="fill:none" />
      <polyline
         vector-effect="non-scaling-stroke"
         points="270,278 270,288 "
         id="polyline42"
         style="fill:none" />
      <polyline
         vector-effect="non-scaling-stroke"
         points="342,278 342,288 "
         id="polyline44"
         style="fill:none" />
      <polyline
         vector-effect="non-scaling-stroke"
         points="414,278 414,288 "
         id="polyline46"
         style="fill:none" />
      <polyline
         vector-effect="non-scaling-stroke"
         points="85,262 95,262 "
         id="polyline48"
         style="fill:none" />
      <polyline
         vector-effect="non-scaling-stroke"
         points="85,206 95,206 "
         id="polyline50"
         style="fill:none" />
      <polyline
         vector-effect="non-scaling-stroke"
         points="85,150 95,150 "
         id="polyline52"
         style="fill:none" />
      <polyline
         vector-effect="non-scaling-stroke"
         points="85,94 95,94 "
         id="polyline54"
         style="fill:none" />
      <polyline
         vector-effect="non-scaling-stroke"
         points="85,37 95,37 "
         id="polyline56"
         style="fill:none" />
      <polyline
         vector-effect="non-scaling-stroke"
         points="90,15 414,15 "
         id="polyline58"
         style="fill:none" />
      <polyline
         vector-effect="non-scaling-stroke"
         points="414,15 414,283 "
         id="polyline60"
         style="fill:none" />
      <polyline
         vector-effect="non-scaling-stroke"
         points="90,283 414,283 "
         id="polyline62"
         style="fill:none" />
      <polyline
         vector-effect="non-scaling-stroke"
         points="90,15 90,283 "
         id="polyline64"
         style="fill:none" />
    </g>
    <g
       font-size="12"
       font-weight="400"
       font-style="normal"
       id="g66"
       style="font-size:12px;font-style:normal;font-weight:400;fill:none;stroke:#0000ff;stroke-width:1;stroke-linecap:square;stroke-linejoin:bevel;stroke-opacity:1;font-family:Helvetica">
      <path
         vector-effect="non-scaling-stroke"
         d="m 90,260.667 0.3243,-0.016 0.3244,-0.016 0.3243,-0.017 0.3243,-0.016 0.3243,-0.016 0.3243,-0.016 0.3244,-0.016 0.3243,-0.016 0.3243,-0.016 0.3243,-0.016 0.3244,-0.017 0.3243,-0.016 0.3243,-0.016 0.3243,-0.016 0.3244,-0.016 0.3243,-0.017 0.3243,-0.016 0.3243,-0.016 0.3244,-0.017 0.3243,-0.016 0.3243,-0.016 0.3243,-0.017 0.3244,-0.016 0.3243,-0.016 0.3243,-0.017 0.3243,-0.016 0.3244,-0.017 0.3243,-0.016 0.3243,-0.017 0.3243,-0.016 0.3243,-0.017 0.324,-0.016 0.325,-0.017 0.324,-0.016 0.324,-0.017 0.325,-0.016 0.324,-0.017 0.324,-0.017 0.325,-0.016 0.324,-0.017 0.324,-0.017 0.325,-0.016 0.324,-0.017 0.324,-0.017 0.325,-0.017 0.324,-0.017 0.324,-0.016 0.325,-0.017 0.324,-0.017 0.324,-0.017 0.325,-0.017 0.324,-0.017 0.324,-0.017 0.325,-0.017 0.324,-0.017 0.324,-0.017 0.324,-0.017 0.325,-0.017 0.324,-0.017 0.324,-0.017 0.325,-0.017 0.324,-0.017 0.324,-0.017 0.325,-0.018 0.324,-0.017 0.324,-0.017 0.325,-0.017 0.324,-0.018 0.324,-0.017 0.325,-0.017 0.324,-0.018 0.324,-0.017 0.325,-0.018 0.324,-0.017 0.324,-0.017 0.325,-0.018 0.324,-0.017 0.324,-0.018 0.325,-0.018 0.324,-0.017 0.324,-0.018 0.325,-0.017 0.324,-0.018 0.324,-0.018 0.325,-0.018 0.324,-0.017 0.324,-0.018 0.325,-0.018 0.324,-0.018 0.324,-0.018 0.325,-0.017 0.324,-0.018 0.324,-0.018 0.324,-0.018 0.325,-0.018 0.324,-0.018 0.324,-0.018 0.325,-0.019 0.324,-0.018 0.324,-0.018 0.325,-0.018 0.324,-0.018 0.324,-0.018 0.325,-0.019 0.324,-0.018 0.324,-0.018 0.325,-0.019 0.324,-0.018 0.324,-0.019 0.325,-0.018 0.324,-0.019 0.324,-0.018 0.325,-0.019 0.324,-0.018 0.324,-0.019 0.325,-0.018 0.324,-0.019 0.324,-0.019 0.325,-0.019 0.324,-0.018 0.324,-0.019 0.325,-0.019 0.324,-0.019 0.324,-0.019 0.325,-0.019 0.324,-0.019 0.324,-0.019 0.325,-0.019 0.324,-0.019 0.324,-0.019 0.324,-0.02 0.325,-0.019 0.324,-0.019 0.324,-0.019 0.325,-0.02 0.324,-0.019 0.324,-0.019 0.325,-0.02 0.324,-0.019 0.324,-0.02 0.325,-0.019 0.324,-0.02 0.324,-0.02 0.325,-0.019 0.324,-0.02 0.324,-0.02 0.325,-0.02 0.324,-0.019 0.324,-0.02 0.325,-0.02 0.324,-0.02 0.324,-0.02 0.325,-0.02 0.324,-0.02 0.324,-0.021 0.325,-0.02 0.324,-0.02 0.324,-0.02 0.325,-0.02 0.324,-0.021 0.324,-0.02 0.325,-0.021 0.324,-0.02 0.324,-0.021 0.325,-0.02 0.324,-0.021 0.324,-0.021 0.324,-0.02 0.325,-0.021 0.324,-0.021 0.324,-0.021 0.325,-0.021 0.324,-0.021 0.324,-0.02 0.325,-0.022 0.324,-0.021 0.324,-0.021 0.325,-0.021 0.324,-0.021 0.324,-0.021 0.325,-0.022 0.324,-0.021 0.324,-0.022 0.325,-0.021 0.324,-0.022 0.324,-0.021 0.325,-0.022 0.324,-0.022 0.324,-0.021 0.325,-0.022 0.324,-0.022 0.324,-0.022 0.325,-0.022 0.324,-0.022 0.324,-0.022 0.325,-0.022 0.324,-0.022 0.324,-0.022 0.325,-0.023 0.324,-0.022 0.324,-0.022 0.325,-0.023 0.324,-0.022 0.324,-0.023 0.324,-0.023 0.325,-0.022 0.324,-0.023 0.324,-0.023 0.325,-0.023 0.324,-0.023 0.324,-0.023 0.325,-0.023 0.324,-0.023 0.324,-0.023 0.325,-0.023 0.324,-0.023 0.324,-0.024 0.325,-0.023 0.324,-0.024 0.324,-0.023 0.325,-0.024 0.324,-0.024 0.324,-0.023 0.325,-0.024 0.324,-0.024 0.324,-0.024 0.325,-0.024 0.324,-0.024 0.324,-0.024 0.325,-0.024 0.324,-0.025 0.324,-0.024 0.325,-0.024 0.324,-0.025 0.324,-0.024 0.325,-0.025 0.324,-0.025 0.324,-0.024 0.325,-0.025 0.324,-0.025 0.324,-0.025 0.324,-0.025 0.325,-0.025 0.324,-0.025 0.324,-0.026 0.325,-0.025 0.324,-0.025 0.324,-0.026 0.325,-0.025 0.324,-0.026 0.324,-0.026 0.325,-0.026 0.324,-0.025 0.324,-0.026 0.325,-0.026 0.324,-0.027 0.324,-0.026 0.325,-0.026 0.324,-0.026 0.324,-0.027 0.325,-0.026 0.324,-0.027 0.324,-0.027 0.325,-0.026 0.324,-0.027 0.324,-0.027 0.325,-0.027 0.324,-0.027 0.324,-0.028 0.325,-0.027 0.324,-0.027 0.324,-0.028 0.325,-0.027 0.324,-0.028 0.324,-0.028 0.325,-0.027 0.324,-0.028 0.324,-0.028 0.324,-0.028 0.325,-0.029 0.324,-0.028 0.324,-0.028 0.325,-0.029 0.324,-0.028 0.324,-0.029 0.325,-0.029 0.324,-0.029 0.324,-0.029 0.325,-0.029 0.324,-0.029 0.324,-0.029 0.325,-0.029 0.324,-0.03 0.324,-0.029 0.325,-0.03 0.324,-0.03 0.324,-0.03 0.325,-0.03 0.324,-0.03 0.324,-0.03 0.325,-0.03 0.324,-0.031 0.324,-0.03 0.325,-0.031 0.324,-0.03 0.324,-0.031 0.325,-0.031 0.324,-0.031 0.324,-0.031 0.325,-0.032 0.324,-0.031 0.324,-0.032 0.325,-0.031 0.324,-0.032 0.324,-0.032 0.324,-0.032 0.325,-0.032 0.324,-0.032 0.324,-0.033 0.325,-0.032 0.324,-0.033 0.324,-0.032 0.325,-0.033 0.324,-0.033 0.324,-0.033 0.325,-0.034 0.324,-0.033 0.324,-0.033 0.325,-0.034 0.324,-0.034 0.324,-0.034 0.325,-0.034 0.324,-0.034 0.324,-0.034 0.325,-0.034 0.324,-0.035 0.324,-0.035 0.325,-0.034 0.324,-0.035 0.324,-0.036 0.325,-0.035 0.324,-0.035 0.324,-0.036 0.325,-0.035 0.324,-0.036 0.324,-0.036 0.325,-0.036 0.324,-0.037 0.324,-0.036 0.325,-0.036 0.324,-0.037 0.324,-0.037 0.324,-0.037 0.325,-0.037 0.324,-0.038 0.324,-0.037 0.325,-0.038 0.324,-0.038 0.324,-0.038 0.325,-0.038 0.324,-0.038 0.324,-0.038 0.325,-0.039 0.324,-0.039 0.324,-0.039 0.325,-0.039 0.324,-0.039 0.324,-0.04 0.325,-0.039 0.324,-0.04 0.324,-0.04 0.325,-0.041 0.324,-0.04 0.324,-0.04 0.325,-0.041 0.324,-0.041 0.324,-0.041 0.325,-0.041 0.324,-0.042 0.324,-0.042 0.325,-0.042 0.324,-0.042 0.324,-0.042 0.325,-0.042 0.324,-0.043 0.324,-0.043 0.325,-0.043 0.324,-0.043 0.324,-0.043 0.324,-0.044 0.325,-0.044 0.324,-0.044 0.324,-0.044 0.325,-0.045 0.324,-0.044 0.324,-0.045 0.325,-0.046 0.324,-0.045 0.324,-0.045 0.325,-0.046 0.324,-0.046 0.324,-0.047 0.325,-0.046 0.324,-0.047 0.324,-0.047 0.325,-0.047 0.324,-0.047 0.324,-0.048 0.325,-0.048 0.324,-0.048 0.324,-0.048 0.325,-0.049 0.324,-0.049 0.324,-0.049 0.325,-0.049 0.324,-0.05 0.324,-0.05 0.325,-0.05 0.324,-0.05 0.324,-0.051 0.325,-0.051 0.324,-0.051 0.324,-0.051 0.325,-0.052 0.324,-0.052 0.324,-0.052 0.324,-0.053 0.325,-0.053 0.324,-0.053 0.324,-0.053 0.325,-0.054 0.324,-0.054 0.324,-0.054 0.325,-0.055 0.324,-0.055 0.324,-0.055 0.325,-0.056 0.324,-0.055 0.324,-0.057 0.325,-0.056 0.324,-0.057 0.324,-0.057 0.325,-0.057 0.324,-0.058 0.324,-0.058 0.325,-0.058 0.324,-0.059 0.324,-0.059 0.325,-0.059 0.324,-0.06 0.324,-0.06 0.325,-0.061 0.324,-0.06 0.324,-0.062 0.325,-0.061 0.324,-0.062 0.324,-0.062 0.325,-0.063 0.324,-0.063 0.324,-0.063 0.325,-0.064 0.324,-0.064 0.324,-0.065 0.324,-0.064 0.325,-0.066 0.324,-0.065 0.324,-0.067 0.325,-0.066 0.324,-0.067 0.324,-0.067 0.325,-0.068 0.324,-0.068 0.324,-0.069 0.325,-0.069 0.324,-0.069 0.324,-0.07 0.325,-0.071 0.324,-0.071 0.324,-0.071 0.325,-0.072 0.324,-0.072 0.324,-0.072 0.325,-0.074 0.324,-0.073 0.324,-0.074 0.325,-0.075 0.324,-0.075 0.324,-0.076 0.325,-0.076 0.324,-0.076 0.324,-0.078 0.325,-0.077 0.324,-0.078 0.324,-0.079 0.325,-0.079 0.324,-0.08 0.324,-0.08 0.325,-0.081 0.324,-0.082 0.324,-0.082 0.324,-0.083 0.325,-0.083 0.324,-0.083 0.324,-0.085 0.325,-0.085 0.324,-0.085 0.324,-0.087 0.325,-0.086 0.324,-0.088 0.324,-0.088 0.325,-0.089 0.324,-0.089 0.324,-0.09 0.325,-0.091 0.324,-0.091 0.324,-0.092 0.325,-0.093 0.324,-0.093 0.324,-0.094 0.325,-0.095 0.324,-0.096 0.324,-0.096 0.325,-0.097 0.324,-0.098 0.324,-0.098 0.325,-0.1 0.324,-0.1 0.324,-0.101 0.325,-0.101 0.324,-0.103 0.324,-0.103 0.325,-0.104 0.324,-0.105 0.324,-0.106 0.325,-0.106 0.324,-0.108 0.324,-0.108 0.324,-0.109 0.325,-0.11 0.324,-0.111 0.324,-0.112 0.325,-0.113 0.324,-0.114 0.324,-0.115 0.325,-0.115 0.324,-0.117 0.324,-0.118 0.325,-0.119 0.324,-0.119 0.324,-0.121 0.325,-0.122 0.324,-0.123 0.324,-0.124 0.325,-0.125 0.324,-0.126 0.324,-0.127 0.325,-0.128 0.324,-0.13 0.324,-0.131 0.325,-0.132 0.324,-0.133 0.324,-0.134 0.325,-0.135 0.324,-0.137 0.324,-0.138 0.325,-0.14 0.324,-0.14 0.324,-0.142 0.325,-0.143 0.324,-0.145 0.324,-0.146 0.325,-0.147 0.324,-0.149 0.324,-0.15 0.324,-0.152 0.325,-0.153 0.324,-0.155 0.324,-0.156 0.325,-0.158 0.324,-0.159 0.324,-0.161 0.325,-0.163 0.324,-0.164 0.324,-0.166 0.325,-0.168 0.324,-0.169 0.324,-0.171 0.325,-0.173 0.324,-0.175 0.324,-0.176 0.325,-0.178 0.324,-0.181 0.324,-0.182 0.325,-0.184 0.324,-0.186 0.324,-0.188 0.325,-0.19 0.324,-0.193 0.324,-0.194 0.325,-0.196 0.324,-0.199 0.324,-0.201 0.325,-0.203 0.324,-0.206 0.324,-0.208 0.325,-0.21 0.324,-0.213 0.324,-0.215 0.325,-0.217 0.324,-0.221 0.324,-0.223 0.324,-0.225 0.325,-0.228 0.324,-0.231 0.324,-0.234 0.325,-0.236 0.324,-0.24 0.324,-0.242 0.325,-0.246 0.324,-0.248 0.324,-0.252 0.325,-0.254 0.324,-0.258 0.324,-0.262 0.325,-0.264 0.324,-0.269 0.324,-0.271 0.325,-0.275 0.324,-0.279 0.324,-0.283 0.325,-0.286 0.324,-0.29 0.324,-0.294 0.325,-0.298 0.324,-0.302 0.324,-0.306 0.325,-0.311 0.324,-0.315 0.324,-0.319 0.325,-0.324 0.324,-0.329 0.324,-0.333 0.325,-0.338 0.324,-0.343 0.324,-0.348 0.325,-0.354 0.324,-0.358 0.324,-0.364 0.324,-0.369 0.325,-0.375 0.324,-0.381 0.324,-0.387 0.325,-0.393 0.324,-0.398 0.324,-0.405 0.325,-0.412 0.324,-0.418 0.324,-0.425 0.325,-0.432 0.324,-0.439 0.324,-0.446 0.325,-0.454 0.324,-0.461 0.324,-0.469 0.325,-0.477 0.324,-0.485 0.324,-0.494 0.325,-0.502 0.324,-0.511 0.324,-0.52 0.325,-0.53 0.324,-0.539 0.324,-0.549 0.325,-0.558 0.324,-0.57 0.324,-0.579 0.325,-0.591 0.324,-0.602 0.324,-0.613 0.325,-0.625 0.324,-0.638 0.324,-0.649 0.325,-0.663 0.324,-0.676 0.324,-0.689 0.324,-0.703 0.325,-0.718 0.324,-0.733 0.324,-0.747 0.325,-0.764 0.324,-0.779 0.324,-0.797 0.325,-0.813 0.324,-0.831 0.324,-0.849 0.325,-0.869 0.324,-0.887 0.324,-0.907 0.325,-0.928 0.324,-0.95 0.324,-0.971 0.325,-0.994 0.324,-1.017 0.324,-1.041 0.325,-1.067 0.324,-1.092 0.324,-1.118 0.325,-1.147 0.324,-1.174 0.324,-1.204 0.325,-1.234 0.324,-1.265 0.324,-1.298 0.325,-1.331 0.324,-1.366 0.324,-1.402 0.325,-1.438 0.324,-1.477 0.324,-1.516 0.325,-1.557 0.324,-1.599 0.324,-1.642 0.324,-1.688 0.325,-1.734 0.324,-1.781 0.324,-1.831 0.325,-1.882 0.324,-1.934 0.324,-1.988 0.325,-2.043 0.324,-2.101 0.324,-2.158 0.325,-2.219 0.324,-2.279 0.324,-2.343 0.325,-2.405 0.324,-2.471 0.324,-2.536 0.325,-2.602 0.324,-2.668 0.324,-2.735 0.325,-2.802 0.324,-2.867 0.324,-2.932 0.325,-2.994 0.324,-3.055 0.324,-3.112 0.325,-3.165 0.324,-3.2133 0.324,-3.2557 0.325,-3.2908 0.324,-3.3175 0.324,-3.3344 0.325,-3.34 0.324,-3.3329 0.324,-3.3114 0.325,-3.2738 0.324,-3.2186 0.324,-3.1443 0.324,-3.0495 0.325,-2.9328 0.324,-2.7936 0.324,-2.631 0.325,-2.4449 0.324,-2.2356 0.324,-2.004 0.325,-1.7513 0.324,-1.4795 0.324,-1.1912 0.325,-0.8895 0.324,-0.5776 0.324,-0.2595 0.325,0.0608 0.324,0.3793 0.324,0.6919 0.325,0.9948 0.324,1.2846 0.324,1.5581 0.325,1.8132 0.324,2.0474 0.324,2.2598 0.325,2.4491 0.324,2.6155 0.324,2.7588 0.325,2.8797 0.324,2.9791 0.324,3.0582 0.325,3.1183 0.324,3.1609 0.324,3.1876 0.325,3.2 0.324,3.1996 0.324,3.1878 0.325,3.1663 0.324,3.1363 0.324,3.0989 0.324,3.0556 0.325,3.0072 0.324,2.9549 0.324,2.898 0.325,2.841 0.324,2.78 0.324,2.718 0.325,2.655 0.324,2.593 0.324,2.53 0.325,2.467 0.324,2.404 0.324,2.343 0.325,2.282 0.324,2.223 0.324,2.164 0.325,2.106 0.324,2.051 0.324,1.995 0.325,1.943 0.324,1.89 0.324,1.841 0.325,1.791 0.324,1.743 0.324,1.698 0.325,1.652 0.324,1.609 0.324,1.567 0.325,1.526 0.324,1.487 0.324,1.449 0.325,1.411 0.324,1.375 0.324,1.341 0.325,1.307 0.324,1.275 0.324,1.243 0.324,1.213 0.325,1.183 0.324,1.155 0.324,1.127 0.325,1.1 0.324,1.074 0.324,1.05 0.325,1.024 0.324,1.002 0.324,0.978 0.325,0.957 0.324,0.934 0.324,0.915 0.325,0.894 0.324,0.874 0.324,0.856 0.325,0.837 0.324,0.819 0.324,0.802 0.325,0.785 0.324,0.769 0.324,0.753 0.325,0.738 0.324,0.722 0.324,0.708 0.325,0.695 0.324,0.68 0.324,0.667 0.325,0.654 0.324,0.642 0.324,0.629 0.325,0.617 0.324,0.606 0.324,0.594 0.325,0.584 0.324,0.573 0.324,0.562 0.324,0.552 0.325,0.542 0.324,0.533 0.324,0.523 0.325,0.514 0.324,0.506 0.324,0.496 0.325,0.488 0.324,0.48 0.324,0.471 0.325,0.464 0.324,0.456 0.324,0.449 0.325,0.441 0.324,0.434 0.324,0.427 0.325,0.421 0.324,0.413 0.324,0.408 0.325,0.4 0.324,0.395 0.324,0.388 0.325,0.383 0.324,0.377 0.324,0.371 0.325,0.365 0.324,0.36 0.324,0.355 0.325,0.35 0.324,0.344 0.324,0.34 0.325,0.334 0.324,0.33 0.324,0.326 0.325,0.32 0.324,0.316 0.324,0.312 0.324,0.307 0.325,0.304 0.324,0.299 0.324,0.295 0.325,0.291 0.324,0.287 0.324,0.284 0.325,0.279 0.324,0.276 0.324,0.273 0.325,0.268 0.324,0.266 0.324,0.262 0.325,0.259 0.324,0.255 0.324,0.252 0.325,0.249 0.324,0.246 0.324,0.243 0.325,0.24 0.324,0.237 0.324,0.234 0.325,0.232 0.324,0.228 0.324,0.226 0.325,0.223 0.324,0.221 0.324,0.218 0.325,0.215 0.324,0.213 0.324,0.211 0.325,0.208 0.324,0.206 0.324,0.203 0.325,0.201 0.324,0.199 0.324,0.197 0.324,0.194 0.325,0.193 0.324,0.19 0.324,0.188 0.325,0.186 0.324,0.184 0.324,0.183 0.325,0.18 0.324,0.178 0.324,0.177 0.325,0.174 0.324,0.173 0.324,0.171 0.325,0.169 0.324,0.168 0.324,0.165 0.325,0.164 0.324,0.163 0.324,0.161 0.325,0.159 0.324,0.157 0.324,0.156 0.325,0.155 0.324,0.153 0.324,0.151 0.325,0.15 0.324,0.149 0.324,0.147 0.325,0.146 0.324,0.144 0.324,0.143 0.325,0.141 0.324,0.141 0.324,0.139 0.325,0.137 0.324,0.137 0.324,0.135 0.324,0.134 0.325,0.132 0.324,0.132 0.324,0.13 0.325,0.129 0.324,0.128 0.324,0.127 0.325,0.125 0.324,0.125 0.324,0.123 0.325,0.123 0.324,0.121 0.324,0.12 0.325,0.119 0.324,0.118 0.324,0.117 0.325,0.117 0.324,0.115"
         id="path68"
         inkscape:connector-curvature="0" />
    </g>
    <g
       transform="translate(113,301)"
       font-size="12"
       font-weight="400"
       font-style="normal"
       id="g70"
       style="font-size:12px;font-style:normal;font-weight:400;fill:none;stroke:#000000;stroke-width:1;stroke-linecap:square;stroke-linejoin:bevel;stroke-opacity:1;font-family:Helvetica">
      <text
         xml:space="preserve"
         x="0"
         y="0"
         font-size="12"
         font-weight="400"
         font-style="normal"
         id="text72"
         style="font-size:12px;font-style:normal;font-weight:400;fill:#000000;fill-opacity:1;stroke:none;font-family:Helvetica">2e6</text>
    </g>
    <g
       transform="translate(185,301)"
       font-size="12"
       font-weight="400"
       font-style="normal"
       id="g74"
       style="font-size:12px;font-style:normal;font-weight:400;fill:none;stroke:#000000;stroke-width:1;stroke-linecap:square;stroke-linejoin:bevel;stroke-opacity:1;font-family:Helvetica">
      <text
         xml:space="preserve"
         x="0"
         y="0"
         font-size="12"
         font-weight="400"
         font-style="normal"
         id="text76"
         style="font-size:12px;font-style:normal;font-weight:400;fill:#000000;fill-opacity:1;stroke:none;font-family:Helvetica">4e6</text>
    </g>
    <g
       transform="translate(257,301)"
       font-size="12"
       font-weight="400"
       font-style="normal"
       id="g78"
       style="font-size:12px;font-style:normal;font-weight:400;fill:none;stroke:#000000;stroke-width:1;stroke-linecap:square;stroke-linejoin:bevel;stroke-opacity:1;font-family:Helvetica">
      <text
         xml:space="preserve"
         x="0"
         y="0"
         font-size="12"
         font-weight="400"
         font-style="normal"
         id="text80"
         style="font-size:12px;font-style:normal;font-weight:400;fill:#000000;fill-opacity:1;stroke:none;font-family:Helvetica">6e6</text>
    </g>
    <g
       transform="translate(329,301)"
       font-size="12"
       font-weight="400"
       font-style="normal"
       id="g82"
       style="font-size:12px;font-style:normal;font-weight:400;fill:none;stroke:#000000;stroke-width:1;stroke-linecap:square;stroke-linejoin:bevel;stroke-opacity:1;font-family:Helvetica">
      <text
         xml:space="preserve"
         x="0"
         y="0"
         font-size="12"
         font-weight="400"
         font-style="normal"
         id="text84"
         style="font-size:12px;font-style:normal;font-weight:400;fill:#000000;fill-opacity:1;stroke:none;font-family:Helvetica">8e6</text>
    </g>
    <g
       transform="translate(401,301)"
       font-size="12"
       font-weight="400"
       font-style="normal"
       id="g86"
       style="font-size:12px;font-style:normal;font-weight:400;fill:none;stroke:#000000;stroke-width:1;stroke-linecap:square;stroke-linejoin:bevel;stroke-opacity:1;font-family:Helvetica">
      <text
         xml:space="preserve"
         x="0"
         y="0"
         font-size="12"
         font-weight="400"
         font-style="normal"
         id="text88"
         style="font-size:12px;font-style:normal;font-weight:400;fill:#000000;fill-opacity:1;stroke:none;font-family:Helvetica">1e7</text>
    </g>
    <g
       transform="translate(74,268)"
       font-size="12"
       font-weight="400"
       font-style="normal"
       id="g90"
       style="font-size:12px;font-style:normal;font-weight:400;fill:none;stroke:#000000;stroke-width:1;stroke-linecap:square;stroke-linejoin:bevel;stroke-opacity:1;font-family:Helvetica">
      <text
         xml:space="preserve"
         x="0"
         y="0"
         font-size="12"
         font-weight="400"
         font-style="normal"
         id="text92"
         style="font-size:12px;font-style:normal;font-weight:400;fill:#000000;fill-opacity:1;stroke:none;font-family:Helvetica">0</text>
    </g>
    <g
       transform="translate(42,212)"
       font-size="12"
       font-weight="400"
       font-style="normal"
       id="g94"
       style="font-size:12px;font-style:normal;font-weight:400;fill:none;stroke:#000000;stroke-width:1;stroke-linecap:square;stroke-linejoin:bevel;stroke-opacity:1;font-family:Helvetica">
      <text
         xml:space="preserve"
         x="0"
         y="0"
         font-size="12"
         font-weight="400"
         font-style="normal"
         id="text96"
         style="font-size:12px;font-style:normal;font-weight:400;fill:#000000;fill-opacity:1;stroke:none;font-family:Helvetica">0.005</text>
    </g>
    <g
       transform="translate(51,156)"
       font-size="12"
       font-weight="400"
       font-style="normal"
       id="g98"
       style="font-size:12px;font-style:normal;font-weight:400;fill:none;stroke:#000000;stroke-width:1;stroke-linecap:square;stroke-linejoin:bevel;stroke-opacity:1;font-family:Helvetica">
      <text
         xml:space="preserve"
         x="0"
         y="0"
         font-size="12"
         font-weight="400"
         font-style="normal"
         id="text100"
         style="font-size:12px;font-style:normal;font-weight:400;fill:#000000;fill-opacity:1;stroke:none;font-family:Helvetica">0.01</text>
    </g>
    <g
       transform="translate(42,100)"
       font-size="12"
       font-weight="400"
       font-style="normal"
       id="g102"
       style="font-size:12px;font-style:normal;font-weight:400;fill:none;stroke:#000000;stroke-width:1;stroke-linecap:square;stroke-linejoin:bevel;stroke-opacity:1;font-family:Helvetica">
      <text
         xml:space="preserve"
         x="0"
         y="0"
         font-size="12"
         font-weight="400"
         font-style="normal"
         id="text104"
         style="font-size:12px;font-style:normal;font-weight:400;fill:#000000;fill-opacity:1;stroke:none;font-family:Helvetica">0.015</text>
    </g>
    <g
       transform="translate(51,43)"
       font-size="12"
       font-weight="400"
       font-style="normal"
       id="g106"
       style="font-size:12px;font-style:normal;font-weight:400;fill:none;stroke:#000000;stroke-width:1;stroke-linecap:square;stroke-linejoin:bevel;stroke-opacity:1;font-family:Helvetica">
      <text
         xml:space="preserve"
         x="0"
         y="0"
         font-size="12"
         font-weight="400"
         font-style="normal"
         id="text108"
         style="font-size:12px;font-style:normal;font-weight:400;fill:#000000;fill-opacity:1;stroke:none;font-family:Helvetica">0.02</text>
    </g>
    <g
       transform="translate(217,321)"
       font-size="12"
       font-weight="400"
       font-style="normal"
       id="g110"
       style="font-size:12px;font-style:normal;font-weight:400;fill:none;stroke:#0000ff;stroke-width:1;stroke-linecap:square;stroke-linejoin:bevel;stroke-opacity:1;font-family:Helvetica">
      <text
         xml:space="preserve"
         x="0"
         y="0"
         font-size="12"
         font-weight="400"
         font-style="normal"
         id="text112"
         style="font-size:12px;font-style:normal;font-weight:400;fill:#0000ff;fill-opacity:1;stroke:none;font-family:Helvetica">frequency</text>
    </g>
    <g
       transform="matrix(0,-1,1,0,35,209)"
       font-size="12"
       font-weight="400"
       font-style="normal"
       id="g114"
       style="font-size:12px;font-style:normal;font-weight:400;fill:none;stroke:#0000ff;stroke-width:1;stroke-linecap:square;stroke-linejoin:bevel;stroke-opacity:1;font-family:Helvetica">
      <text
         xml:space="preserve"
         x="0"
         y="0"
         font-size="12"
         font-weight="400"
         font-style="normal"
         id="text116"
         style="font-size:12px;font-style:normal;font-weight:400;fill:#0000ff;fill-opacity:1;stroke:none;font-family:Helvetica">ngspice/ac.i(pr1)</text>
    </g>
    <g
       font-size="12"
       font-weight="400"
       font-style="normal"
       id="g118"
       style="font-size:12px;font-style:normal;font-weight:400;fill:none;stroke:#0000ff;stroke-width:1;stroke-linecap:square;stroke-linejoin:bevel;stroke-opacity:1;font-family:Helvetica" />
  </g>
</svg>
