<?xml version="1.0" encoding="UTF-8" standalone="no"?>
<svg
   xmlns:dc="http://purl.org/dc/elements/1.1/"
   xmlns:cc="http://creativecommons.org/ns#"
   xmlns:rdf="http://www.w3.org/1999/02/22-rdf-syntax-ns#"
   xmlns:svg="http://www.w3.org/2000/svg"
   xmlns="http://www.w3.org/2000/svg"
   xmlns:sodipodi="http://sodipodi.sourceforge.net/DTD/sodipodi-0.dtd"
   xmlns:inkscape="http://www.inkscape.org/namespaces/inkscape"
   width="682"
   height="401"
   version="1.2"
   id="svg3317"
   inkscape:version="0.48.5 r10040"
   sodipodi:docname="RCL_tran.svg">
  <metadata
     id="metadata3479">
    <rdf:RDF>
      <cc:Work
         rdf:about="">
        <dc:format>image/svg+xml</dc:format>
        <dc:type
           rdf:resource="http://purl.org/dc/dcmitype/StillImage" />
      </cc:Work>
    </rdf:RDF>
  </metadata>
  <sodipodi:namedview
     pagecolor="#ffffff"
     bordercolor="#666666"
     borderopacity="1"
     objecttolerance="10"
     gridtolerance="10"
     guidetolerance="10"
     inkscape:pageopacity="0"
     inkscape:pageshadow="2"
     inkscape:window-width="640"
     inkscape:window-height="480"
     id="namedview3477"
     showgrid="false"
     fit-margin-top="0"
     fit-margin-left="0"
     fit-margin-right="0"
     fit-margin-bottom="0"
     inkscape:zoom="0.44457561"
     inkscape:cx="426.24921"
     inkscape:cy="150.3748"
     inkscape:window-x="0"
     inkscape:window-y="0"
     inkscape:window-maximized="0"
     inkscape:current-layer="svg3317" />
  <title
     id="title3319">Qt Svg Document</title>
  <desc
     id="desc3321">Generated with Qt</desc>
  <defs
     id="defs3323" />
  <g
     id="g3325"
     style="fill:none;stroke:#000000;stroke-width:1;stroke-linecap:square;stroke-linejoin:bevel">
    <g
       font-size="12"
       font-weight="400"
       font-style="normal"
       id="g3327"
       style="font-size:12px;font-style:normal;font-weight:400;fill:#ffffff;fill-opacity:1;stroke:none;font-family:Helvetica">
      <path
         vector-effect="non-scaling-stroke"
         d="M 0,0 682,0 682,401 0,401 0,0"
         id="path3329"
         inkscape:connector-curvature="0"
         style="fill-rule:evenodd" />
    </g>
    <g
       font-size="12"
       font-weight="400"
       font-style="normal"
       id="g3331"
       style="font-size:12px;font-style:normal;font-weight:400;fill:none;stroke:#c0c0c0;stroke-width:1;stroke-linecap:square;stroke-linejoin:bevel;stroke-opacity:1;font-family:Helvetica">
      <polyline
         vector-effect="non-scaling-stroke"
         points="97,60 587,60 "
         id="polyline3333"
         style="fill:none" />
      <polyline
         vector-effect="non-scaling-stroke"
         points="97,162 587,162 "
         id="polyline3335"
         style="fill:none" />
      <polyline
         vector-effect="non-scaling-stroke"
         points="97,263 587,263 "
         id="polyline3337"
         style="fill:none" />
      <polyline
         vector-effect="non-scaling-stroke"
         points="538,15 538,308 "
         id="polyline3339"
         style="fill:none" />
      <polyline
         vector-effect="non-scaling-stroke"
         points="489,15 489,308 "
         id="polyline3341"
         style="fill:none" />
      <polyline
         vector-effect="non-scaling-stroke"
         points="440,15 440,308 "
         id="polyline3343"
         style="fill:none" />
      <polyline
         vector-effect="non-scaling-stroke"
         points="391,15 391,308 "
         id="polyline3345"
         style="fill:none" />
      <polyline
         vector-effect="non-scaling-stroke"
         points="342,15 342,308 "
         id="polyline3347"
         style="fill:none" />
      <polyline
         vector-effect="non-scaling-stroke"
         points="293,15 293,308 "
         id="polyline3349"
         style="fill:none" />
      <polyline
         vector-effect="non-scaling-stroke"
         points="244,15 244,308 "
         id="polyline3351"
         style="fill:none" />
      <polyline
         vector-effect="non-scaling-stroke"
         points="195,15 195,308 "
         id="polyline3353"
         style="fill:none" />
      <polyline
         vector-effect="non-scaling-stroke"
         points="146,15 146,308 "
         id="polyline3355"
         style="fill:none" />
    </g>
    <g
       font-size="12"
       font-weight="400"
       font-style="normal"
       id="g3357"
       style="font-size:12px;font-style:normal;font-weight:400;fill:none;stroke:#000000;stroke-width:1;stroke-linecap:square;stroke-linejoin:bevel;stroke-opacity:1;font-family:Helvetica">
      <polyline
         vector-effect="non-scaling-stroke"
         points="97,303 97,313 "
         id="polyline3359"
         style="fill:none" />
      <polyline
         vector-effect="non-scaling-stroke"
         points="146,303 146,313 "
         id="polyline3361"
         style="fill:none" />
      <polyline
         vector-effect="non-scaling-stroke"
         points="195,303 195,313 "
         id="polyline3363"
         style="fill:none" />
      <polyline
         vector-effect="non-scaling-stroke"
         points="244,303 244,313 "
         id="polyline3365"
         style="fill:none" />
      <polyline
         vector-effect="non-scaling-stroke"
         points="293,303 293,313 "
         id="polyline3367"
         style="fill:none" />
      <polyline
         vector-effect="non-scaling-stroke"
         points="342,303 342,313 "
         id="polyline3369"
         style="fill:none" />
      <polyline
         vector-effect="non-scaling-stroke"
         points="391,303 391,313 "
         id="polyline3371"
         style="fill:none" />
      <polyline
         vector-effect="non-scaling-stroke"
         points="440,303 440,313 "
         id="polyline3373"
         style="fill:none" />
      <polyline
         vector-effect="non-scaling-stroke"
         points="489,303 489,313 "
         id="polyline3375"
         style="fill:none" />
      <polyline
         vector-effect="non-scaling-stroke"
         points="538,303 538,313 "
         id="polyline3377"
         style="fill:none" />
      <polyline
         vector-effect="non-scaling-stroke"
         points="587,303 587,313 "
         id="polyline3379"
         style="fill:none" />
      <polyline
         vector-effect="non-scaling-stroke"
         points="92,263 102,263 "
         id="polyline3381"
         style="fill:none" />
      <polyline
         vector-effect="non-scaling-stroke"
         points="92,162 102,162 "
         id="polyline3383"
         style="fill:none" />
      <polyline
         vector-effect="non-scaling-stroke"
         points="92,60 102,60 "
         id="polyline3385"
         style="fill:none" />
      <polyline
         vector-effect="non-scaling-stroke"
         points="97,15 587,15 "
         id="polyline3387"
         style="fill:none" />
      <polyline
         vector-effect="non-scaling-stroke"
         points="587,15 587,308 "
         id="polyline3389"
         style="fill:none" />
      <polyline
         vector-effect="non-scaling-stroke"
         points="97,308 587,308 "
         id="polyline3391"
         style="fill:none" />
      <polyline
         vector-effect="non-scaling-stroke"
         points="97,15 97,308 "
         id="polyline3393"
         style="fill:none" />
    </g>
    <g
       font-size="12"
       font-weight="400"
       font-style="normal"
       id="g3395"
       style="font-size:12px;font-style:normal;font-weight:400;fill:none;stroke:#0000ff;stroke-width:1;stroke-linecap:square;stroke-linejoin:bevel;stroke-opacity:1;font-family:Helvetica">
      <path
         vector-effect="non-scaling-stroke"
         d="m 97,161.5 0.0244,-0.286 0.002,-0.024 0.0041,-0.048 0.0082,-0.097 0.0164,-0.192 0.0328,-0.385 0.0655,-0.769 0.1311,-1.539 0.2621,-3.076 0.5243,-6.138 0.6135,-7.141 0.8767,-10.078 1.2769,-14.287 1.989,-20.8394 2.437,-22.2533 2.438,-17.4848 2.438,-11.7597 2.438,-5.3911 2.438,1.2725 2.437,7.8664 2.438,14.0298 2.438,19.4258 2.438,23.7588 2.438,26.792 2.437,28.359 2.438,28.374 2.438,26.838 2.438,23.832 2.438,19.523 2.438,14.146 2.437,7.994 2.438,1.405 2.438,-5.26 2.438,-11.639 2.438,-17.379 2.437,-22.17 2.438,-25.747 2.438,-27.915 2.438,-28.557 2.438,-27.635 2.437,-25.2018 2.438,-21.3897 2.438,-16.407 2.438,-10.5268 2.438,-4.0706 2.437,2.6084 2.438,9.1446 2.438,15.1805 2.438,20.3858 2.438,24.4756 2.437,27.227 2.438,28.487 2.438,28.19 2.438,26.35 2.438,23.068 2.438,18.525 2.437,12.967 2.438,6.7 2.438,0.066 2.438,-6.57 2.438,-12.848 2.437,-18.423 2.438,-22.989 2.438,-26.298 2.438,-28.169 2.438,-28.496 2.437,-27.267 2.438,-24.5441 2.438,-20.479 2.438,-15.2933 2.438,-9.2708 2.437,-2.7411 2.438,3.9386 2.438,10.4027 2.438,16.2978 2.438,21.301 2.438,25.1392 2.437,27.601 2.438,28.553 2.438,27.944 2.438,25.804 2.438,22.254 2.437,17.485 2.438,11.76 2.438,5.391 2.438,-1.272 2.438,-7.866 2.437,-14.029 2.438,-19.426 2.438,-23.758 2.438,-26.792 2.438,-28.359 2.437,-28.375 2.438,-26.838 2.438,-23.8321 2.438,-19.5233 2.438,-14.1459 2.438,-7.9944 2.437,-1.4056 2.438,5.2601 2.438,11.638 2.438,17.3792 2.438,22.1695 2.437,25.7465 2.438,27.916 2.438,28.556 2.438,27.635 2.438,25.202 2.437,21.39 2.438,16.408 2.438,10.527 2.438,4.071 2.438,-2.608 2.437,-9.144 2.438,-15.18 2.438,-20.386 2.438,-24.476 2.438,-27.226 2.438,-28.487 2.437,-28.19 2.438,-26.35 2.438,-23.069 2.438,-18.5247 2.438,-12.9674 2.437,-6.7005 2.438,-0.067 2.438,6.57 2.438,12.8478 2.438,18.4224 2.437,22.9894 2.438,26.298 2.438,28.168 2.438,28.497 2.438,27.266 2.437,24.545 2.438,20.479 2.438,15.294 2.438,9.271 2.438,2.741 2.437,-3.938 2.438,-10.402 2.438,-16.298 2.438,-21.3 2.438,-25.139 2.438,-27.601 2.437,-28.554 2.438,-27.943 2.438,-25.8046 2.438,-22.2538 2.438,-17.4854 2.437,-11.7604 2.438,-5.3918 2.438,1.2716 2.438,7.8656 2.438,14.0292 2.437,19.4252 2.438,23.7584 2.438,26.792 2.438,28.358 2.438,28.375 2.437,26.838 2.438,23.833 2.438,19.523 2.438,14.147 2.438,7.994 2.438,1.406 2.437,-5.259 2.438,-11.638 2.438,-17.379 2.438,-22.169 2.438,-25.747 2.437,-27.915 2.438,-28.556 2.438,-27.636 2.438,-25.2021 2.438,-21.3901 2.437,-16.4077 2.438,-10.5276 2.438,-4.0713 2.438,2.6076 2.438,9.1438 2.437,15.1799 2.438,20.3852 2.438,24.4753 2.438,27.226 2.438,28.488 2.438,28.19 2.437,26.35 2.438,23.069 2.438,18.525 2.438,12.968 2.438,6.7 2.437,0.068 2.438,-6.57 2.438,-12.847 2.438,-18.422 2.438,-22.989 2.437,-26.298 2.438,-28.168 2.438,-28.497 2.438,-27.267 2.438,-24.5444 2.437,-20.4796 2.438,-15.2939 2.438,-9.2715 2.438,-2.7419 2.438,3.9378 2.437,10.402 2.438,16.2971 2.438,21.3005 2.438,25.1389 2.438,27.601 L 587,161.5"
         id="path3397"
         inkscape:connector-curvature="0" />
    </g>
    <g
       font-size="12"
       font-weight="400"
       font-style="normal"
       id="g3399"
       style="font-size:12px;font-style:normal;font-weight:400;fill:none;stroke:#ff0000;stroke-width:1;stroke-linecap:square;stroke-linejoin:bevel;stroke-opacity:1;font-family:Helvetica">
      <path
         vector-effect="non-scaling-stroke"
         d="m 97,161.5 0.0244,0 0.002,0 0.0041,0 0.0082,0 0.0164,0 0.0328,0 0.0655,-0.001 0.1311,-0.002 0.2621,-0.008 0.5243,-0.03 0.6135,-0.06 0.8767,-0.131 1.2769,-0.28 1.989,-0.622 2.437,-1.001 2.438,-1.147 2.438,-1.145 2.438,-0.986 2.438,-0.674 2.437,-0.229 2.438,0.316 2.438,0.918 2.438,1.527 2.438,2.089 2.437,2.55 2.438,2.86 2.438,2.983 2.438,2.89 2.438,2.571 2.438,2.029 2.437,1.289 2.438,0.389 2.438,-0.619 2.438,-1.669 2.438,-2.692 2.437,-3.613 2.438,-4.364 2.438,-4.882 2.438,-5.117 2.438,-5.037 2.437,-4.629 2.438,-3.902 2.438,-2.885 2.438,-1.629 2.438,-0.203 2.437,1.311 2.438,2.819 2.438,4.226 2.438,5.441 2.438,6.374 2.437,6.96 2.438,7.144 2.438,6.902 2.438,6.229 2.438,5.152 2.438,3.722 2.437,2.014 2.438,0.123 2.438,-1.842 2.438,-3.764 2.438,-5.524 2.437,-7.011 2.438,-8.126 2.438,-8.791 2.438,-8.952 2.438,-8.585 2.437,-7.697 2.438,-6.329 2.438,-4.547 2.438,-2.45 2.438,-0.152 2.437,2.212 2.438,4.505 2.438,6.587 2.438,8.331 2.438,9.625 2.438,10.382 2.437,10.546 2.438,10.095 2.438,9.042 2.438,7.438 2.438,5.365 2.437,2.937 2.438,0.291 2.438,-2.423 2.438,-5.045 2.438,-7.421 2.437,-9.406 2.438,-10.878 2.438,-11.741 2.438,-11.935 2.438,-11.438 2.437,-10.267 2.438,-8.482 2.438,-6.177 2.438,-3.477 2.438,-0.537 2.438,2.477 2.437,5.391 2.438,8.032 2.438,10.245 2.438,11.893 2.438,12.875 2.437,13.125 2.438,12.619 2.438,11.378 2.438,9.464 2.438,6.982 2.437,4.067 2.438,0.886 2.438,-2.383 2.438,-5.55 2.438,-8.429 2.437,-10.855 2.438,-12.679 2.438,-13.793 2.438,-14.122 2.438,-13.644 2.438,-12.375 2.437,-10.384 2.438,-7.779 2.438,-4.702 2.438,-1.331 2.438,2.147 2.437,5.531 2.438,8.623 2.438,11.247 2.438,13.245 2.438,14.501 2.437,14.933 2.438,14.516 2.438,13.262 2.438,11.241 2.438,8.563 2.437,5.377 2.438,1.864 2.438,-1.78 2.438,-5.344 2.438,-8.624 2.437,-11.431 2.438,-13.601 2.438,-15.008 2.438,-15.566 2.438,-15.237 2.438,-14.039 2.437,-12.033 2.438,-9.331 2.438,-6.0842 2.438,-2.4752 2.438,1.2917 2.437,5.0017 2.438,8.444 2.438,11.42 2.438,13.758 2.438,15.323 2.437,16.023 2.438,15.813 2.438,14.706 2.438,12.757 2.438,10.076 2.437,6.815 2.438,3.155 2.438,-0.695 2.438,-4.518 2.438,-8.095 2.438,-11.225 2.437,-13.725 2.438,-15.455 2.438,-16.312 2.438,-16.248 2.438,-15.262 2.437,-13.409 2.438,-10.792 2.438,-7.5603 2.438,-3.8921 2.438,0.0029 2.437,3.9052 2.438,7.5933 2.438,10.859 2.438,13.515 2.438,15.412 2.437,16.44 2.438,16.541 2.438,15.707 2.438,13.986 2.438,11.473 2.438,8.309 2.437,4.674 2.438,0.771 2.438,-3.178 2.438,-6.952 2.438,-10.335 2.437,-13.139 2.438,-15.204 2.438,-16.412 2.438,-16.697 2.438,-16.042 2.437,-14.484 2.438,-12.109 2.438,-9.0526 2.438,-5.4872 2.438,-1.6128 2.437,2.3523 2.438,6.1846 2.438,9.6687 2.438,12.609 2.438,14.839 2.437,16.236 2.438,16.719 2.438,16.265 2.438,14.897 2.438,12.694 1.487,6.369"
         id="path3401"
         inkscape:connector-curvature="0" />
    </g>
    <g
       transform="translate(93,326)"
       font-size="12"
       font-weight="400"
       font-style="normal"
       id="g3403"
       style="font-size:12px;font-style:normal;font-weight:400;fill:none;stroke:#000000;stroke-width:1;stroke-linecap:square;stroke-linejoin:bevel;stroke-opacity:1;font-family:Helvetica">
      <text
         xml:space="preserve"
         x="0"
         y="0"
         font-size="12"
         font-weight="400"
         font-style="normal"
         id="text3405"
         style="font-size:12px;font-style:normal;font-weight:400;fill:#000000;fill-opacity:1;stroke:none;font-family:Helvetica">0</text>
    </g>
    <g
       transform="translate(130,326)"
       font-size="12"
       font-weight="400"
       font-style="normal"
       id="g3407"
       style="font-size:12px;font-style:normal;font-weight:400;fill:none;stroke:#000000;stroke-width:1;stroke-linecap:square;stroke-linejoin:bevel;stroke-opacity:1;font-family:Helvetica">
      <text
         xml:space="preserve"
         x="0"
         y="0"
         font-size="12"
         font-weight="400"
         font-style="normal"
         id="text3409"
         style="font-size:12px;font-style:normal;font-weight:400;fill:#000000;fill-opacity:1;stroke:none;font-family:Helvetica">1e-7</text>
    </g>
    <g
       transform="translate(179,326)"
       font-size="12"
       font-weight="400"
       font-style="normal"
       id="g3411"
       style="font-size:12px;font-style:normal;font-weight:400;fill:none;stroke:#000000;stroke-width:1;stroke-linecap:square;stroke-linejoin:bevel;stroke-opacity:1;font-family:Helvetica">
      <text
         xml:space="preserve"
         x="0"
         y="0"
         font-size="12"
         font-weight="400"
         font-style="normal"
         id="text3413"
         style="font-size:12px;font-style:normal;font-weight:400;fill:#000000;fill-opacity:1;stroke:none;font-family:Helvetica">2e-7</text>
    </g>
    <g
       transform="translate(228,326)"
       font-size="12"
       font-weight="400"
       font-style="normal"
       id="g3415"
       style="font-size:12px;font-style:normal;font-weight:400;fill:none;stroke:#000000;stroke-width:1;stroke-linecap:square;stroke-linejoin:bevel;stroke-opacity:1;font-family:Helvetica">
      <text
         xml:space="preserve"
         x="0"
         y="0"
         font-size="12"
         font-weight="400"
         font-style="normal"
         id="text3417"
         style="font-size:12px;font-style:normal;font-weight:400;fill:#000000;fill-opacity:1;stroke:none;font-family:Helvetica">3e-7</text>
    </g>
    <g
       transform="translate(277,326)"
       font-size="12"
       font-weight="400"
       font-style="normal"
       id="g3419"
       style="font-size:12px;font-style:normal;font-weight:400;fill:none;stroke:#000000;stroke-width:1;stroke-linecap:square;stroke-linejoin:bevel;stroke-opacity:1;font-family:Helvetica">
      <text
         xml:space="preserve"
         x="0"
         y="0"
         font-size="12"
         font-weight="400"
         font-style="normal"
         id="text3421"
         style="font-size:12px;font-style:normal;font-weight:400;fill:#000000;fill-opacity:1;stroke:none;font-family:Helvetica">4e-7</text>
    </g>
    <g
       transform="translate(326,326)"
       font-size="12"
       font-weight="400"
       font-style="normal"
       id="g3423"
       style="font-size:12px;font-style:normal;font-weight:400;fill:none;stroke:#000000;stroke-width:1;stroke-linecap:square;stroke-linejoin:bevel;stroke-opacity:1;font-family:Helvetica">
      <text
         xml:space="preserve"
         x="0"
         y="0"
         font-size="12"
         font-weight="400"
         font-style="normal"
         id="text3425"
         style="font-size:12px;font-style:normal;font-weight:400;fill:#000000;fill-opacity:1;stroke:none;font-family:Helvetica">5e-7</text>
    </g>
    <g
       transform="translate(375,326)"
       font-size="12"
       font-weight="400"
       font-style="normal"
       id="g3427"
       style="font-size:12px;font-style:normal;font-weight:400;fill:none;stroke:#000000;stroke-width:1;stroke-linecap:square;stroke-linejoin:bevel;stroke-opacity:1;font-family:Helvetica">
      <text
         xml:space="preserve"
         x="0"
         y="0"
         font-size="12"
         font-weight="400"
         font-style="normal"
         id="text3429"
         style="font-size:12px;font-style:normal;font-weight:400;fill:#000000;fill-opacity:1;stroke:none;font-family:Helvetica">6e-7</text>
    </g>
    <g
       transform="translate(424,326)"
       font-size="12"
       font-weight="400"
       font-style="normal"
       id="g3431"
       style="font-size:12px;font-style:normal;font-weight:400;fill:none;stroke:#000000;stroke-width:1;stroke-linecap:square;stroke-linejoin:bevel;stroke-opacity:1;font-family:Helvetica">
      <text
         xml:space="preserve"
         x="0"
         y="0"
         font-size="12"
         font-weight="400"
         font-style="normal"
         id="text3433"
         style="font-size:12px;font-style:normal;font-weight:400;fill:#000000;fill-opacity:1;stroke:none;font-family:Helvetica">7e-7</text>
    </g>
    <g
       transform="translate(473,326)"
       font-size="12"
       font-weight="400"
       font-style="normal"
       id="g3435"
       style="font-size:12px;font-style:normal;font-weight:400;fill:none;stroke:#000000;stroke-width:1;stroke-linecap:square;stroke-linejoin:bevel;stroke-opacity:1;font-family:Helvetica">
      <text
         xml:space="preserve"
         x="0"
         y="0"
         font-size="12"
         font-weight="400"
         font-style="normal"
         id="text3437"
         style="font-size:12px;font-style:normal;font-weight:400;fill:#000000;fill-opacity:1;stroke:none;font-family:Helvetica">8e-7</text>
    </g>
    <g
       transform="translate(522,326)"
       font-size="12"
       font-weight="400"
       font-style="normal"
       id="g3439"
       style="font-size:12px;font-style:normal;font-weight:400;fill:none;stroke:#000000;stroke-width:1;stroke-linecap:square;stroke-linejoin:bevel;stroke-opacity:1;font-family:Helvetica">
      <text
         xml:space="preserve"
         x="0"
         y="0"
         font-size="12"
         font-weight="400"
         font-style="normal"
         id="text3441"
         style="font-size:12px;font-style:normal;font-weight:400;fill:#000000;fill-opacity:1;stroke:none;font-family:Helvetica">9e-7</text>
    </g>
    <g
       transform="translate(571,326)"
       font-size="12"
       font-weight="400"
       font-style="normal"
       id="g3443"
       style="font-size:12px;font-style:normal;font-weight:400;fill:none;stroke:#000000;stroke-width:1;stroke-linecap:square;stroke-linejoin:bevel;stroke-opacity:1;font-family:Helvetica">
      <text
         xml:space="preserve"
         x="0"
         y="0"
         font-size="12"
         font-weight="400"
         font-style="normal"
         id="text3445"
         style="font-size:12px;font-style:normal;font-weight:400;fill:#000000;fill-opacity:1;stroke:none;font-family:Helvetica">1e-6</text>
    </g>
    <g
       transform="translate(62,269)"
       font-size="12"
       font-weight="400"
       font-style="normal"
       id="g3447"
       style="font-size:12px;font-style:normal;font-weight:400;fill:none;stroke:#000000;stroke-width:1;stroke-linecap:square;stroke-linejoin:bevel;stroke-opacity:1;font-family:Helvetica">
      <text
         xml:space="preserve"
         x="0"
         y="0"
         font-size="12"
         font-weight="400"
         font-style="normal"
         id="text3449"
         style="font-size:12px;font-style:normal;font-weight:400;fill:#000000;fill-opacity:1;stroke:none;font-family:Helvetica">-0.5</text>
    </g>
    <g
       transform="translate(81,168)"
       font-size="12"
       font-weight="400"
       font-style="normal"
       id="g3451"
       style="font-size:12px;font-style:normal;font-weight:400;fill:none;stroke:#000000;stroke-width:1;stroke-linecap:square;stroke-linejoin:bevel;stroke-opacity:1;font-family:Helvetica">
      <text
         xml:space="preserve"
         x="0"
         y="0"
         font-size="12"
         font-weight="400"
         font-style="normal"
         id="text3453"
         style="font-size:12px;font-style:normal;font-weight:400;fill:#000000;fill-opacity:1;stroke:none;font-family:Helvetica">0</text>
    </g>
    <g
       transform="translate(67,66)"
       font-size="12"
       font-weight="400"
       font-style="normal"
       id="g3455"
       style="font-size:12px;font-style:normal;font-weight:400;fill:none;stroke:#000000;stroke-width:1;stroke-linecap:square;stroke-linejoin:bevel;stroke-opacity:1;font-family:Helvetica">
      <text
         xml:space="preserve"
         x="0"
         y="0"
         font-size="12"
         font-weight="400"
         font-style="normal"
         id="text3457"
         style="font-size:12px;font-style:normal;font-weight:400;fill:#000000;fill-opacity:1;stroke:none;font-family:Helvetica">0.5</text>
    </g>
    <g
       transform="translate(327,346)"
       font-size="12"
       font-weight="400"
       font-style="normal"
       id="g3459"
       style="font-size:12px;font-style:normal;font-weight:400;fill:none;stroke:#0000ff;stroke-width:1;stroke-linecap:square;stroke-linejoin:bevel;stroke-opacity:1;font-family:Helvetica">
      <text
         xml:space="preserve"
         x="0"
         y="0"
         font-size="12"
         font-weight="400"
         font-style="normal"
         id="text3461"
         style="font-size:12px;font-style:normal;font-weight:400;fill:#0000ff;fill-opacity:1;stroke:none;font-family:Helvetica">time</text>
    </g>
    <g
       transform="translate(327,366)"
       font-size="12"
       font-weight="400"
       font-style="normal"
       id="g3463"
       style="font-size:12px;font-style:normal;font-weight:400;fill:none;stroke:#ff0000;stroke-width:1;stroke-linecap:square;stroke-linejoin:bevel;stroke-opacity:1;font-family:Helvetica">
      <text
         xml:space="preserve"
         x="0"
         y="0"
         font-size="12"
         font-weight="400"
         font-style="normal"
         id="text3465"
         style="font-size:12px;font-style:normal;font-weight:400;fill:#ff0000;fill-opacity:1;stroke:none;font-family:Helvetica">time</text>
    </g>
    <g
       transform="matrix(0,-1,1,0,55,228)"
       font-size="12"
       font-weight="400"
       font-style="normal"
       id="g3467"
       style="font-size:12px;font-style:normal;font-weight:400;fill:none;stroke:#0000ff;stroke-width:1;stroke-linecap:square;stroke-linejoin:bevel;stroke-opacity:1;font-family:Helvetica">
      <text
         xml:space="preserve"
         x="0"
         y="0"
         font-size="12"
         font-weight="400"
         font-style="normal"
         id="text3469"
         style="font-size:12px;font-style:normal;font-weight:400;fill:#0000ff;fill-opacity:1;stroke:none;font-family:Helvetica">ngspice/tran.v(vin)</text>
    </g>
    <g
       transform="matrix(0,-1,1,0,35,224)"
       font-size="12"
       font-weight="400"
       font-style="normal"
       id="g3471"
       style="font-size:12px;font-style:normal;font-weight:400;fill:none;stroke:#ff0000;stroke-width:1;stroke-linecap:square;stroke-linejoin:bevel;stroke-opacity:1;font-family:Helvetica">
      <text
         xml:space="preserve"
         x="0"
         y="0"
         font-size="12"
         font-weight="400"
         font-style="normal"
         id="text3473"
         style="font-size:12px;font-style:normal;font-weight:400;fill:#ff0000;fill-opacity:1;stroke:none;font-family:Helvetica">ngspice/tran.v(vr)</text>
    </g>
    <g
       font-size="12"
       font-weight="400"
       font-style="normal"
       id="g3475"
       style="font-size:12px;font-style:normal;font-weight:400;fill:none;stroke:#ff0000;stroke-width:1;stroke-linecap:square;stroke-linejoin:bevel;stroke-opacity:1;font-family:Helvetica" />
  </g>
</svg>
